<svg width="741" height="865" viewBox="0 0 741 865" fill="none" xmlns="http://www.w3.org/2000/svg">
<path d="M3.24227 305.478C-15.8596 185.409 54.9391 100.511 72.3735 75.3447H735.486C741.55 241.805 743.764 608.655 704.104 744.37C654.53 914.014 487.16 863.985 429.399 831.238C371.638 798.492 254.752 850.341 186.985 859.891C119.219 869.443 18.706 829.874 36.4434 744.37C54.1808 658.866 98.359 625.664 84.6532 546.982C70.9474 468.3 22.3441 425.548 3.24227 305.478Z" fill="url(#paint0_linear_1339_4921)"/>
<path d="M423.285 308.695H340.583M550.064 280.521L515.144 245.601C506.371 236.828 494.473 231.9 482.066 231.9H373.755C355.434 231.9 340.583 246.751 340.583 265.072V265.072M258.79 183.278L340.583 265.072M340.583 265.072V365.041M340.583 443.654V365.041M121.104 249.167L223.277 351.34C232.05 360.113 243.948 365.041 256.354 365.041H340.583" stroke="#F4CB0A" stroke-width="7.30919"/>
<circle cx="549.156" cy="280.976" r="32.7173" fill="white"/>
<path d="M512.983 290.834H518.413C525.014 286.716 528.326 286.72 531.585 290.834H537.445L542.27 299.074L549.339 253.068L555.286 305.695L560.36 290.834H570.546C575.897 286.671 579.323 287.085 581.206 290.834H586.704" stroke="#70C16F" stroke-width="4.71279" stroke-linecap="round" stroke-linejoin="round"/>
<path d="M455.548 308.241C455.548 326.31 440.9 340.958 422.831 340.958C404.761 340.958 390.113 326.31 390.113 308.241C390.113 290.171 404.761 275.523 422.831 275.523C440.9 275.523 455.548 290.171 455.548 308.241Z" fill="white"/>
<path d="M399.15 276.665C397.696 275.227 391.49 281.636 388.568 285.02C382.07 286.797 382.155 292.952 383.866 294.644C391.312 301.871 408.064 317.636 415.503 322.882C424.802 329.439 441.048 327.959 442.758 325.738C444.468 323.517 447.033 320.978 435.704 316.325C424.374 311.672 425.229 293.375 425.229 289.779C425.229 286.183 421.061 287.664 413.365 289.779C405.67 291.894 400.967 278.463 399.15 276.665Z" fill="white" stroke="#70C16F" stroke-width="3.34001" stroke-linejoin="round"/>
<path d="M443.399 320.978C442.045 322.741 437.2 325.695 428.649 323.411C417.961 320.555 416.358 317.382 413.044 313.575C409.731 309.768 394.981 289.567 386.431 286.395" stroke="#70C16F" stroke-width="2.50501" stroke-linecap="round"/>
<path d="M425.443 295.489L420.099 296.124M425.229 299.297L421.381 300.037M426.298 302.787L422.771 303.739M427.26 306.065L424.695 307.017" stroke="#70C16F" stroke-width="2.50501" stroke-linecap="round"/>
<circle cx="258.335" cy="183.733" r="32.7173" fill="white"/>
<path d="M277.802 169.349C286.858 176.98 284.443 184.61 274.783 192.241C271.788 194.607 258.479 204.293 258.292 204.562C258.295 204.565 258.295 204.567 258.292 204.567C258.289 204.567 258.289 204.565 258.292 204.562C258.106 204.293 244.796 194.607 241.801 192.241C232.141 184.61 229.726 176.98 238.782 169.349C248.623 161.057 258.292 175.806 258.292 175.806C258.292 175.806 267.961 161.057 277.802 169.349Z" fill="white"/>
<path d="M277.802 169.349L279.082 167.83L277.802 169.349ZM274.783 192.241L273.552 190.682L274.783 192.241ZM238.782 169.349L240.062 170.868L238.782 169.349ZM241.801 192.241L240.569 193.8L241.801 192.241ZM258.292 175.806L256.63 176.895L258.292 179.429L259.954 176.895L258.292 175.806ZM276.522 170.868C280.739 174.422 281.865 177.584 281.355 180.447C280.807 183.525 278.275 186.951 273.552 190.682L276.015 193.8C280.951 189.901 284.456 185.696 285.267 181.143C286.116 176.375 283.921 171.907 279.082 167.83L276.522 170.868ZM237.502 167.83C232.663 171.907 230.468 176.375 231.317 181.143C232.128 185.696 235.633 189.901 240.569 193.8L243.032 190.682C238.309 186.951 235.777 183.525 235.229 180.447C234.719 177.584 235.845 174.422 240.062 170.868L237.502 167.83ZM258.292 175.806C259.954 176.895 259.953 176.895 259.953 176.896C259.953 176.896 259.953 176.896 259.952 176.897C259.952 176.897 259.952 176.897 259.952 176.897C259.952 176.897 259.953 176.896 259.954 176.894C259.957 176.89 259.962 176.883 259.969 176.872C259.983 176.851 260.006 176.817 260.038 176.771C260.101 176.679 260.199 176.54 260.329 176.362C260.59 176.007 260.978 175.5 261.473 174.914C262.473 173.733 263.874 172.275 265.525 171.075C267.187 169.867 268.981 169.008 270.789 168.838C272.52 168.674 274.447 169.12 276.522 170.868L279.082 167.83C276.236 165.432 273.264 164.612 270.415 164.882C267.642 165.144 265.174 166.418 263.189 167.861C261.192 169.311 259.561 171.023 258.44 172.348C257.875 173.015 257.431 173.596 257.124 174.014C256.971 174.223 256.851 174.393 256.768 174.513C256.727 174.573 256.694 174.621 256.671 174.655C256.66 174.672 256.651 174.686 256.644 174.696C256.64 174.701 256.638 174.706 256.635 174.709C256.634 174.711 256.633 174.712 256.632 174.713C256.632 174.714 256.632 174.715 256.631 174.715C256.631 174.716 256.63 174.716 258.292 175.806ZM258.292 175.806C259.954 174.716 259.953 174.716 259.953 174.715C259.952 174.715 259.952 174.714 259.952 174.713C259.951 174.712 259.95 174.711 259.949 174.709C259.946 174.706 259.944 174.701 259.94 174.696C259.933 174.686 259.924 174.672 259.913 174.655C259.89 174.621 259.857 174.573 259.816 174.513C259.733 174.393 259.613 174.223 259.46 174.014C259.153 173.596 258.709 173.015 258.144 172.348C257.023 171.023 255.392 169.311 253.395 167.861C251.41 166.418 248.942 165.144 246.169 164.882C243.32 164.612 240.348 165.432 237.502 167.83L240.062 170.868C242.137 169.12 244.064 168.674 245.795 168.838C247.603 169.008 249.397 169.867 251.059 171.075C252.71 172.275 254.111 173.733 255.111 174.914C255.606 175.5 255.994 176.007 256.255 176.362C256.385 176.54 256.483 176.679 256.546 176.771C256.578 176.817 256.601 176.851 256.615 176.872C256.622 176.883 256.627 176.89 256.63 176.894C256.631 176.896 256.632 176.897 256.632 176.897C256.632 176.897 256.632 176.897 256.632 176.897C256.631 176.896 256.631 176.896 256.631 176.896C256.631 176.895 256.63 176.895 258.292 175.806ZM273.552 190.682C272.087 191.839 268.048 194.825 264.304 197.59C262.443 198.964 260.665 200.276 259.34 201.262C258.679 201.754 258.125 202.169 257.728 202.471C257.531 202.621 257.363 202.751 257.238 202.85C257.177 202.899 257.113 202.95 257.056 202.999C257.029 203.022 256.989 203.058 256.945 203.099C256.942 203.102 256.794 203.235 256.66 203.428L259.924 205.695C259.843 205.811 259.768 205.891 259.746 205.915C259.714 205.949 259.688 205.974 259.675 205.986C259.661 205.999 259.651 206.008 259.646 206.013C259.643 206.015 259.641 206.017 259.64 206.018C259.639 206.019 259.638 206.019 259.638 206.02C259.638 206.02 259.638 206.019 259.639 206.018C259.64 206.018 259.642 206.016 259.644 206.015C259.647 206.012 259.652 206.008 259.659 206.002C259.672 205.991 259.69 205.977 259.712 205.96C259.804 205.887 259.944 205.778 260.135 205.633C260.513 205.344 261.053 204.94 261.712 204.45C263.029 203.47 264.8 202.163 266.665 200.786C270.371 198.049 274.484 195.009 276.015 193.8L273.552 190.682ZM256.66 203.428C256.622 203.483 256.554 203.587 256.489 203.727C256.437 203.839 256.305 204.144 256.303 204.56C256.302 205.074 256.514 205.734 257.127 206.177C257.619 206.533 258.113 206.554 258.292 206.554V202.581C258.47 202.581 258.963 202.602 259.454 202.957C260.067 203.399 260.278 204.058 260.277 204.572C260.275 204.987 260.144 205.291 260.092 205.401C260.028 205.54 259.961 205.642 259.924 205.695L256.66 203.428ZM240.569 193.8C242.1 195.009 246.213 198.049 249.92 200.786C251.784 202.163 253.555 203.47 254.872 204.45C255.531 204.94 256.071 205.344 256.449 205.633C256.64 205.778 256.78 205.887 256.872 205.959C256.894 205.977 256.912 205.991 256.925 206.002C256.931 206.007 256.936 206.012 256.94 206.015C256.944 206.018 256.946 206.019 256.945 206.019C256.945 206.019 256.945 206.018 256.943 206.017C256.942 206.016 256.94 206.014 256.937 206.012C256.932 206.008 256.922 205.998 256.908 205.985C256.895 205.973 256.869 205.948 256.837 205.913C256.815 205.89 256.739 205.809 256.658 205.692L259.926 203.431C259.791 203.237 259.643 203.103 259.64 203.099C259.596 203.058 259.556 203.023 259.528 202.999C259.471 202.951 259.407 202.899 259.346 202.85C259.221 202.751 259.054 202.622 258.857 202.471C258.46 202.169 257.906 201.754 257.244 201.262C255.92 200.276 254.141 198.964 252.28 197.59C248.536 194.825 244.497 191.839 243.032 190.682L240.569 193.8ZM256.658 205.692C256.621 205.639 256.555 205.537 256.491 205.399C256.44 205.289 256.309 204.987 256.307 204.574C256.305 204.065 256.513 203.406 257.125 202.96C257.617 202.602 258.113 202.581 258.292 202.581V206.554C258.473 206.554 258.969 206.532 259.462 206.173C260.075 205.728 260.283 205.067 260.281 204.557C260.279 204.144 260.148 203.841 260.096 203.729C260.032 203.589 259.964 203.486 259.926 203.431L256.658 205.692Z" fill="#70C16F"/>
<circle cx="122.013" cy="248.258" r="32.7173" fill="white"/>
<path d="M145.948 262.51C146.29 262.011 145.777 261.383 145.198 261.56C132.014 265.587 118.062 258.164 114.035 244.981C111.736 237.455 113.168 229.68 117.273 223.642C117.888 222.737 117.134 221.478 116.088 221.798C101.962 226.113 94.0095 241.061 98.3243 255.186C102.639 269.311 117.588 277.264 131.713 272.949C137.739 271.109 142.642 267.332 145.948 262.51Z" fill="#70C16F"/>
<path d="M122.05 235.172H136.337M125.737 241.901H140.024M129.424 248.629H143.711" stroke="#70C16F" stroke-width="2.94959" stroke-linecap="round" stroke-linejoin="round"/>
<mask id="mask0_1339_4921" style="mask-type:alpha" maskUnits="userSpaceOnUse" x="0" y="0" width="741" height="865">
<path d="M3.24227 305.479C-15.8596 185.409 54.9391 100.511 72.3735 75.3447C164.692 -57.9147 729.515 -17.2318 738.156 219.974C744.22 386.435 743.764 608.654 704.104 744.369C654.53 914.013 487.16 863.984 429.399 831.238C371.638 798.492 254.752 850.341 186.985 859.892C119.219 869.443 18.706 829.873 36.4434 744.369C54.1808 658.865 98.359 625.664 84.6532 546.982C70.9474 468.3 22.3441 425.549 3.24227 305.479Z" fill="white"/>
</mask>
<g mask="url(#mask0_1339_4921)">
<path fill-rule="evenodd" clip-rule="evenodd" d="M228.314 410.085C212.239 410.085 199.207 423.117 199.207 439.193V976C199.207 992.076 212.239 1005.11 228.314 1005.11H453.9C469.976 1005.11 483.008 992.076 483.008 976V439.193C483.008 423.117 469.976 410.085 453.9 410.085H228.314ZM235.169 416.94C219.094 416.94 206.062 429.972 206.062 446.048V969.145C206.062 985.22 219.094 998.253 235.169 998.253H447.045C463.121 998.253 476.153 985.22 476.153 969.145V446.048C476.153 429.972 463.121 416.94 447.045 416.94H412.895C406.523 416.94 401.358 422.105 401.358 428.476C401.358 434.848 396.193 440.013 389.822 440.013H341.107H292.393C286.021 440.013 280.856 434.848 280.856 428.476C280.856 422.105 275.691 416.94 269.319 416.94H235.169Z" fill="#2C2C2C"/>
<path d="M206.062 446.047C206.062 429.971 219.094 416.939 235.17 416.939H269.32C275.691 416.939 280.856 422.105 280.856 428.476C280.856 434.848 286.021 440.013 292.393 440.013H341.107H389.822C396.193 440.013 401.358 434.848 401.358 428.476C401.358 422.105 406.524 416.939 412.895 416.939H447.045C463.121 416.939 476.153 429.971 476.153 446.047V969.144C476.153 985.22 463.121 998.252 447.045 998.252H235.17C219.094 998.252 206.062 985.22 206.062 969.144V446.047Z" fill="white"/>
<mask id="mask1_1339_4921" style="mask-type:alpha" maskUnits="userSpaceOnUse" x="206" y="416" width="271" height="583">
<path d="M206.062 446.048C206.062 429.972 219.094 416.94 235.17 416.94H269.32C275.691 416.94 280.856 422.106 280.856 428.477C280.856 434.849 286.021 440.014 292.393 440.014H341.107H389.822C396.193 440.014 401.358 434.849 401.358 428.477C401.358 422.106 406.524 416.94 412.895 416.94H447.045C463.121 416.94 476.153 429.972 476.153 446.048V969.145C476.153 985.221 463.121 998.253 447.045 998.253H235.17C219.094 998.253 206.062 985.221 206.062 969.145V446.048Z" fill="white"/>
</mask>
<g mask="url(#mask1_1339_4921)">
<circle cx="274.25" cy="518.007" r="47.755" fill="#DCDCDC"/>
<rect x="347.475" y="490.264" width="113.702" height="10.9154" rx="5.45772" fill="#EFEFEF"/>
<rect x="347.475" y="512.095" width="113.702" height="10.9154" rx="5.45772" fill="#EFEFEF"/>
<rect x="347.475" y="534.835" width="113.702" height="10.9154" rx="5.45772" fill="#EFEFEF"/>
<rect x="360.209" y="717.537" width="100.968" height="74.5888" rx="9.09619" fill="#EDFBE8"/>
<rect x="227.405" y="717.537" width="100.968" height="74.5888" rx="9.09619" fill="#EDFBE8"/>
<path d="M279.198 742.716C282.964 736.696 293.556 726.442 304.533 733.666C315.51 740.89 313.411 753.79 304.533 761.589C295.654 769.387 279.198 782.12 279.198 782.12C279.198 782.12 262.852 769.387 253.973 761.589C245.095 753.79 242.996 740.89 253.973 733.666C264.951 726.442 275.431 736.68 279.198 742.7" stroke="#70C16F" stroke-width="9.09619" stroke-linecap="round"/>
<path d="M354.751 773.024C370.546 764.964 383.532 746.742 395.816 749.545C408.1 752.348 413.365 777.579 428.106 769.169C442.847 760.759 458.875 738.098 463.906 730.271" stroke="#70C16F" stroke-width="9.09619" stroke-linecap="round"/>
<rect x="226.495" y="582.914" width="234.682" height="117.341" rx="9.09619" fill="#EDFBE8"/>
<rect x="241.049" y="621.492" width="12.2595" height="62.0001" rx="6.12975" fill="#70C16F"/>
<rect x="264.224" y="636.419" width="12.2595" height="47.0741" rx="6.12975" fill="#70C16F"/>
<rect x="287.399" y="610.011" width="12.2595" height="73.4816" rx="6.12975" fill="#70C16F"/>
<rect x="310.574" y="599.678" width="12.2595" height="83.8149" rx="6.12975" fill="#70C16F"/>
<rect x="333.749" y="613.455" width="12.2595" height="70.0371" rx="6.12975" fill="#70C16F"/>
<rect x="356.924" y="621.492" width="12.2595" height="62.0001" rx="6.12975" fill="#B5EBA2"/>
<rect x="380.099" y="610.011" width="12.2595" height="73.4816" rx="6.12975" fill="#B5EBA2"/>
</g>
</g>
<defs>
<linearGradient id="paint0_linear_1339_4921" x1="369.441" y1="75.3447" x2="369.441" y2="864.354" gradientUnits="userSpaceOnUse">
<stop offset="0.217861" stop-color="#525252" stop-opacity="0"/>
<stop offset="1" stop-color="#58CC57"/>
</linearGradient>
</defs>
</svg>
