<svg width="806" height="474" viewBox="0 0 806 474" fill="none" xmlns="http://www.w3.org/2000/svg">
<path d="M403 0C180.429 0 0 110.586 0 247V474H806V247C806 110.586 625.571 0 403 0Z" fill="#B5EBA2"/>
<path d="M459.64 152.053H403.066M546.366 132.78L522.478 108.892C516.477 102.891 508.338 99.5198 499.851 99.5198H425.758C413.226 99.5198 403.066 109.679 403.066 122.212V122.212M347.114 66.2593L403.066 122.212M403.066 122.212V190.598M403.066 244.374V190.598M252.927 111.332L322.821 181.225C328.822 187.226 336.961 190.598 345.448 190.598H403.066" stroke="#4A6288" stroke-width="5"/>
<circle cx="545.745" cy="133.091" r="22.3809" fill="white"/>
<path d="M521 139.835H524.714C529.23 137.017 531.496 137.02 533.725 139.835H537.733L541.034 145.471L545.87 114L549.938 150L553.41 139.835H560.377C564.038 136.987 566.381 137.27 567.67 139.835H571.431" stroke="#70C16F" stroke-width="3.22388" stroke-linecap="round" stroke-linejoin="round"/>
<path d="M481.71 151.742C481.71 164.103 471.69 174.123 459.329 174.123C446.969 174.123 436.948 164.103 436.948 151.742C436.948 139.381 446.969 129.361 459.329 129.361C471.69 129.361 481.71 139.381 481.71 151.742Z" fill="white"/>
<path d="M443.13 130.142C442.136 129.158 437.89 133.542 435.892 135.857C431.446 137.072 431.505 141.283 432.675 142.441C437.768 147.384 449.228 158.169 454.317 161.757C460.678 166.243 471.791 165.23 472.961 163.711C474.131 162.191 475.886 160.455 468.135 157.272C460.385 154.089 460.97 141.572 460.97 139.113C460.97 136.653 458.119 137.666 452.854 139.113C447.59 140.56 444.373 131.372 443.13 130.142Z" fill="white" stroke="#70C16F" stroke-width="2.2848" stroke-linejoin="round"/>
<path d="M473.4 160.455C472.473 161.661 469.159 163.682 463.31 162.119C455.998 160.166 454.901 157.995 452.635 155.391C450.368 152.786 440.278 138.968 434.429 136.798" stroke="#70C16F" stroke-width="1.7136" stroke-linecap="round"/>
<path d="M461.116 143.019L457.461 143.453M460.97 145.624L458.338 146.13M461.701 148.011L459.289 148.662M462.359 150.254L460.605 150.905" stroke="#70C16F" stroke-width="1.7136" stroke-linecap="round"/>
<circle cx="346.803" cy="66.5701" r="22.3809" fill="white"/>
<path d="M360.12 56.7305C366.315 61.9504 364.663 67.1703 358.055 72.3902C356.006 74.009 346.901 80.6344 346.774 80.8183C346.775 80.8209 346.775 80.8222 346.774 80.8222C346.772 80.8222 346.772 80.8209 346.774 80.8183C346.646 80.6344 337.542 74.0091 335.492 72.3902C328.885 67.1703 327.233 61.9504 333.427 56.7305C340.159 51.058 346.774 61.1473 346.774 61.1473C346.774 61.1473 353.388 51.058 360.12 56.7305Z" fill="white"/>
<path d="M360.12 56.7305L359.244 57.7698L359.244 57.7698L360.12 56.7305ZM358.055 72.3902L358.897 73.4566L358.897 73.4566L358.055 72.3902ZM333.427 56.7305L334.303 57.7698L334.303 57.7698L333.427 56.7305ZM335.492 72.3902L336.335 71.3237L336.335 71.3237L335.492 72.3902ZM346.774 61.1473L345.637 61.8924L346.774 63.6262L347.91 61.8924L346.774 61.1473ZM359.244 57.7698C362.129 60.2006 362.899 62.3641 362.55 64.3221C362.176 66.4275 360.444 68.7712 357.212 71.3237L358.897 73.4566C362.274 70.7892 364.672 67.913 365.226 64.7985C365.807 61.5367 364.306 58.4802 360.996 55.6912L359.244 57.7698ZM332.552 55.6912C329.242 58.4802 327.74 61.5367 328.321 64.7985C328.875 67.913 331.273 70.7892 334.65 73.4566L336.335 71.3237C333.104 68.7712 331.372 66.4275 330.997 64.3221C330.648 62.3641 331.418 60.2006 334.303 57.7698L332.552 55.6912ZM346.774 61.1473C347.91 61.8924 347.91 61.8928 347.91 61.8931C347.91 61.8932 347.91 61.8935 347.909 61.8936C347.909 61.8938 347.909 61.8939 347.909 61.8938C347.909 61.8937 347.91 61.893 347.911 61.8917C347.913 61.889 347.916 61.8841 347.921 61.8769C347.93 61.8625 347.946 61.8392 347.968 61.8078C348.011 61.7449 348.078 61.6496 348.167 61.5281C348.346 61.2847 348.611 60.9381 348.95 60.5373C349.634 59.7291 350.592 58.7319 351.721 57.9111C352.858 57.0847 354.086 56.4975 355.322 56.3806C356.507 56.2686 357.825 56.5739 359.244 57.7698L360.996 55.6912C359.049 54.0509 357.016 53.4902 355.067 53.6745C353.169 53.8539 351.481 54.7254 350.123 55.7123C348.758 56.7048 347.642 57.8754 346.875 58.7817C346.489 59.2381 346.184 59.6354 345.975 59.9216C345.87 60.0649 345.788 60.1808 345.731 60.263C345.703 60.304 345.681 60.3367 345.665 60.3602C345.657 60.3719 345.651 60.3813 345.646 60.3884C345.644 60.3919 345.642 60.3948 345.64 60.3971C345.64 60.3983 345.639 60.3993 345.638 60.4001C345.638 60.4005 345.638 60.401 345.638 60.4013C345.637 60.4017 345.637 60.4022 346.774 61.1473ZM346.774 61.1473C347.91 60.4022 347.91 60.4017 347.91 60.4013C347.91 60.401 347.909 60.4005 347.909 60.4001C347.908 60.3993 347.908 60.3983 347.907 60.3971C347.905 60.3948 347.903 60.3919 347.901 60.3884C347.896 60.3813 347.89 60.3719 347.882 60.3602C347.866 60.3367 347.844 60.304 347.816 60.263C347.759 60.1808 347.678 60.0649 347.573 59.9216C347.363 59.6354 347.059 59.2381 346.673 58.7817C345.906 57.8754 344.79 56.7048 343.424 55.7123C342.066 54.7254 340.378 53.8539 338.481 53.6745C336.532 53.4902 334.498 54.0509 332.552 55.6912L334.303 57.7698C335.722 56.5739 337.041 56.2686 338.225 56.3806C339.461 56.4975 340.689 57.0847 341.826 57.9111C342.955 58.7319 343.914 59.7291 344.597 60.5373C344.937 60.9381 345.202 61.2847 345.38 61.5281C345.469 61.6496 345.536 61.7449 345.58 61.8078C345.601 61.8392 345.617 61.8625 345.627 61.8769C345.632 61.8841 345.635 61.889 345.637 61.8917C345.637 61.893 345.638 61.8937 345.638 61.8938C345.638 61.8939 345.638 61.8938 345.638 61.8936C345.638 61.8935 345.638 61.8932 345.638 61.8931C345.637 61.8928 345.637 61.8924 346.774 61.1473ZM357.212 71.3237C356.21 72.1154 353.447 74.1579 350.886 76.049C349.613 76.9891 348.397 77.887 347.491 78.5611C347.038 78.8978 346.659 79.1818 346.388 79.3885C346.253 79.4911 346.138 79.5794 346.053 79.6475C346.011 79.6807 345.967 79.7161 345.928 79.7494C345.91 79.7654 345.882 79.7895 345.852 79.8176C345.85 79.8199 345.749 79.9109 345.658 80.0429L347.89 81.5937C347.834 81.6733 347.783 81.728 347.768 81.7441C347.746 81.7674 347.729 81.7844 347.72 81.7925C347.71 81.8015 347.703 81.8079 347.7 81.8109C347.698 81.8125 347.697 81.8138 347.696 81.8145C347.695 81.8153 347.694 81.8157 347.694 81.8157C347.694 81.8157 347.695 81.8155 347.695 81.8149C347.696 81.8144 347.697 81.8136 347.698 81.8125C347.701 81.8104 347.704 81.8076 347.709 81.8039C347.718 81.7965 347.73 81.7868 347.745 81.7747C347.808 81.7248 347.904 81.6503 348.034 81.551C348.293 81.3539 348.662 81.0774 349.113 80.7418C350.014 80.0714 351.226 79.1773 352.501 78.2356C355.036 76.3633 357.85 74.2837 358.897 73.4566L357.212 71.3237ZM345.658 80.0426C345.631 80.0804 345.585 80.1514 345.54 80.2476C345.504 80.3242 345.414 80.5329 345.413 80.8178C345.412 81.1699 345.558 81.6208 345.977 81.9236C346.313 82.1666 346.651 82.1813 346.774 82.1813V79.4632C346.895 79.4632 347.233 79.4777 347.569 79.7204C347.987 80.0228 348.132 80.4732 348.131 80.8247C348.131 81.1089 348.04 81.3169 348.005 81.3925C347.961 81.4877 347.915 81.5575 347.89 81.594L345.658 80.0426ZM334.65 73.4566C335.697 74.2838 338.511 76.3634 341.046 78.2356C342.322 79.1773 343.533 80.0714 344.434 80.7418C344.885 81.0774 345.254 81.3539 345.513 81.551C345.643 81.6502 345.74 81.7247 345.802 81.7746C345.817 81.7867 345.829 81.7963 345.838 81.8037C345.843 81.8074 345.846 81.8102 345.849 81.8123C345.851 81.8144 345.853 81.8154 345.853 81.8154C345.853 81.8153 345.852 81.8149 345.851 81.8142C345.85 81.8134 345.849 81.8122 345.847 81.8105C345.844 81.8075 345.836 81.801 345.827 81.7919C345.818 81.7837 345.8 81.7666 345.778 81.7431C345.763 81.7269 345.711 81.6718 345.656 81.5915L347.891 80.0451C347.799 79.9121 347.698 79.8204 347.696 79.8182C347.666 79.7899 347.638 79.7658 347.619 79.7497C347.58 79.7163 347.536 79.6809 347.495 79.6477C347.409 79.5795 347.295 79.4912 347.16 79.3886C346.888 79.1818 346.509 78.8979 346.057 78.5612C345.151 77.887 343.934 76.9891 342.661 76.0491C340.1 74.1579 337.337 72.1154 336.335 71.3237L334.65 73.4566ZM345.656 81.5918C345.631 81.5554 345.585 81.4858 345.541 81.391C345.506 81.3156 345.417 81.109 345.416 80.8267C345.415 80.4787 345.556 80.0278 345.975 79.7232C346.312 79.4781 346.651 79.4632 346.774 79.4632V82.1813C346.897 82.1813 347.237 82.1662 347.575 81.9208C347.993 81.6159 348.135 81.1645 348.134 80.8158C348.133 80.5328 348.043 80.3254 348.008 80.249C347.964 80.1533 347.917 80.0826 347.891 80.0448L345.656 81.5918Z" fill="#70C16F"/>
<circle cx="253.549" cy="110.71" r="22.3809" fill="white"/>
<path d="M269.922 120.459C270.156 120.118 269.805 119.688 269.409 119.809V119.809C260.391 122.564 250.846 117.487 248.092 108.468C246.519 103.32 247.499 98.0009 250.307 93.8709C250.728 93.2519 250.212 92.3905 249.496 92.6092V92.6092C239.833 95.5609 234.393 105.787 237.344 115.449C240.296 125.112 250.522 130.552 260.184 127.601C264.307 126.341 267.661 123.758 269.922 120.459Z" fill="#70C16F"/>
<path d="M253.574 101.759H263.348M256.096 106.361H265.87M258.619 110.964H268.392" stroke="#70C16F" stroke-width="2.01773" stroke-linecap="round" stroke-linejoin="round"/>
<mask id="mask0_399_541" style="mask-type:alpha" maskUnits="userSpaceOnUse" x="0" y="0" width="806" height="474">
<path d="M403 0C180.429 0 0 110.586 0 247V474H806V247C806 110.586 625.571 0 403 0Z" fill="#B5EBA2"/>
</mask>
<g mask="url(#mask0_399_541)">
<path fill-rule="evenodd" clip-rule="evenodd" d="M338 221.372C320.327 221.372 306 235.698 306 253.372V596.049C306 613.722 320.327 628.049 338 628.049H467.968C485.641 628.049 499.968 613.722 499.968 596.049V253.372C499.968 235.698 485.641 221.372 467.968 221.372H338ZM336.245 226.057C322.129 226.057 310.685 237.5 310.685 251.617V591.363C310.685 609.037 325.012 623.363 342.685 623.363H463.283C480.956 623.363 495.283 609.037 495.283 591.363V251.617C495.283 237.5 483.839 226.057 469.723 226.057H452.048C447.694 226.057 444.163 229.587 444.163 233.942C444.163 238.297 440.633 241.827 436.279 241.827H402.984H369.689C365.335 241.827 361.805 238.297 361.805 233.942C361.805 229.587 358.274 226.057 353.92 226.057H336.245Z" fill="#2C2C2C"/>
<path d="M310.685 251.616C310.685 237.5 322.129 226.057 336.245 226.057H353.919C358.274 226.057 361.804 229.587 361.804 233.942V233.942C361.804 238.296 365.335 241.827 369.689 241.827H402.984H436.278C440.633 241.827 444.163 238.296 444.163 233.942V233.942C444.163 229.587 447.694 226.057 452.048 226.057H469.723C483.839 226.057 495.283 237.5 495.283 251.616V591.363C495.283 609.036 480.956 623.363 463.283 623.363H342.685C325.012 623.363 310.685 609.036 310.685 591.363V251.616Z" fill="white"/>
<mask id="mask1_399_541" style="mask-type:alpha" maskUnits="userSpaceOnUse" x="310" y="226" width="186" height="398">
<path d="M310.685 251.616C310.685 237.5 322.129 226.057 336.245 226.057H353.919C358.274 226.057 361.804 229.587 361.804 233.942V233.942C361.804 238.296 365.335 241.827 369.689 241.827H402.984H436.278C440.633 241.827 444.163 238.296 444.163 233.942V233.942C444.163 229.587 447.694 226.057 452.048 226.057H469.723C483.839 226.057 495.283 237.5 495.283 251.616V591.363C495.283 609.036 480.956 623.363 463.283 623.363H342.685C325.012 623.363 310.685 609.036 310.685 591.363V251.616Z" fill="white"/>
</mask>
<g mask="url(#mask1_399_541)">
<circle cx="357.289" cy="295.132" r="32.6389" fill="#DCDCDC"/>
<rect x="407.336" y="276.17" width="77.7116" height="7.46031" rx="3.73015" fill="#EFEFEF"/>
<rect x="407.336" y="291.091" width="77.7116" height="7.46031" rx="3.73015" fill="#EFEFEF"/>
<rect x="407.336" y="306.633" width="77.7116" height="7.46031" rx="3.73015" fill="#EFEFEF"/>
<rect x="322.607" y="344" width="161" height="112" rx="10" fill="#EDFBE8"/>
<rect x="338.607" y="380.822" width="13.4776" height="59.1781" rx="6.73881" fill="#70C16F"/>
<rect x="357.861" y="395.068" width="13.4776" height="44.9315" rx="6.73881" fill="#70C16F"/>
<rect x="377.115" y="369.863" width="13.4776" height="70.137" rx="6.73881" fill="#70C16F"/>
<rect x="396.368" y="360" width="13.4776" height="80" rx="6.73881" fill="#70C16F"/>
<rect x="415.622" y="373.151" width="13.4776" height="66.8493" rx="6.73881" fill="#70C16F"/>
<rect x="434.876" y="380.822" width="13.4776" height="59.1781" rx="6.73881" fill="#B5EBA2"/>
<rect x="454.129" y="369.863" width="13.4776" height="70.137" rx="6.73881" fill="#B5EBA2"/>
</g>
</g>
</svg>
