<svg width="684" height="474" viewBox="0 0 684 474" fill="none" xmlns="http://www.w3.org/2000/svg">
<path d="M342 0C153.119 0 0 110.586 0 247V474H684V247C684 110.586 530.881 0 342 0Z" fill="url(#paint0_linear_1364_1351)"/>
<path d="M398.64 152.053H342.066M485.366 132.781L461.478 108.893C455.477 102.892 447.338 99.5203 438.851 99.5203H364.758C352.226 99.5203 342.066 109.68 342.066 122.212V122.212M286.114 66.2598L342.066 122.212M342.066 122.212V190.598M342.066 244.375V190.598M191.927 111.332L261.821 181.226C267.822 187.227 275.961 190.598 284.448 190.598H342.066" stroke="#F4CB0A" stroke-width="5"/>
<circle cx="484.745" cy="133.092" r="22.3809" fill="white"/>
<path d="M460 139.836H463.714C468.23 137.018 470.496 137.021 472.725 139.836H476.733L480.034 145.472L484.87 114.001L488.938 150.001L492.41 139.836H499.377C503.038 136.988 505.381 137.271 506.67 139.836H510.431" stroke="#70C16F" stroke-width="3.22388" stroke-linecap="round" stroke-linejoin="round"/>
<path d="M420.71 151.742C420.71 164.103 410.69 174.123 398.329 174.123C385.969 174.123 375.948 164.103 375.948 151.742C375.948 139.382 385.969 129.361 398.329 129.361C410.69 129.361 420.71 139.382 420.71 151.742Z" fill="white"/>
<path d="M382.13 130.142C381.136 129.158 376.89 133.542 374.892 135.857C370.446 137.072 370.505 141.283 371.675 142.441C376.768 147.384 388.228 158.169 393.317 161.757C399.678 166.243 410.791 165.23 411.961 163.711C413.131 162.191 414.886 160.455 407.135 157.272C399.385 154.089 399.97 141.572 399.97 139.113C399.97 136.653 397.119 137.666 391.854 139.113C386.59 140.56 383.373 131.372 382.13 130.142Z" fill="white" stroke="#70C16F" stroke-width="2.2848" stroke-linejoin="round"/>
<path d="M412.4 160.455C411.473 161.661 408.159 163.682 402.31 162.119C394.998 160.166 393.901 157.996 391.635 155.391C389.368 152.787 379.278 138.968 373.429 136.798" stroke="#70C16F" stroke-width="1.7136" stroke-linecap="round"/>
<path d="M400.116 143.02L396.461 143.454M399.97 145.624L397.338 146.13M400.701 148.011L398.289 148.663M401.359 150.254L399.605 150.905" stroke="#70C16F" stroke-width="1.7136" stroke-linecap="round"/>
<circle cx="285.803" cy="66.5704" r="22.3809" fill="white"/>
<path d="M299.12 56.7305C305.315 61.9504 303.663 67.1703 297.055 72.3902C295.006 74.009 285.901 80.6344 285.774 80.8183C285.775 80.8209 285.775 80.8222 285.774 80.8222C285.772 80.8222 285.772 80.8209 285.774 80.8183C285.646 80.6344 276.542 74.0091 274.492 72.3902C267.885 67.1703 266.233 61.9504 272.427 56.7305C279.159 51.058 285.774 61.1473 285.774 61.1473C285.774 61.1473 292.388 51.058 299.12 56.7305Z" fill="white"/>
<path d="M299.12 56.7305L298.244 57.7698L298.244 57.7698L299.12 56.7305ZM297.055 72.3902L297.897 73.4566L297.897 73.4566L297.055 72.3902ZM272.427 56.7305L273.303 57.7698L273.303 57.7698L272.427 56.7305ZM274.492 72.3902L275.335 71.3237L275.335 71.3237L274.492 72.3902ZM285.774 61.1473L284.637 61.8924L285.774 63.6262L286.91 61.8924L285.774 61.1473ZM298.244 57.7698C301.129 60.2006 301.899 62.3641 301.55 64.3221C301.176 66.4275 299.444 68.7712 296.212 71.3237L297.897 73.4566C301.274 70.7892 303.672 67.913 304.226 64.7985C304.807 61.5367 303.306 58.4802 299.996 55.6912L298.244 57.7698ZM271.552 55.6912C268.242 58.4802 266.74 61.5367 267.321 64.7985C267.875 67.913 270.273 70.7892 273.65 73.4566L275.335 71.3237C272.104 68.7712 270.372 66.4275 269.997 64.3221C269.648 62.3641 270.418 60.2006 273.303 57.7698L271.552 55.6912ZM285.774 61.1473C286.91 61.8924 286.91 61.8928 286.91 61.8931C286.91 61.8932 286.91 61.8935 286.909 61.8936C286.909 61.8938 286.909 61.8939 286.909 61.8938C286.909 61.8937 286.91 61.893 286.911 61.8917C286.913 61.889 286.916 61.8841 286.921 61.8769C286.93 61.8625 286.946 61.8392 286.968 61.8078C287.011 61.7449 287.078 61.6496 287.167 61.5281C287.346 61.2847 287.611 60.9381 287.95 60.5373C288.634 59.7291 289.592 58.7319 290.721 57.9111C291.858 57.0847 293.086 56.4975 294.322 56.3806C295.507 56.2686 296.825 56.5739 298.244 57.7698L299.996 55.6912C298.049 54.0509 296.016 53.4902 294.067 53.6745C292.169 53.8539 290.481 54.7254 289.123 55.7123C287.758 56.7048 286.642 57.8754 285.875 58.7817C285.489 59.2381 285.184 59.6354 284.975 59.9216C284.87 60.0649 284.788 60.1808 284.731 60.263C284.703 60.304 284.681 60.3367 284.665 60.3602C284.657 60.3719 284.651 60.3813 284.646 60.3884C284.644 60.3919 284.642 60.3948 284.64 60.3971C284.64 60.3983 284.639 60.3993 284.638 60.4001C284.638 60.4005 284.638 60.401 284.638 60.4013C284.637 60.4017 284.637 60.4022 285.774 61.1473ZM285.774 61.1473C286.91 60.4022 286.91 60.4017 286.91 60.4013C286.91 60.401 286.909 60.4005 286.909 60.4001C286.908 60.3993 286.908 60.3983 286.907 60.3971C286.905 60.3948 286.903 60.3919 286.901 60.3884C286.896 60.3813 286.89 60.3719 286.882 60.3602C286.866 60.3367 286.844 60.304 286.816 60.263C286.759 60.1808 286.678 60.0649 286.573 59.9216C286.363 59.6354 286.059 59.2381 285.673 58.7817C284.906 57.8754 283.79 56.7048 282.424 55.7123C281.066 54.7254 279.378 53.8539 277.481 53.6745C275.532 53.4902 273.498 54.0509 271.552 55.6912L273.303 57.7698C274.722 56.5739 276.041 56.2686 277.225 56.3806C278.461 56.4975 279.689 57.0847 280.826 57.9111C281.955 58.7319 282.914 59.7291 283.597 60.5373C283.937 60.9381 284.202 61.2847 284.38 61.5281C284.469 61.6496 284.536 61.7449 284.58 61.8078C284.601 61.8392 284.617 61.8625 284.627 61.8769C284.632 61.8841 284.635 61.889 284.637 61.8917C284.637 61.893 284.638 61.8937 284.638 61.8938C284.638 61.8939 284.638 61.8938 284.638 61.8936C284.638 61.8935 284.638 61.8932 284.638 61.8931C284.637 61.8928 284.637 61.8924 285.774 61.1473ZM296.212 71.3237C295.21 72.1154 292.447 74.1579 289.886 76.049C288.613 76.9891 287.397 77.887 286.491 78.5611C286.038 78.8978 285.659 79.1818 285.388 79.3885C285.253 79.4911 285.138 79.5794 285.053 79.6475C285.011 79.6807 284.967 79.7161 284.928 79.7494C284.91 79.7654 284.882 79.7895 284.852 79.8176C284.85 79.8199 284.749 79.9109 284.658 80.0429L286.89 81.5937C286.834 81.6733 286.783 81.728 286.768 81.7441C286.746 81.7674 286.729 81.7844 286.72 81.7925C286.71 81.8015 286.703 81.8079 286.7 81.8109C286.698 81.8125 286.697 81.8138 286.696 81.8145C286.695 81.8153 286.694 81.8157 286.694 81.8157C286.694 81.8157 286.695 81.8155 286.695 81.8149C286.696 81.8144 286.697 81.8136 286.698 81.8125C286.701 81.8104 286.704 81.8076 286.709 81.8039C286.718 81.7965 286.73 81.7868 286.745 81.7747C286.808 81.7248 286.904 81.6503 287.034 81.551C287.293 81.3539 287.662 81.0774 288.113 80.7418C289.014 80.0714 290.226 79.1773 291.501 78.2356C294.036 76.3633 296.85 74.2837 297.897 73.4566L296.212 71.3237ZM284.658 80.0426C284.631 80.0804 284.585 80.1514 284.54 80.2476C284.504 80.3242 284.414 80.5329 284.413 80.8178C284.412 81.1699 284.558 81.6208 284.977 81.9236C285.313 82.1666 285.651 82.1813 285.774 82.1813V79.4632C285.895 79.4632 286.233 79.4777 286.569 79.7204C286.987 80.0228 287.132 80.4732 287.131 80.8247C287.131 81.1089 287.04 81.3169 287.005 81.3925C286.961 81.4877 286.915 81.5575 286.89 81.594L284.658 80.0426ZM273.65 73.4566C274.697 74.2838 277.511 76.3634 280.046 78.2356C281.322 79.1773 282.533 80.0714 283.434 80.7418C283.885 81.0774 284.254 81.3539 284.513 81.551C284.643 81.6502 284.74 81.7247 284.802 81.7746C284.817 81.7867 284.829 81.7963 284.838 81.8037C284.843 81.8074 284.846 81.8102 284.849 81.8123C284.851 81.8144 284.853 81.8154 284.853 81.8154C284.853 81.8153 284.852 81.8149 284.851 81.8142C284.85 81.8134 284.849 81.8122 284.847 81.8105C284.844 81.8075 284.836 81.801 284.827 81.7919C284.818 81.7837 284.8 81.7666 284.778 81.7431C284.763 81.7269 284.711 81.6718 284.656 81.5915L286.891 80.0451C286.799 79.9121 286.698 79.8204 286.696 79.8182C286.666 79.7899 286.638 79.7658 286.619 79.7497C286.58 79.7163 286.536 79.6809 286.495 79.6477C286.409 79.5795 286.295 79.4912 286.16 79.3886C285.888 79.1818 285.509 78.8979 285.057 78.5612C284.151 77.887 282.934 76.9891 281.661 76.0491C279.1 74.1579 276.337 72.1154 275.335 71.3237L273.65 73.4566ZM284.656 81.5918C284.631 81.5554 284.585 81.4858 284.541 81.391C284.506 81.3156 284.417 81.109 284.416 80.8267C284.415 80.4787 284.556 80.0278 284.975 79.7232C285.312 79.4781 285.651 79.4632 285.774 79.4632V82.1813C285.897 82.1813 286.237 82.1662 286.575 81.9208C286.993 81.6159 287.135 81.1645 287.134 80.8158C287.133 80.5328 287.043 80.3254 287.008 80.249C286.964 80.1533 286.917 80.0826 286.891 80.0448L284.656 81.5918Z" fill="#70C16F"/>
<circle cx="192.549" cy="110.711" r="22.3809" fill="white"/>
<path d="M208.922 120.461C209.156 120.119 208.805 119.69 208.409 119.811V119.811C199.391 122.566 189.846 117.488 187.092 108.47C185.519 103.322 186.499 98.0024 189.307 93.8724C189.728 93.2534 189.212 92.392 188.496 92.6107V92.6107C178.833 95.5623 173.393 105.788 176.344 115.451C179.296 125.113 189.522 130.554 199.184 127.602C203.307 126.343 206.661 123.76 208.922 120.461Z" fill="#70C16F"/>
<path d="M192.574 101.76H202.348M195.096 106.363H204.87M197.619 110.966H207.392" stroke="#70C16F" stroke-width="2.01773" stroke-linecap="round" stroke-linejoin="round"/>
<mask id="mask0_1364_1351" style="mask-type:alpha" maskUnits="userSpaceOnUse" x="0" y="0" width="684" height="474">
<path d="M342 0C153.119 0 0 110.586 0 247V474H684V247C684 110.586 530.881 0 342 0Z" fill="#B5EBA2"/>
</mask>
<g mask="url(#mask0_1364_1351)">
<path fill-rule="evenodd" clip-rule="evenodd" d="M277 221.371C259.327 221.371 245 235.698 245 253.371V596.048C245 613.721 259.327 628.048 277 628.048H406.968C424.641 628.048 438.968 613.721 438.968 596.048V253.371C438.968 235.698 424.641 221.371 406.968 221.371H277ZM275.245 226.056C261.129 226.056 249.685 237.5 249.685 251.616V591.363C249.685 609.036 264.012 623.363 281.685 623.363H402.283C419.956 623.363 434.283 609.036 434.283 591.363V251.616C434.283 237.5 422.839 226.056 408.723 226.056H391.048C386.694 226.056 383.163 229.587 383.163 233.941C383.163 238.296 379.633 241.826 375.279 241.826H341.984H308.689C304.335 241.826 300.805 238.296 300.805 233.941C300.805 229.587 297.274 226.056 292.92 226.056H275.245Z" fill="#2C2C2C"/>
<path d="M249.685 251.616C249.685 237.5 261.129 226.057 275.245 226.057H292.919C297.274 226.057 300.804 229.587 300.804 233.942V233.942C300.804 238.296 304.335 241.827 308.689 241.827H341.984H375.278C379.633 241.827 383.163 238.296 383.163 233.942V233.942C383.163 229.587 386.694 226.057 391.048 226.057H408.723C422.839 226.057 434.283 237.5 434.283 251.616V591.363C434.283 609.036 419.956 623.363 402.283 623.363H281.685C264.012 623.363 249.685 609.036 249.685 591.363V251.616Z" fill="white"/>
<mask id="mask1_1364_1351" style="mask-type:alpha" maskUnits="userSpaceOnUse" x="249" y="226" width="186" height="398">
<path d="M249.685 251.616C249.685 237.5 261.129 226.057 275.245 226.057H292.919C297.274 226.057 300.804 229.587 300.804 233.942V233.942C300.804 238.296 304.335 241.827 308.689 241.827H341.984H375.278C379.633 241.827 383.163 238.296 383.163 233.942V233.942C383.163 229.587 386.694 226.057 391.048 226.057H408.723C422.839 226.057 434.283 237.5 434.283 251.616V591.363C434.283 609.036 419.956 623.363 402.283 623.363H281.685C264.012 623.363 249.685 609.036 249.685 591.363V251.616Z" fill="white"/>
</mask>
<g mask="url(#mask1_1364_1351)">
<circle cx="296.289" cy="295.132" r="32.6389" fill="#DCDCDC"/>
<rect x="346.336" y="276.17" width="77.7116" height="7.46031" rx="3.73015" fill="#EFEFEF"/>
<rect x="346.336" y="291.091" width="77.7116" height="7.46031" rx="3.73015" fill="#EFEFEF"/>
<rect x="346.336" y="306.634" width="77.7116" height="7.46031" rx="3.73015" fill="#EFEFEF"/>
<rect x="261.607" y="344" width="161" height="112" rx="10" fill="#EDFBE8"/>
<rect x="277.607" y="380.822" width="13.4776" height="59.1781" rx="6.73881" fill="#70C16F"/>
<rect x="296.861" y="395.068" width="13.4776" height="44.9315" rx="6.73881" fill="#70C16F"/>
<rect x="316.115" y="369.863" width="13.4776" height="70.137" rx="6.73881" fill="#70C16F"/>
<rect x="335.368" y="360" width="13.4776" height="80" rx="6.73881" fill="#70C16F"/>
<rect x="354.622" y="373.15" width="13.4776" height="66.8493" rx="6.73881" fill="#70C16F"/>
<rect x="373.876" y="380.822" width="13.4776" height="59.1781" rx="6.73881" fill="#B5EBA2"/>
<rect x="393.129" y="369.863" width="13.4776" height="70.137" rx="6.73881" fill="#B5EBA2"/>
</g>
</g>
<defs>
<linearGradient id="paint0_linear_1364_1351" x1="342" y1="0" x2="342" y2="474" gradientUnits="userSpaceOnUse">
<stop offset="0.217861" stop-color="#525252" stop-opacity="0"/>
<stop offset="1" stop-color="#58CC57"/>
</linearGradient>
</defs>
</svg>
