<svg width="736" height="902" viewBox="0 0 736 902" fill="none" xmlns="http://www.w3.org/2000/svg">
<path d="M94.0655 556.331C78.9979 469.831 25.5653 422.832 4.56545 290.832C-66.5017 -155.879 787.289 -9.26361 732.499 218.001C706.127 327.391 672.716 414.001 688.358 523.501C704 633.001 728.793 698.67 688.358 811.5C647.923 924.33 536.566 904.831 473.066 868.831C409.566 832.831 281.066 889.832 206.566 900.332C132.066 910.832 21.5656 867.331 41.0654 773.331C60.5652 679.331 109.133 642.831 94.0655 556.331Z" fill="#B5EBA2"/>
<path d="M466.344 294.367H375.424M605.72 263.394L567.33 225.004C557.686 215.36 544.605 209.941 530.966 209.941H411.892C391.751 209.941 375.424 226.269 375.424 246.409V246.409M285.504 156.489L375.424 246.409M375.424 246.409V356.312M375.424 442.735V356.312M134.138 228.925L246.463 341.249C256.107 350.894 269.188 356.312 282.827 356.312H375.424" stroke="#4A6288" stroke-width="8.03544"/>
<circle cx="604.721" cy="263.893" r="35.9681" fill="white"/>
<path d="M564.954 274.731H570.923C578.181 270.203 581.822 270.208 585.404 274.731H591.847L597.151 283.789L604.923 233.212L611.461 291.068L617.039 274.731H628.237C634.12 270.154 637.886 270.609 639.956 274.731H646.001" stroke="#70C16F" stroke-width="5.18106" stroke-linecap="round" stroke-linejoin="round"/>
<path d="M501.812 293.867C501.812 313.732 485.709 329.835 465.844 329.835C445.98 329.835 429.876 313.732 429.876 293.867C429.876 274.002 445.98 257.899 465.844 257.899C485.709 257.899 501.812 274.002 501.812 293.867Z" fill="white"/>
<path d="M439.811 259.153C438.213 257.572 431.39 264.618 428.178 268.339C421.034 270.292 421.128 277.059 423.008 278.919C431.194 286.864 449.61 304.196 457.788 309.963C468.011 317.171 485.872 315.544 487.752 313.102C489.632 310.66 492.452 307.87 479.996 302.754C467.541 297.638 468.481 277.524 468.481 273.571C468.481 269.618 463.899 271.245 455.438 273.571C446.978 275.896 441.808 261.13 439.811 259.153Z" fill="white" stroke="#70C16F" stroke-width="3.67187" stroke-linejoin="round"/>
<path d="M488.456 307.87C486.968 309.808 481.641 313.055 472.241 310.544C460.491 307.405 458.728 303.917 455.086 299.731C451.443 295.545 435.228 273.338 425.828 269.85" stroke="#70C16F" stroke-width="2.75391" stroke-linecap="round"/>
<path d="M468.716 279.849L462.841 280.547M468.481 284.035L464.251 284.849M469.656 287.872L465.779 288.918M470.714 291.476L467.894 292.522" stroke="#70C16F" stroke-width="2.75391" stroke-linecap="round"/>
<circle cx="285.005" cy="156.988" r="35.9681" fill="white"/>
<path d="M306.406 141.175C316.361 149.564 313.707 157.953 303.087 166.342C299.794 168.943 285.163 179.591 284.957 179.886C284.96 179.891 284.96 179.893 284.957 179.893C284.954 179.893 284.954 179.891 284.957 179.886C284.753 179.591 270.121 168.943 266.827 166.342C256.208 157.953 253.553 149.564 263.509 141.175C274.328 132.059 284.957 148.273 284.957 148.273C284.957 148.273 295.587 132.059 306.406 141.175Z" fill="white"/>
<path d="M306.406 141.175L307.813 139.505V139.505L306.406 141.175ZM303.087 166.342L301.733 164.628L303.087 166.342ZM263.509 141.175L262.101 139.505V139.505L263.509 141.175ZM266.827 166.342L265.473 168.055H265.473L266.827 166.342ZM284.957 148.273L283.131 149.471L284.957 152.257L286.784 149.471L284.957 148.273ZM304.998 142.845C309.635 146.752 310.872 150.229 310.312 153.376C309.709 156.759 306.926 160.526 301.733 164.628L304.441 168.055C309.868 163.769 313.721 159.146 314.612 154.141C315.546 148.899 313.133 143.987 307.813 139.505L304.998 142.845ZM262.101 139.505C256.782 143.987 254.369 148.899 255.302 154.141C256.193 159.146 260.047 163.769 265.473 168.055L268.181 164.628C262.988 160.526 260.205 156.759 259.603 153.376C259.043 150.229 260.28 146.752 264.916 142.845L262.101 139.505ZM284.957 148.273C286.784 149.471 286.783 149.471 286.783 149.472C286.783 149.472 286.783 149.472 286.783 149.473C286.782 149.473 286.782 149.473 286.782 149.473C286.782 149.473 286.783 149.472 286.785 149.47C286.787 149.465 286.793 149.457 286.801 149.446C286.816 149.423 286.841 149.385 286.876 149.335C286.946 149.234 287.054 149.081 287.197 148.885C287.484 148.494 287.91 147.937 288.455 147.293C289.553 145.994 291.093 144.392 292.908 143.072C294.736 141.744 296.709 140.801 298.696 140.613C300.599 140.433 302.717 140.923 304.998 142.845L307.813 139.505C304.685 136.869 301.417 135.968 298.285 136.264C295.236 136.552 292.523 137.953 290.34 139.539C288.146 141.134 286.352 143.015 285.12 144.472C284.499 145.205 284.01 145.844 283.673 146.304C283.505 146.534 283.373 146.72 283.282 146.852C283.237 146.918 283.201 146.971 283.176 147.008C283.163 147.027 283.153 147.042 283.145 147.054C283.142 147.059 283.138 147.064 283.136 147.068C283.135 147.07 283.134 147.071 283.133 147.072C283.132 147.073 283.132 147.074 283.132 147.074C283.131 147.075 283.131 147.076 284.957 148.273ZM284.957 148.273C286.784 147.076 286.783 147.075 286.783 147.074C286.783 147.074 286.782 147.073 286.782 147.072C286.781 147.071 286.78 147.07 286.778 147.068C286.776 147.064 286.773 147.059 286.769 147.054C286.762 147.042 286.752 147.027 286.739 147.008C286.714 146.971 286.678 146.918 286.632 146.852C286.541 146.72 286.41 146.534 286.241 146.304C285.904 145.844 285.415 145.205 284.795 144.472C283.562 143.015 281.769 141.134 279.574 139.539C277.392 137.953 274.679 136.552 271.63 136.264C268.497 135.968 265.23 136.869 262.101 139.505L264.916 142.845C267.197 140.923 269.315 140.433 271.219 140.613C273.206 140.801 275.179 141.744 277.006 143.072C278.821 144.392 280.361 145.994 281.46 147.293C282.005 147.937 282.431 148.494 282.717 148.885C282.861 149.081 282.968 149.234 283.038 149.335C283.073 149.385 283.098 149.423 283.114 149.446C283.122 149.457 283.127 149.465 283.13 149.47C283.131 149.472 283.132 149.473 283.132 149.473C283.132 149.473 283.132 149.473 283.132 149.473C283.132 149.472 283.131 149.472 283.131 149.472C283.131 149.471 283.131 149.471 284.957 148.273ZM301.733 164.628C300.123 165.9 295.682 169.183 291.567 172.222C289.521 173.732 287.566 175.175 286.11 176.259C285.382 176.8 284.773 177.256 284.337 177.589C284.12 177.753 283.936 177.895 283.799 178.005C283.732 178.058 283.662 178.115 283.599 178.169C283.569 178.194 283.524 178.233 283.477 178.278C283.473 178.282 283.311 178.428 283.163 178.64L286.751 181.133C286.662 181.26 286.58 181.348 286.555 181.374C286.52 181.412 286.492 181.439 286.478 181.452C286.463 181.466 286.451 181.477 286.446 181.481C286.443 181.484 286.441 181.486 286.439 181.487C286.438 181.489 286.437 181.489 286.437 181.489C286.437 181.489 286.437 181.489 286.438 181.488C286.44 181.487 286.441 181.486 286.443 181.484C286.447 181.481 286.453 181.476 286.46 181.47C286.475 181.458 286.494 181.443 286.518 181.423C286.619 181.343 286.774 181.223 286.983 181.064C287.399 180.747 287.993 180.303 288.717 179.763C290.165 178.686 292.112 177.249 294.162 175.736C298.236 172.727 302.758 169.385 304.441 168.055L301.733 164.628ZM283.163 178.64C283.121 178.701 283.046 178.815 282.975 178.969C282.918 179.092 282.772 179.428 282.771 179.885C282.769 180.451 283.003 181.176 283.676 181.663C284.217 182.053 284.76 182.077 284.957 182.077V177.708C285.153 177.708 285.695 177.732 286.235 178.122C286.908 178.608 287.141 179.332 287.139 179.897C287.138 180.354 286.993 180.688 286.937 180.809C286.866 180.962 286.792 181.074 286.751 181.132L283.163 178.64ZM265.473 168.055C267.156 169.385 271.678 172.727 275.753 175.736C277.803 177.249 279.75 178.686 281.197 179.763C281.922 180.303 282.515 180.747 282.931 181.064C283.141 181.223 283.295 181.343 283.396 181.423C283.421 181.443 283.44 181.458 283.454 181.47C283.461 181.476 283.467 181.48 283.471 181.484C283.475 181.487 283.477 181.489 283.477 181.489C283.477 181.489 283.476 181.488 283.475 181.487C283.473 181.486 283.471 181.484 283.468 181.481C283.463 181.476 283.451 181.466 283.435 181.451C283.422 181.438 283.393 181.41 283.358 181.373C283.333 181.346 283.25 181.258 283.161 181.129L286.753 178.644C286.606 178.43 286.443 178.283 286.439 178.279C286.391 178.234 286.346 178.195 286.316 178.169C286.253 178.115 286.183 178.058 286.116 178.005C285.978 177.896 285.795 177.754 285.578 177.589C285.142 177.256 284.532 176.8 283.805 176.259C282.349 175.175 280.394 173.732 278.348 172.222C274.232 169.183 269.792 165.9 268.181 164.628L265.473 168.055ZM283.161 181.129C283.121 181.071 283.047 180.959 282.977 180.807C282.921 180.686 282.777 180.354 282.775 179.9C282.773 179.342 283 178.617 283.673 178.127C284.214 177.733 284.76 177.708 284.957 177.708V182.077C285.156 182.077 285.703 182.052 286.245 181.658C286.918 181.167 287.146 180.441 287.144 179.882C287.142 179.427 286.998 179.094 286.941 178.971C286.87 178.818 286.795 178.704 286.753 178.643L283.161 181.129Z" fill="#70C16F"/>
<circle cx="135.137" cy="227.925" r="35.9681" fill="white"/>
<path d="M161.45 243.593C161.827 243.043 161.262 242.353 160.625 242.548C146.132 246.975 130.794 238.815 126.366 224.322C123.839 216.048 125.414 207.5 129.926 200.863C130.603 199.868 129.773 198.483 128.623 198.835C113.094 203.578 104.351 220.012 109.095 235.541C113.838 251.07 130.272 259.813 145.801 255.069C152.426 253.045 157.816 248.894 161.45 243.593Z" fill="#70C16F"/>
<path d="M135.177 213.539H150.884M139.231 220.936H154.937M143.284 228.334H158.991" stroke="#70C16F" stroke-width="3.24267" stroke-linecap="round" stroke-linejoin="round"/>
<mask id="mask0_399_590" style="mask-type:alpha" maskUnits="userSpaceOnUse" x="0" y="0" width="736" height="902">
<path d="M94.0655 556.331C78.9979 469.831 25.5653 422.832 4.56545 290.832C-66.5017 -155.879 787.289 -9.26361 732.499 218.001C706.127 327.391 672.716 414.001 688.358 523.501C704 633.001 728.793 698.67 688.358 811.5C647.923 924.33 536.566 904.831 473.066 868.831C409.566 832.831 281.066 889.832 206.566 900.332C132.066 910.832 21.5656 867.331 41.0654 773.331C60.5652 679.331 109.133 642.831 94.0655 556.331Z" fill="#B5EBA2"/>
</mask>
<g mask="url(#mask0_399_590)">
<path fill-rule="evenodd" clip-rule="evenodd" d="M252.001 405.832C234.328 405.832 220.001 420.158 220.001 437.832V1027.98C220.001 1045.65 234.328 1059.98 252.001 1059.98H500.001C517.674 1059.98 532.001 1045.65 532.001 1027.98V437.832C532.001 420.158 517.674 405.832 500.001 405.832H252.001ZM259.537 413.368C241.864 413.368 227.537 427.695 227.537 445.368V1020.44C227.537 1038.11 241.864 1052.44 259.537 1052.44H492.465C510.138 1052.44 524.465 1038.11 524.465 1020.44V445.368C524.465 427.695 510.138 413.368 492.465 413.368H454.922C447.917 413.368 442.239 419.046 442.239 426.051C442.239 433.055 436.56 438.734 429.556 438.734H376.001H322.446C315.442 438.734 309.763 433.055 309.763 426.051C309.763 419.046 304.085 413.368 297.08 413.368H259.537Z" fill="#2C2C2C"/>
<path d="M227.537 445.368C227.537 427.695 241.864 413.368 259.537 413.368H297.08C304.085 413.368 309.763 419.046 309.763 426.051C309.763 433.055 315.442 438.734 322.446 438.734H376.001H429.556C436.56 438.734 442.239 433.055 442.239 426.051C442.239 419.046 447.917 413.368 454.922 413.368H492.465C510.138 413.368 524.465 427.695 524.465 445.368V1020.44C524.465 1038.11 510.138 1052.44 492.465 1052.44H259.537C241.864 1052.44 227.537 1038.11 227.537 1020.44V445.368Z" fill="white"/>
<mask id="mask1_399_590" style="mask-type:alpha" maskUnits="userSpaceOnUse" x="227" y="413" width="298" height="640">
<path d="M227.537 445.368C227.537 427.695 241.864 413.368 259.537 413.368H297.08C304.085 413.368 309.763 419.046 309.763 426.051C309.763 433.055 315.442 438.734 322.446 438.734H376.001H429.556C436.56 438.734 442.239 433.055 442.239 426.051C442.239 419.046 447.917 413.368 454.922 413.368H492.465C510.138 413.368 524.465 427.695 524.465 445.368V1020.44C524.465 1038.11 510.138 1052.44 492.465 1052.44H259.537C241.864 1052.44 227.537 1038.11 227.537 1020.44V445.368Z" fill="white"/>
</mask>
<g mask="url(#mask1_399_590)">
<circle cx="302.501" cy="524.477" r="52.5" fill="#DCDCDC"/>
<rect x="383.001" y="493.977" width="125" height="12" rx="6" fill="#EFEFEF"/>
<rect x="383.001" y="517.977" width="125" height="12" rx="6" fill="#EFEFEF"/>
<rect x="383.001" y="542.977" width="125" height="12" rx="6" fill="#EFEFEF"/>
<rect x="397.001" y="743.832" width="111" height="82" rx="10" fill="#EDFBE8"/>
<rect x="251.001" y="743.832" width="111" height="82" rx="10" fill="#EDFBE8"/>
<path d="M307.94 771.512C312.081 764.894 323.724 753.621 335.792 761.562C347.86 769.504 345.553 783.686 335.792 792.26C326.032 800.833 307.94 814.832 307.94 814.832C307.94 814.832 289.97 800.833 280.21 792.26C270.449 783.686 268.142 769.504 280.21 761.562C292.278 753.621 303.799 764.876 307.94 771.494" stroke="#70C16F" stroke-width="10" stroke-linecap="round"/>
<path d="M391.001 804.832C408.364 795.971 422.641 775.938 436.146 779.02C449.65 782.102 455.438 809.84 471.644 800.594C487.85 791.348 505.47 766.435 511.001 757.832" stroke="#70C16F" stroke-width="10" stroke-linecap="round"/>
<rect x="250.001" y="595.832" width="258" height="129" rx="10" fill="#EDFBE8"/>
<rect x="266.001" y="638.242" width="13.4776" height="68.1605" rx="6.73881" fill="#70C16F"/>
<rect x="291.479" y="654.651" width="13.4776" height="51.7515" rx="6.73881" fill="#70C16F"/>
<rect x="316.956" y="625.62" width="13.4776" height="80.7828" rx="6.73881" fill="#70C16F"/>
<rect x="342.434" y="614.26" width="13.4776" height="92.1429" rx="6.73881" fill="#70C16F"/>
<rect x="367.912" y="629.407" width="13.4776" height="76.9961" rx="6.73881" fill="#70C16F"/>
<rect x="393.389" y="638.242" width="13.4776" height="68.1605" rx="6.73881" fill="#B5EBA2"/>
<rect x="418.867" y="625.62" width="13.4776" height="80.7828" rx="6.73881" fill="#B5EBA2"/>
</g>
</g>
</svg>
