<svg width="390" height="844" viewBox="0 0 390 844" fill="none" xmlns="http://www.w3.org/2000/svg">
<g clip-path="url(#clip0_1354_1090)">
<rect width="390" height="844" rx="42" fill="white"/>
<path d="M130.841 348.543H126.857C126.743 347.89 126.534 347.311 126.228 346.807C125.923 346.295 125.543 345.862 125.088 345.507C124.634 345.152 124.115 344.886 123.533 344.708C122.958 344.523 122.336 344.431 121.669 344.431C120.482 344.431 119.431 344.729 118.515 345.326C117.599 345.915 116.882 346.782 116.363 347.925C115.845 349.062 115.585 350.45 115.585 352.091C115.585 353.76 115.845 355.166 116.363 356.31C116.889 357.446 117.606 358.305 118.515 358.888C119.431 359.463 120.479 359.751 121.658 359.751C122.311 359.751 122.922 359.665 123.49 359.495C124.066 359.317 124.58 359.058 125.035 358.717C125.497 358.376 125.884 357.957 126.196 357.46C126.516 356.963 126.736 356.395 126.857 355.756L130.841 355.777C130.692 356.814 130.369 357.787 129.872 358.696C129.382 359.605 128.739 360.408 127.943 361.104C127.148 361.793 126.218 362.332 125.152 362.723C124.087 363.107 122.904 363.298 121.605 363.298C119.687 363.298 117.975 362.854 116.47 361.967C114.964 361.079 113.778 359.797 112.911 358.121C112.045 356.445 111.612 354.435 111.612 352.091C111.612 349.74 112.048 347.73 112.922 346.061C113.796 344.385 114.985 343.103 116.491 342.215C117.997 341.327 119.701 340.884 121.605 340.884C122.819 340.884 123.948 341.054 124.992 341.395C126.036 341.736 126.967 342.237 127.784 342.897C128.6 343.55 129.271 344.353 129.797 345.305C130.33 346.249 130.678 347.329 130.841 348.543ZM141.428 363.32C139.83 363.32 138.445 362.968 137.273 362.265C136.101 361.562 135.192 360.578 134.546 359.314C133.907 358.05 133.587 356.572 133.587 354.882C133.587 353.192 133.907 351.711 134.546 350.44C135.192 349.168 136.101 348.181 137.273 347.478C138.445 346.775 139.83 346.423 141.428 346.423C143.026 346.423 144.411 346.775 145.583 347.478C146.755 348.181 147.66 349.168 148.299 350.44C148.946 351.711 149.269 353.192 149.269 354.882C149.269 356.572 148.946 358.05 148.299 359.314C147.66 360.578 146.755 361.562 145.583 362.265C144.411 362.968 143.026 363.32 141.428 363.32ZM141.449 360.23C142.316 360.23 143.04 359.992 143.623 359.516C144.205 359.033 144.638 358.387 144.922 357.577C145.213 356.768 145.359 355.866 145.359 354.871C145.359 353.87 145.213 352.964 144.922 352.155C144.638 351.338 144.205 350.688 143.623 350.205C143.04 349.722 142.316 349.481 141.449 349.481C140.561 349.481 139.823 349.722 139.233 350.205C138.651 350.688 138.214 351.338 137.923 352.155C137.639 352.964 137.497 353.87 137.497 354.871C137.497 355.866 137.639 356.768 137.923 357.577C138.214 358.387 138.651 359.033 139.233 359.516C139.823 359.992 140.561 360.23 141.449 360.23ZM159.68 363.32C158.082 363.32 156.697 362.968 155.525 362.265C154.353 361.562 153.444 360.578 152.798 359.314C152.159 358.05 151.839 356.572 151.839 354.882C151.839 353.192 152.159 351.711 152.798 350.44C153.444 349.168 154.353 348.181 155.525 347.478C156.697 346.775 158.082 346.423 159.68 346.423C161.278 346.423 162.663 346.775 163.835 347.478C165.007 348.181 165.912 349.168 166.551 350.44C167.198 351.711 167.521 353.192 167.521 354.882C167.521 356.572 167.198 358.05 166.551 359.314C165.912 360.578 165.007 361.562 163.835 362.265C162.663 362.968 161.278 363.32 159.68 363.32ZM159.701 360.23C160.568 360.23 161.292 359.992 161.874 359.516C162.457 359.033 162.89 358.387 163.174 357.577C163.465 356.768 163.611 355.866 163.611 354.871C163.611 353.87 163.465 352.964 163.174 352.155C162.89 351.338 162.457 350.688 161.874 350.205C161.292 349.722 160.568 349.481 159.701 349.481C158.813 349.481 158.075 349.722 157.485 350.205C156.903 350.688 156.466 351.338 156.175 352.155C155.891 352.964 155.749 353.87 155.749 354.871C155.749 355.866 155.891 356.768 156.175 357.577C156.466 358.387 156.903 359.033 157.485 359.516C158.075 359.992 158.813 360.23 159.701 360.23ZM174.651 341.182V363H170.794V341.182H174.651ZM186.228 363V341.182H190.085V349.342H190.244C190.443 348.945 190.724 348.522 191.086 348.075C191.448 347.62 191.938 347.233 192.556 346.913C193.174 346.587 193.963 346.423 194.921 346.423C196.186 346.423 197.325 346.746 198.341 347.393C199.364 348.032 200.173 348.98 200.77 350.237C201.374 351.487 201.676 353.021 201.676 354.839C201.676 356.636 201.381 358.163 200.791 359.42C200.202 360.678 199.399 361.636 198.384 362.297C197.368 362.957 196.218 363.288 194.932 363.288C193.994 363.288 193.217 363.131 192.599 362.819C191.981 362.506 191.484 362.13 191.107 361.69C190.738 361.242 190.45 360.82 190.244 360.422H190.021V363H186.228ZM190.01 354.818C190.01 355.876 190.159 356.803 190.458 357.599C190.763 358.394 191.2 359.016 191.768 359.463C192.343 359.903 193.039 360.124 193.856 360.124C194.708 360.124 195.422 359.896 195.997 359.442C196.573 358.98 197.006 358.352 197.297 357.556C197.595 356.754 197.744 355.841 197.744 354.818C197.744 353.803 197.599 352.901 197.308 352.112C197.017 351.324 196.583 350.706 196.008 350.259C195.433 349.811 194.715 349.587 193.856 349.587C193.032 349.587 192.333 349.804 191.757 350.237C191.182 350.67 190.745 351.278 190.447 352.059C190.156 352.84 190.01 353.76 190.01 354.818ZM212.199 363.32C210.558 363.32 209.141 362.979 207.948 362.297C206.762 361.608 205.849 360.635 205.21 359.378C204.571 358.114 204.251 356.626 204.251 354.914C204.251 353.231 204.571 351.754 205.21 350.482C205.856 349.204 206.758 348.21 207.916 347.499C209.074 346.782 210.434 346.423 211.996 346.423C213.005 346.423 213.956 346.587 214.851 346.913C215.753 347.233 216.549 347.73 217.238 348.405C217.934 349.08 218.48 349.939 218.878 350.983C219.276 352.02 219.475 353.256 219.475 354.69V355.873H206.062V353.273H215.778C215.771 352.535 215.611 351.878 215.299 351.303C214.986 350.72 214.549 350.262 213.988 349.928C213.434 349.594 212.788 349.428 212.049 349.428C211.261 349.428 210.569 349.619 209.972 350.003C209.375 350.379 208.91 350.876 208.576 351.494C208.25 352.105 208.083 352.776 208.076 353.508V355.777C208.076 356.729 208.25 357.545 208.598 358.227C208.946 358.902 209.432 359.42 210.057 359.783C210.682 360.138 211.414 360.315 212.252 360.315C212.813 360.315 213.321 360.237 213.775 360.081C214.23 359.918 214.624 359.68 214.958 359.367C215.292 359.055 215.544 358.668 215.714 358.206L219.315 358.611C219.088 359.562 218.654 360.393 218.015 361.104C217.383 361.807 216.574 362.354 215.586 362.744C214.599 363.128 213.47 363.32 212.199 363.32ZM227.446 363.33C226.409 363.33 225.475 363.146 224.644 362.776C223.82 362.4 223.167 361.846 222.684 361.114C222.208 360.383 221.97 359.481 221.97 358.408C221.97 357.485 222.141 356.722 222.482 356.118C222.823 355.514 223.288 355.031 223.877 354.669C224.467 354.307 225.131 354.033 225.869 353.849C226.615 353.657 227.386 353.518 228.181 353.433C229.14 353.334 229.918 353.245 230.514 353.167C231.111 353.082 231.544 352.954 231.814 352.783C232.091 352.606 232.23 352.332 232.23 351.963V351.899C232.23 351.097 231.992 350.475 231.516 350.035C231.04 349.594 230.355 349.374 229.46 349.374C228.515 349.374 227.766 349.58 227.212 349.992C226.665 350.404 226.296 350.891 226.104 351.452L222.503 350.94C222.787 349.946 223.256 349.115 223.909 348.447C224.563 347.773 225.362 347.268 226.306 346.935C227.251 346.594 228.295 346.423 229.438 346.423C230.227 346.423 231.012 346.516 231.793 346.7C232.574 346.885 233.288 347.19 233.934 347.616C234.58 348.036 235.099 348.607 235.49 349.332C235.887 350.056 236.086 350.962 236.086 352.048V363H232.379V360.752H232.251C232.017 361.207 231.686 361.633 231.26 362.031C230.841 362.421 230.312 362.737 229.673 362.979C229.041 363.213 228.298 363.33 227.446 363.33ZM228.448 360.496C229.222 360.496 229.893 360.344 230.461 360.038C231.029 359.726 231.466 359.314 231.771 358.803C232.084 358.291 232.24 357.734 232.24 357.13V355.202C232.119 355.301 231.914 355.393 231.622 355.479C231.338 355.564 231.019 355.638 230.664 355.702C230.308 355.766 229.957 355.823 229.609 355.873C229.261 355.923 228.959 355.965 228.703 356.001C228.128 356.079 227.613 356.207 227.159 356.384C226.704 356.562 226.345 356.81 226.083 357.13C225.82 357.442 225.688 357.847 225.688 358.344C225.688 359.055 225.948 359.591 226.466 359.953C226.985 360.315 227.645 360.496 228.448 360.496ZM243.82 353.412V363H239.964V346.636H243.65V349.417H243.842C244.218 348.501 244.818 347.773 245.642 347.233C246.473 346.693 247.499 346.423 248.721 346.423C249.85 346.423 250.834 346.665 251.672 347.148C252.517 347.631 253.171 348.33 253.632 349.246C254.101 350.163 254.332 351.274 254.325 352.581V363H250.468V353.178C250.468 352.084 250.184 351.228 249.616 350.61C249.055 349.992 248.277 349.683 247.283 349.683C246.608 349.683 246.008 349.832 245.482 350.131C244.964 350.422 244.556 350.844 244.257 351.398C243.966 351.952 243.82 352.624 243.82 353.412ZM271.178 350.962L267.663 351.345C267.563 350.99 267.389 350.656 267.141 350.344C266.899 350.031 266.573 349.779 266.161 349.587C265.749 349.396 265.244 349.3 264.648 349.3C263.845 349.3 263.171 349.474 262.624 349.822C262.084 350.17 261.818 350.621 261.825 351.175C261.818 351.651 261.992 352.038 262.347 352.336C262.709 352.634 263.306 352.879 264.137 353.071L266.928 353.668C268.476 354.001 269.627 354.531 270.379 355.255C271.139 355.979 271.523 356.928 271.53 358.099C271.523 359.129 271.221 360.038 270.624 360.827C270.035 361.608 269.215 362.219 268.164 362.659C267.112 363.099 265.905 363.32 264.541 363.32C262.539 363.32 260.926 362.901 259.705 362.062C258.483 361.217 257.755 360.042 257.521 358.536L261.281 358.174C261.452 358.913 261.814 359.47 262.368 359.847C262.922 360.223 263.643 360.411 264.531 360.411C265.447 360.411 266.182 360.223 266.736 359.847C267.297 359.47 267.578 359.005 267.578 358.451C267.578 357.982 267.396 357.595 267.034 357.29C266.679 356.984 266.125 356.75 265.372 356.587L262.581 356.001C261.012 355.674 259.85 355.124 259.097 354.349C258.345 353.568 257.972 352.581 257.979 351.388C257.972 350.379 258.245 349.506 258.799 348.767C259.36 348.021 260.138 347.446 261.132 347.041C262.134 346.629 263.288 346.423 264.595 346.423C266.512 346.423 268.021 346.832 269.122 347.648C270.23 348.465 270.916 349.57 271.178 350.962ZM279.43 341.182L279.078 356.587H275.648L275.307 341.182H279.43ZM277.363 363.234C276.716 363.234 276.162 363.007 275.701 362.553C275.246 362.098 275.019 361.544 275.019 360.891C275.019 360.251 275.246 359.705 275.701 359.25C276.162 358.795 276.716 358.568 277.363 358.568C277.995 358.568 278.542 358.795 279.003 359.25C279.472 359.705 279.706 360.251 279.706 360.891C279.706 361.324 279.596 361.718 279.376 362.073C279.163 362.428 278.879 362.712 278.524 362.925C278.176 363.131 277.789 363.234 277.363 363.234Z" fill="black"/>
<path d="M50.6449 391.545H53.0653L57.9062 399.693H58.1108L62.9517 391.545H65.3722L59.0653 401.807V409H56.9517V401.807L50.6449 391.545ZM71.2997 409.273C70.1179 409.273 69.081 408.991 68.1889 408.429C67.3026 407.866 66.6094 407.08 66.1094 406.068C65.6151 405.057 65.3679 403.875 65.3679 402.523C65.3679 401.159 65.6151 399.969 66.1094 398.952C66.6094 397.935 67.3026 397.145 68.1889 396.582C69.081 396.02 70.1179 395.739 71.2997 395.739C72.4815 395.739 73.5156 396.02 74.402 396.582C75.294 397.145 75.9872 397.935 76.4815 398.952C76.9815 399.969 77.2315 401.159 77.2315 402.523C77.2315 403.875 76.9815 405.057 76.4815 406.068C75.9872 407.08 75.294 407.866 74.402 408.429C73.5156 408.991 72.4815 409.273 71.2997 409.273ZM71.2997 407.466C72.1974 407.466 72.9361 407.236 73.5156 406.776C74.0952 406.315 74.5241 405.71 74.8026 404.96C75.081 404.21 75.2202 403.398 75.2202 402.523C75.2202 401.648 75.081 400.832 74.8026 400.077C74.5241 399.321 74.0952 398.71 73.5156 398.244C72.9361 397.778 72.1974 397.545 71.2997 397.545C70.402 397.545 69.6634 397.778 69.0838 398.244C68.5043 398.71 68.0753 399.321 67.7969 400.077C67.5185 400.832 67.3793 401.648 67.3793 402.523C67.3793 403.398 67.5185 404.21 67.7969 404.96C68.0753 405.71 68.5043 406.315 69.0838 406.776C69.6634 407.236 70.402 407.466 71.2997 407.466ZM88.5518 403.648V395.909H90.5632V409H88.5518V406.784H88.4155C88.1087 407.449 87.6314 408.014 86.9837 408.48C86.3359 408.94 85.5178 409.17 84.5291 409.17C83.7109 409.17 82.9837 408.991 82.3473 408.634C81.7109 408.27 81.2109 407.724 80.8473 406.997C80.4837 406.264 80.3018 405.341 80.3018 404.227V395.909H82.3132V404.091C82.3132 405.045 82.5803 405.807 83.1143 406.375C83.6541 406.943 84.3416 407.227 85.1768 407.227C85.6768 407.227 86.1854 407.099 86.7024 406.844C87.2251 406.588 87.6626 406.196 88.0149 405.668C88.3729 405.139 88.5518 404.466 88.5518 403.648ZM94.2472 409V395.909H96.1903V397.886H96.3267C96.5653 397.239 96.9972 396.713 97.6222 396.31C98.2472 395.906 98.9517 395.705 99.7358 395.705C99.8835 395.705 100.068 395.707 100.29 395.713C100.511 395.719 100.679 395.727 100.793 395.739V397.784C100.724 397.767 100.568 397.741 100.324 397.707C100.085 397.668 99.8324 397.648 99.5653 397.648C98.929 397.648 98.3608 397.781 97.8608 398.048C97.3665 398.31 96.9744 398.673 96.6847 399.139C96.4006 399.599 96.2585 400.125 96.2585 400.716V409H94.2472ZM114.87 409.273C113.779 409.273 112.816 408.997 111.981 408.446C111.146 407.889 110.492 407.105 110.021 406.094C109.549 405.077 109.313 403.875 109.313 402.489C109.313 401.114 109.549 399.92 110.021 398.909C110.492 397.898 111.148 397.116 111.989 396.565C112.83 396.014 113.802 395.739 114.904 395.739C115.756 395.739 116.43 395.881 116.924 396.165C117.424 396.443 117.805 396.761 118.066 397.119C118.333 397.472 118.54 397.761 118.688 397.989H118.859V391.545H120.87V409H118.927V406.989H118.688C118.54 407.227 118.33 407.528 118.058 407.892C117.785 408.25 117.396 408.571 116.89 408.855C116.384 409.134 115.711 409.273 114.87 409.273ZM115.143 407.466C115.95 407.466 116.631 407.256 117.188 406.835C117.745 406.409 118.168 405.821 118.458 405.071C118.748 404.315 118.893 403.443 118.893 402.455C118.893 401.477 118.751 400.622 118.467 399.889C118.183 399.151 117.762 398.577 117.205 398.168C116.648 397.753 115.961 397.545 115.143 397.545C114.29 397.545 113.58 397.764 113.012 398.202C112.45 398.634 112.026 399.222 111.742 399.966C111.464 400.705 111.325 401.534 111.325 402.455C111.325 403.386 111.467 404.233 111.751 404.994C112.04 405.75 112.467 406.352 113.029 406.801C113.597 407.244 114.302 407.466 115.143 407.466ZM130.322 409.273C129.06 409.273 127.972 408.994 127.058 408.438C126.148 407.875 125.447 407.091 124.952 406.085C124.464 405.074 124.219 403.898 124.219 402.557C124.219 401.216 124.464 400.034 124.952 399.011C125.447 397.983 126.134 397.182 127.015 396.608C127.901 396.028 128.935 395.739 130.117 395.739C130.799 395.739 131.472 395.852 132.137 396.08C132.802 396.307 133.407 396.676 133.952 397.188C134.498 397.693 134.933 398.364 135.256 399.199C135.58 400.034 135.742 401.062 135.742 402.284V403.136H125.651V401.398H133.697C133.697 400.659 133.549 400 133.254 399.42C132.964 398.841 132.549 398.384 132.009 398.048C131.475 397.713 130.844 397.545 130.117 397.545C129.316 397.545 128.623 397.744 128.038 398.142C127.458 398.534 127.012 399.045 126.7 399.676C126.387 400.307 126.231 400.983 126.231 401.705V402.864C126.231 403.852 126.401 404.69 126.742 405.378C127.089 406.06 127.569 406.58 128.183 406.938C128.796 407.29 129.509 407.466 130.322 407.466C130.85 407.466 131.327 407.392 131.754 407.244C132.185 407.091 132.558 406.864 132.87 406.562C133.183 406.256 133.424 405.875 133.594 405.42L135.538 405.966C135.333 406.625 134.989 407.205 134.506 407.705C134.023 408.199 133.427 408.585 132.717 408.864C132.006 409.136 131.208 409.273 130.322 409.273ZM149.108 395.909L144.267 409H142.222L137.381 395.909H139.562L143.176 406.341H143.312L146.926 395.909H149.108ZM151.763 409V395.909H153.774V409H151.763ZM152.786 393.727C152.393 393.727 152.055 393.594 151.771 393.327C151.493 393.06 151.354 392.739 151.354 392.364C151.354 391.989 151.493 391.668 151.771 391.401C152.055 391.134 152.393 391 152.786 391C153.178 391 153.513 391.134 153.791 391.401C154.075 391.668 154.217 391.989 154.217 392.364C154.217 392.739 154.075 393.06 153.791 393.327C153.513 393.594 153.178 393.727 152.786 393.727ZM162.776 409.273C161.549 409.273 160.492 408.983 159.606 408.403C158.719 407.824 158.038 407.026 157.56 406.009C157.083 404.991 156.844 403.83 156.844 402.523C156.844 401.193 157.089 400.02 157.577 399.003C158.072 397.98 158.759 397.182 159.64 396.608C160.526 396.028 161.56 395.739 162.742 395.739C163.663 395.739 164.492 395.909 165.231 396.25C165.969 396.591 166.575 397.068 167.046 397.682C167.518 398.295 167.81 399.011 167.924 399.83H165.913C165.759 399.233 165.418 398.705 164.89 398.244C164.367 397.778 163.663 397.545 162.776 397.545C161.992 397.545 161.305 397.75 160.714 398.159C160.129 398.562 159.671 399.134 159.342 399.872C159.018 400.605 158.856 401.466 158.856 402.455C158.856 403.466 159.015 404.347 159.333 405.097C159.657 405.847 160.112 406.429 160.697 406.844C161.288 407.259 161.981 407.466 162.776 407.466C163.299 407.466 163.773 407.375 164.2 407.193C164.626 407.011 164.987 406.75 165.282 406.409C165.577 406.068 165.788 405.659 165.913 405.182H167.924C167.81 405.955 167.529 406.651 167.08 407.27C166.637 407.884 166.049 408.372 165.316 408.736C164.589 409.094 163.742 409.273 162.776 409.273ZM176.353 409.273C175.092 409.273 174.004 408.994 173.089 408.438C172.18 407.875 171.478 407.091 170.984 406.085C170.495 405.074 170.251 403.898 170.251 402.557C170.251 401.216 170.495 400.034 170.984 399.011C171.478 397.983 172.165 397.182 173.046 396.608C173.933 396.028 174.967 395.739 176.148 395.739C176.83 395.739 177.504 395.852 178.168 396.08C178.833 396.307 179.438 396.676 179.984 397.188C180.529 397.693 180.964 398.364 181.288 399.199C181.612 400.034 181.773 401.062 181.773 402.284V403.136H171.683V401.398H179.728C179.728 400.659 179.58 400 179.285 399.42C178.995 398.841 178.58 398.384 178.04 398.048C177.506 397.713 176.876 397.545 176.148 397.545C175.347 397.545 174.654 397.744 174.069 398.142C173.489 398.534 173.043 399.045 172.731 399.676C172.418 400.307 172.262 400.983 172.262 401.705V402.864C172.262 403.852 172.433 404.69 172.773 405.378C173.12 406.06 173.6 406.58 174.214 406.938C174.827 407.29 175.54 407.466 176.353 407.466C176.881 407.466 177.359 407.392 177.785 407.244C178.217 407.091 178.589 406.864 178.901 406.562C179.214 406.256 179.455 405.875 179.626 405.42L181.569 405.966C181.364 406.625 181.021 407.205 180.538 407.705C180.055 408.199 179.458 408.585 178.748 408.864C178.038 409.136 177.239 409.273 176.353 409.273ZM191.583 409V395.909H193.594V409H191.583ZM192.606 393.727C192.214 393.727 191.876 393.594 191.592 393.327C191.313 393.06 191.174 392.739 191.174 392.364C191.174 391.989 191.313 391.668 191.592 391.401C191.876 391.134 192.214 391 192.606 391C192.998 391 193.333 391.134 193.612 391.401C193.896 391.668 194.038 391.989 194.038 392.364C194.038 392.739 193.896 393.06 193.612 393.327C193.333 393.594 192.998 393.727 192.606 393.727ZM206.551 398.841L204.744 399.352C204.631 399.051 204.463 398.759 204.241 398.474C204.026 398.185 203.73 397.946 203.355 397.759C202.98 397.571 202.5 397.477 201.915 397.477C201.114 397.477 200.446 397.662 199.912 398.031C199.384 398.395 199.119 398.858 199.119 399.42C199.119 399.92 199.301 400.315 199.665 400.605C200.028 400.895 200.597 401.136 201.369 401.33L203.312 401.807C204.483 402.091 205.355 402.526 205.929 403.111C206.503 403.69 206.79 404.437 206.79 405.352C206.79 406.102 206.574 406.773 206.142 407.364C205.716 407.955 205.119 408.42 204.352 408.761C203.585 409.102 202.693 409.273 201.676 409.273C200.341 409.273 199.236 408.983 198.361 408.403C197.486 407.824 196.932 406.977 196.699 405.864L198.608 405.386C198.79 406.091 199.134 406.619 199.639 406.972C200.151 407.324 200.818 407.5 201.642 407.5C202.58 407.5 203.324 407.301 203.875 406.903C204.432 406.5 204.71 406.017 204.71 405.455C204.71 405 204.551 404.619 204.233 404.312C203.915 404 203.426 403.767 202.767 403.614L200.585 403.102C199.386 402.818 198.506 402.378 197.943 401.781C197.386 401.179 197.108 400.426 197.108 399.523C197.108 398.784 197.315 398.131 197.73 397.562C198.151 396.994 198.722 396.548 199.443 396.224C200.17 395.901 200.994 395.739 201.915 395.739C203.21 395.739 204.227 396.023 204.966 396.591C205.71 397.159 206.239 397.909 206.551 398.841ZM221.886 409.273C220.658 409.273 219.602 408.983 218.715 408.403C217.829 407.824 217.147 407.026 216.67 406.009C216.192 404.991 215.954 403.83 215.954 402.523C215.954 401.193 216.198 400.02 216.687 399.003C217.181 397.98 217.869 397.182 218.749 396.608C219.636 396.028 220.67 395.739 221.852 395.739C222.772 395.739 223.602 395.909 224.34 396.25C225.079 396.591 225.684 397.068 226.156 397.682C226.627 398.295 226.92 399.011 227.033 399.83H225.022C224.869 399.233 224.528 398.705 223.999 398.244C223.477 397.778 222.772 397.545 221.886 397.545C221.102 397.545 220.414 397.75 219.823 398.159C219.238 398.562 218.781 399.134 218.451 399.872C218.127 400.605 217.965 401.466 217.965 402.455C217.965 403.466 218.124 404.347 218.442 405.097C218.766 405.847 219.221 406.429 219.806 406.844C220.397 407.259 221.09 407.466 221.886 407.466C222.408 407.466 222.883 407.375 223.309 407.193C223.735 407.011 224.096 406.75 224.391 406.409C224.687 406.068 224.897 405.659 225.022 405.182H227.033C226.92 405.955 226.638 406.651 226.19 407.27C225.746 407.884 225.158 408.372 224.425 408.736C223.698 409.094 222.852 409.273 221.886 409.273ZM235.292 409.273C234.11 409.273 233.073 408.991 232.181 408.429C231.295 407.866 230.602 407.08 230.102 406.068C229.607 405.057 229.36 403.875 229.36 402.523C229.36 401.159 229.607 399.969 230.102 398.952C230.602 397.935 231.295 397.145 232.181 396.582C233.073 396.02 234.11 395.739 235.292 395.739C236.474 395.739 237.508 396.02 238.394 396.582C239.286 397.145 239.979 397.935 240.474 398.952C240.974 399.969 241.224 401.159 241.224 402.523C241.224 403.875 240.974 405.057 240.474 406.068C239.979 407.08 239.286 407.866 238.394 408.429C237.508 408.991 236.474 409.273 235.292 409.273ZM235.292 407.466C236.19 407.466 236.928 407.236 237.508 406.776C238.087 406.315 238.516 405.71 238.795 404.96C239.073 404.21 239.212 403.398 239.212 402.523C239.212 401.648 239.073 400.832 238.795 400.077C238.516 399.321 238.087 398.71 237.508 398.244C236.928 397.778 236.19 397.545 235.292 397.545C234.394 397.545 233.656 397.778 233.076 398.244C232.496 398.71 232.067 399.321 231.789 400.077C231.511 400.832 231.371 401.648 231.371 402.523C231.371 403.398 231.511 404.21 231.789 404.96C232.067 405.71 232.496 406.315 233.076 406.776C233.656 407.236 234.394 407.466 235.292 407.466ZM246.305 401.125V409H244.294V395.909H246.237V397.955H246.408C246.714 397.29 247.18 396.756 247.805 396.352C248.43 395.943 249.237 395.739 250.226 395.739C251.112 395.739 251.888 395.92 252.553 396.284C253.217 396.642 253.734 397.188 254.104 397.92C254.473 398.648 254.658 399.568 254.658 400.682V409H252.646V400.818C252.646 399.79 252.379 398.989 251.845 398.415C251.311 397.835 250.578 397.545 249.646 397.545C249.004 397.545 248.43 397.685 247.925 397.963C247.425 398.241 247.03 398.648 246.74 399.182C246.45 399.716 246.305 400.364 246.305 401.125ZM260.344 401.125V409H258.333V395.909H260.276V397.955H260.447C260.754 397.29 261.219 396.756 261.844 396.352C262.469 395.943 263.276 395.739 264.265 395.739C265.151 395.739 265.927 395.92 266.592 396.284C267.256 396.642 267.773 397.188 268.143 397.92C268.512 398.648 268.697 399.568 268.697 400.682V409H266.685V400.818C266.685 399.79 266.418 398.989 265.884 398.415C265.35 397.835 264.617 397.545 263.685 397.545C263.043 397.545 262.469 397.685 261.964 397.963C261.464 398.241 261.069 398.648 260.779 399.182C260.489 399.716 260.344 400.364 260.344 401.125ZM277.861 409.273C276.599 409.273 275.511 408.994 274.597 408.438C273.688 407.875 272.986 407.091 272.491 406.085C272.003 405.074 271.759 403.898 271.759 402.557C271.759 401.216 272.003 400.034 272.491 399.011C272.986 397.983 273.673 397.182 274.554 396.608C275.44 396.028 276.474 395.739 277.656 395.739C278.338 395.739 279.011 395.852 279.676 396.08C280.341 396.307 280.946 396.676 281.491 397.188C282.037 397.693 282.472 398.364 282.795 399.199C283.119 400.034 283.281 401.062 283.281 402.284V403.136H273.19V401.398H281.236C281.236 400.659 281.088 400 280.793 399.42C280.503 398.841 280.088 398.384 279.548 398.048C279.014 397.713 278.384 397.545 277.656 397.545C276.855 397.545 276.162 397.744 275.577 398.142C274.997 398.534 274.551 399.045 274.239 399.676C273.926 400.307 273.77 400.983 273.77 401.705V402.864C273.77 403.852 273.94 404.69 274.281 405.378C274.628 406.06 275.108 406.58 275.722 406.938C276.335 407.29 277.048 407.466 277.861 407.466C278.389 407.466 278.866 407.392 279.293 407.244C279.724 407.091 280.097 406.864 280.409 406.562C280.722 406.256 280.963 405.875 281.134 405.42L283.077 405.966C282.872 406.625 282.528 407.205 282.045 407.705C281.563 408.199 280.966 408.585 280.256 408.864C279.545 409.136 278.747 409.273 277.861 409.273ZM291.659 409.273C290.432 409.273 289.375 408.983 288.489 408.403C287.602 407.824 286.92 407.026 286.443 406.009C285.966 404.991 285.727 403.83 285.727 402.523C285.727 401.193 285.972 400.02 286.46 399.003C286.955 397.98 287.642 397.182 288.523 396.608C289.409 396.028 290.443 395.739 291.625 395.739C292.545 395.739 293.375 395.909 294.114 396.25C294.852 396.591 295.457 397.068 295.929 397.682C296.401 398.295 296.693 399.011 296.807 399.83H294.795C294.642 399.233 294.301 398.705 293.773 398.244C293.25 397.778 292.545 397.545 291.659 397.545C290.875 397.545 290.188 397.75 289.597 398.159C289.011 398.562 288.554 399.134 288.224 399.872C287.901 400.605 287.739 401.466 287.739 402.455C287.739 403.466 287.898 404.347 288.216 405.097C288.54 405.847 288.994 406.429 289.58 406.844C290.17 407.259 290.864 407.466 291.659 407.466C292.182 407.466 292.656 407.375 293.082 407.193C293.509 407.011 293.869 406.75 294.165 406.409C294.46 406.068 294.67 405.659 294.795 405.182H296.807C296.693 405.955 296.412 406.651 295.963 407.27C295.52 407.884 294.932 408.372 294.199 408.736C293.472 409.094 292.625 409.273 291.659 409.273ZM305.44 395.909V397.614H298.656V395.909H305.44ZM300.634 392.773H302.645V405.25C302.645 405.818 302.727 406.244 302.892 406.528C303.063 406.807 303.278 406.994 303.54 407.091C303.807 407.182 304.088 407.227 304.384 407.227C304.605 407.227 304.787 407.216 304.929 407.193C305.071 407.165 305.185 407.142 305.27 407.125L305.679 408.932C305.543 408.983 305.352 409.034 305.108 409.085C304.864 409.142 304.554 409.17 304.179 409.17C303.611 409.17 303.054 409.048 302.509 408.804C301.969 408.56 301.52 408.188 301.162 407.688C300.81 407.188 300.634 406.557 300.634 405.795V392.773ZM313.814 409.273C312.553 409.273 311.464 408.994 310.55 408.438C309.641 407.875 308.939 407.091 308.445 406.085C307.956 405.074 307.712 403.898 307.712 402.557C307.712 401.216 307.956 400.034 308.445 399.011C308.939 397.983 309.626 397.182 310.507 396.608C311.393 396.028 312.428 395.739 313.609 395.739C314.291 395.739 314.964 395.852 315.629 396.08C316.294 396.307 316.899 396.676 317.445 397.188C317.99 397.693 318.425 398.364 318.749 399.199C319.072 400.034 319.234 401.062 319.234 402.284V403.136H309.143V401.398H317.189C317.189 400.659 317.041 400 316.746 399.42C316.456 398.841 316.041 398.384 315.501 398.048C314.967 397.713 314.337 397.545 313.609 397.545C312.808 397.545 312.115 397.744 311.53 398.142C310.95 398.534 310.504 399.045 310.192 399.676C309.879 400.307 309.723 400.983 309.723 401.705V402.864C309.723 403.852 309.893 404.69 310.234 405.378C310.581 406.06 311.061 406.58 311.675 406.938C312.288 407.29 313.001 407.466 313.814 407.466C314.342 407.466 314.82 407.392 315.246 407.244C315.678 407.091 316.05 406.864 316.362 406.562C316.675 406.256 316.916 405.875 317.087 405.42L319.03 405.966C318.825 406.625 318.482 407.205 317.999 407.705C317.516 408.199 316.919 408.585 316.209 408.864C315.499 409.136 314.7 409.273 313.814 409.273ZM327.237 409.273C326.146 409.273 325.183 408.997 324.348 408.446C323.513 407.889 322.859 407.105 322.388 406.094C321.916 405.077 321.68 403.875 321.68 402.489C321.68 401.114 321.916 399.92 322.388 398.909C322.859 397.898 323.516 397.116 324.357 396.565C325.197 396.014 326.169 395.739 327.271 395.739C328.124 395.739 328.797 395.881 329.291 396.165C329.791 396.443 330.172 396.761 330.433 397.119C330.7 397.472 330.908 397.761 331.055 397.989H331.226V391.545H333.237V409H331.294V406.989H331.055C330.908 407.227 330.697 407.528 330.425 407.892C330.152 408.25 329.763 408.571 329.257 408.855C328.751 409.134 328.078 409.273 327.237 409.273ZM327.51 407.466C328.317 407.466 328.999 407.256 329.555 406.835C330.112 406.409 330.536 405.821 330.825 405.071C331.115 404.315 331.26 403.443 331.26 402.455C331.26 401.477 331.118 400.622 330.834 399.889C330.55 399.151 330.129 398.577 329.572 398.168C329.016 397.753 328.328 397.545 327.51 397.545C326.658 397.545 325.947 397.764 325.379 398.202C324.817 398.634 324.393 399.222 324.109 399.966C323.831 400.705 323.692 401.534 323.692 402.455C323.692 403.386 323.834 404.233 324.118 404.994C324.408 405.75 324.834 406.352 325.396 406.801C325.964 407.244 326.669 407.466 327.51 407.466ZM338.666 409.136C338.246 409.136 337.885 408.986 337.584 408.685C337.283 408.384 337.132 408.023 337.132 407.602C337.132 407.182 337.283 406.821 337.584 406.52C337.885 406.219 338.246 406.068 338.666 406.068C339.087 406.068 339.447 406.219 339.749 406.52C340.05 406.821 340.2 407.182 340.2 407.602C340.2 407.881 340.129 408.136 339.987 408.369C339.851 408.602 339.666 408.79 339.433 408.932C339.206 409.068 338.95 409.136 338.666 409.136Z" fill="#636363"/>
<path d="M57.342 573L53.7624 559.909H55.3732L58.109 570.571H58.2369L61.0238 559.909H62.8136L65.6005 570.571H65.7283L68.4641 559.909H70.0749L66.4954 573H64.859L61.9698 562.568H61.8675L58.9783 573H57.342ZM75.0479 573.205C74.1019 573.205 73.2859 572.996 72.5998 572.578C71.918 572.156 71.3917 571.568 71.021 570.814C70.6545 570.055 70.4712 569.173 70.4712 568.168C70.4712 567.162 70.6545 566.276 71.021 565.509C71.3917 564.737 71.9073 564.136 72.5678 563.706C73.2326 563.271 74.0082 563.054 74.8945 563.054C75.4059 563.054 75.9109 563.139 76.4094 563.31C76.908 563.48 77.3619 563.757 77.771 564.141C78.18 564.52 78.506 565.023 78.7489 565.649C78.9918 566.276 79.1133 567.047 79.1133 567.963V568.602H71.5451V567.298H77.5792C77.5792 566.744 77.4684 566.25 77.2468 565.815C77.0295 565.381 76.7184 565.038 76.3136 564.786C75.913 564.535 75.44 564.409 74.8945 564.409C74.2937 564.409 73.7738 564.558 73.3349 564.857C72.9002 565.151 72.5657 565.534 72.3313 566.007C72.0969 566.48 71.9798 566.987 71.9798 567.528V568.398C71.9798 569.139 72.1076 569.768 72.3633 570.283C72.6232 570.795 72.9833 571.185 73.4435 571.453C73.9038 571.717 74.4386 571.849 75.0479 571.849C75.4442 571.849 75.8022 571.794 76.1218 571.683C76.4457 571.568 76.7248 571.398 76.9592 571.172C77.1935 570.942 77.3746 570.656 77.5025 570.315L78.9599 570.724C78.8065 571.219 78.5487 571.653 78.1864 572.028C77.8242 572.399 77.3768 572.689 76.8441 572.898C76.3114 573.102 75.7127 573.205 75.0479 573.205ZM90.4592 573.205C89.5387 573.205 88.7461 572.987 88.0813 572.553C87.4165 572.118 86.9052 571.519 86.5472 570.756C86.1893 569.994 86.0103 569.122 86.0103 568.142C86.0103 567.145 86.1935 566.265 86.56 565.502C86.9308 564.735 87.4464 564.136 88.1069 563.706C88.7717 563.271 89.5472 563.054 90.4336 563.054C91.1239 563.054 91.7461 563.182 92.3001 563.438C92.854 563.693 93.3079 564.051 93.6616 564.511C94.0153 564.972 94.2347 565.509 94.32 566.122H92.8114C92.6964 565.675 92.4407 565.278 92.0444 564.933C91.6523 564.584 91.1239 564.409 90.4592 564.409C89.8711 564.409 89.3555 564.562 88.9123 564.869C88.4734 565.172 88.1303 565.6 87.8832 566.154C87.6403 566.704 87.5188 567.349 87.5188 568.091C87.5188 568.849 87.6381 569.51 87.8768 570.072C88.1197 570.635 88.4606 571.072 88.8995 571.383C89.3427 571.694 89.8626 571.849 90.4592 571.849C90.8512 571.849 91.207 571.781 91.5266 571.645C91.8462 571.509 92.1168 571.312 92.3384 571.057C92.56 570.801 92.7177 570.494 92.8114 570.136H94.32C94.2347 570.716 94.0238 571.238 93.6871 571.702C93.3548 572.163 92.9137 572.529 92.364 572.802C91.8185 573.07 91.1836 573.205 90.4592 573.205ZM99.4144 573.23C98.7923 573.23 98.2276 573.113 97.7205 572.879C97.2134 572.64 96.8107 572.297 96.5124 571.849C96.2141 571.398 96.065 570.852 96.065 570.213C96.065 569.651 96.1758 569.195 96.3974 568.845C96.619 568.491 96.9151 568.214 97.2859 568.014C97.6566 567.814 98.0657 567.665 98.5131 567.567C98.9648 567.464 99.4187 567.384 99.8746 567.324C100.471 567.247 100.955 567.19 101.326 567.151C101.701 567.109 101.973 567.038 102.144 566.94C102.319 566.842 102.406 566.672 102.406 566.429V566.378C102.406 565.747 102.233 565.257 101.888 564.908C101.547 564.558 101.029 564.384 100.335 564.384C99.6147 564.384 99.0501 564.541 98.641 564.857C98.2319 565.172 97.9442 565.509 97.7781 565.866L96.3462 565.355C96.6019 564.759 96.9428 564.294 97.369 563.962C97.7994 563.625 98.2681 563.391 98.7752 563.259C99.2866 563.122 99.7894 563.054 100.284 563.054C100.599 563.054 100.961 563.092 101.37 563.169C101.784 563.241 102.182 563.393 102.566 563.623C102.953 563.853 103.275 564.2 103.531 564.665C103.787 565.129 103.914 565.751 103.914 566.531V573H102.406V571.67H102.329C102.227 571.884 102.056 572.112 101.818 572.354C101.579 572.597 101.262 572.804 100.865 572.974C100.469 573.145 99.9854 573.23 99.4144 573.23ZM99.6445 571.875C100.241 571.875 100.744 571.758 101.153 571.523C101.566 571.289 101.877 570.987 102.086 570.616C102.299 570.245 102.406 569.855 102.406 569.446V568.065C102.342 568.142 102.201 568.212 101.984 568.276C101.771 568.336 101.524 568.389 101.243 568.436C100.966 568.479 100.695 568.517 100.431 568.551C100.171 568.581 99.9599 568.607 99.7979 568.628C99.4059 568.679 99.0394 568.762 98.6985 568.877C98.3619 568.988 98.0891 569.156 97.8803 569.382C97.6758 569.604 97.5735 569.906 97.5735 570.29C97.5735 570.814 97.7674 571.21 98.1552 571.479C98.5472 571.743 99.0437 571.875 99.6445 571.875ZM108.176 567.094V573H106.668V563.182H108.125V564.716H108.253C108.483 564.217 108.833 563.817 109.301 563.514C109.77 563.207 110.375 563.054 111.117 563.054C111.781 563.054 112.363 563.19 112.862 563.463C113.36 563.732 113.748 564.141 114.025 564.69C114.302 565.236 114.441 565.926 114.441 566.761V573H112.932V566.864C112.932 566.092 112.732 565.491 112.331 565.061C111.931 564.626 111.381 564.409 110.682 564.409C110.2 564.409 109.77 564.513 109.391 564.722C109.016 564.931 108.72 565.236 108.502 565.636C108.285 566.037 108.176 566.523 108.176 567.094ZM123.768 567.094V573H122.26V563.182H123.717V564.716H123.845C124.075 564.217 124.424 563.817 124.893 563.514C125.362 563.207 125.967 563.054 126.708 563.054C127.373 563.054 127.955 563.19 128.453 563.463C128.952 563.732 129.34 564.141 129.617 564.69C129.894 565.236 130.032 565.926 130.032 566.761V573H128.524V566.864C128.524 566.092 128.324 565.491 127.923 565.061C127.522 564.626 126.973 564.409 126.274 564.409C125.792 564.409 125.362 564.513 124.983 564.722C124.608 564.931 124.311 565.236 124.094 565.636C123.877 566.037 123.768 566.523 123.768 567.094ZM136.778 573.205C135.891 573.205 135.113 572.994 134.444 572.572C133.78 572.15 133.26 571.56 132.885 570.801C132.514 570.043 132.329 569.156 132.329 568.142C132.329 567.119 132.514 566.227 132.885 565.464C133.26 564.701 133.78 564.109 134.444 563.687C135.113 563.265 135.891 563.054 136.778 563.054C137.664 563.054 138.439 563.265 139.104 563.687C139.773 564.109 140.293 564.701 140.664 565.464C141.039 566.227 141.226 567.119 141.226 568.142C141.226 569.156 141.039 570.043 140.664 570.801C140.293 571.56 139.773 572.15 139.104 572.572C138.439 572.994 137.664 573.205 136.778 573.205ZM136.778 571.849C137.451 571.849 138.005 571.677 138.439 571.332C138.874 570.987 139.196 570.533 139.405 569.97C139.613 569.408 139.718 568.798 139.718 568.142C139.718 567.486 139.613 566.874 139.405 566.308C139.196 565.741 138.874 565.283 138.439 564.933C138.005 564.584 137.451 564.409 136.778 564.409C136.104 564.409 135.55 564.584 135.116 564.933C134.681 565.283 134.359 565.741 134.15 566.308C133.942 566.874 133.837 567.486 133.837 568.142C133.837 568.798 133.942 569.408 134.15 569.97C134.359 570.533 134.681 570.987 135.116 571.332C135.55 571.677 136.104 571.849 136.778 571.849ZM145.42 573L142.428 563.182H144.013L146.135 570.699H146.238L148.334 563.182H149.945L152.016 570.673H152.118L154.241 563.182H155.826L152.834 573H151.351L149.204 565.457H149.05L146.903 573H145.42ZM166.871 573.205C165.951 573.205 165.158 572.987 164.493 572.553C163.829 572.118 163.317 571.519 162.959 570.756C162.601 569.994 162.422 569.122 162.422 568.142C162.422 567.145 162.606 566.265 162.972 565.502C163.343 564.735 163.858 564.136 164.519 563.706C165.184 563.271 165.959 563.054 166.846 563.054C167.536 563.054 168.158 563.182 168.712 563.438C169.266 563.693 169.72 564.051 170.074 564.511C170.427 564.972 170.647 565.509 170.732 566.122H169.224C169.108 565.675 168.853 565.278 168.456 564.933C168.064 564.584 167.536 564.409 166.871 564.409C166.283 564.409 165.768 564.562 165.324 564.869C164.885 565.172 164.542 565.6 164.295 566.154C164.052 566.704 163.931 567.349 163.931 568.091C163.931 568.849 164.05 569.51 164.289 570.072C164.532 570.635 164.873 571.072 165.312 571.383C165.755 571.694 166.275 571.849 166.871 571.849C167.263 571.849 167.619 571.781 167.939 571.645C168.258 571.509 168.529 571.312 168.751 571.057C168.972 570.801 169.13 570.494 169.224 570.136H170.732C170.647 570.716 170.436 571.238 170.099 571.702C169.767 572.163 169.326 572.529 168.776 572.802C168.231 573.07 167.596 573.205 166.871 573.205ZM176.926 573.205C176.04 573.205 175.262 572.994 174.593 572.572C173.928 572.15 173.408 571.56 173.033 570.801C172.662 570.043 172.477 569.156 172.477 568.142C172.477 567.119 172.662 566.227 173.033 565.464C173.408 564.701 173.928 564.109 174.593 563.687C175.262 563.265 176.04 563.054 176.926 563.054C177.812 563.054 178.588 563.265 179.253 563.687C179.922 564.109 180.442 564.701 180.812 565.464C181.187 566.227 181.375 567.119 181.375 568.142C181.375 569.156 181.187 570.043 180.812 570.801C180.442 571.56 179.922 572.15 179.253 572.572C178.588 572.994 177.812 573.205 176.926 573.205ZM176.926 571.849C177.599 571.849 178.153 571.677 178.588 571.332C179.023 570.987 179.344 570.533 179.553 569.97C179.762 569.408 179.866 568.798 179.866 568.142C179.866 567.486 179.762 566.874 179.553 566.308C179.344 565.741 179.023 565.283 178.588 564.933C178.153 564.584 177.599 564.409 176.926 564.409C176.253 564.409 175.699 564.584 175.264 564.933C174.829 565.283 174.508 565.741 174.299 566.308C174.09 566.874 173.986 567.486 173.986 568.142C173.986 568.798 174.09 569.408 174.299 569.97C174.508 570.533 174.829 570.987 175.264 571.332C175.699 571.677 176.253 571.849 176.926 571.849ZM185.186 567.094V573H183.678V563.182H185.135V564.716H185.263C185.493 564.217 185.842 563.817 186.311 563.514C186.78 563.207 187.385 563.054 188.126 563.054C188.791 563.054 189.373 563.19 189.871 563.463C190.37 563.732 190.758 564.141 191.035 564.69C191.312 565.236 191.45 565.926 191.45 566.761V573H189.942V566.864C189.942 566.092 189.741 565.491 189.341 565.061C188.94 564.626 188.391 564.409 187.692 564.409C187.21 564.409 186.78 564.513 186.401 564.722C186.026 564.931 185.729 565.236 185.512 565.636C185.295 566.037 185.186 566.523 185.186 567.094ZM198.477 563.182V564.46H193.389V563.182H198.477ZM194.872 560.83H196.38V570.188C196.38 570.614 196.442 570.933 196.566 571.146C196.693 571.355 196.855 571.496 197.051 571.568C197.252 571.636 197.463 571.67 197.684 571.67C197.85 571.67 197.987 571.662 198.093 571.645C198.2 571.624 198.285 571.607 198.349 571.594L198.656 572.949C198.553 572.987 198.411 573.026 198.227 573.064C198.044 573.107 197.812 573.128 197.531 573.128C197.105 573.128 196.687 573.036 196.278 572.853C195.873 572.67 195.536 572.391 195.268 572.016C195.004 571.641 194.872 571.168 194.872 570.597V560.83ZM200.746 573V563.182H202.254V573H200.746ZM201.513 561.545C201.219 561.545 200.965 561.445 200.752 561.245C200.544 561.045 200.439 560.804 200.439 560.523C200.439 560.241 200.544 560.001 200.752 559.8C200.965 559.6 201.219 559.5 201.513 559.5C201.807 559.5 202.058 559.6 202.267 559.8C202.48 560.001 202.587 560.241 202.587 560.523C202.587 560.804 202.48 561.045 202.267 561.245C202.058 561.445 201.807 561.545 201.513 561.545ZM206.526 567.094V573H205.017V563.182H206.475V564.716H206.603C206.833 564.217 207.182 563.817 207.651 563.514C208.12 563.207 208.725 563.054 209.466 563.054C210.131 563.054 210.713 563.19 211.211 563.463C211.71 563.732 212.098 564.141 212.375 564.69C212.652 565.236 212.79 565.926 212.79 566.761V573H211.282V566.864C211.282 566.092 211.081 565.491 210.681 565.061C210.28 564.626 209.73 564.409 209.032 564.409C208.55 564.409 208.12 564.513 207.74 564.722C207.365 564.931 207.069 565.236 206.852 565.636C206.635 566.037 206.526 566.523 206.526 567.094ZM221.734 568.986V563.182H223.243V573H221.734V571.338H221.632C221.402 571.837 221.044 572.261 220.558 572.61C220.072 572.955 219.459 573.128 218.717 573.128C218.104 573.128 217.558 572.994 217.081 572.725C216.604 572.452 216.229 572.043 215.956 571.498C215.683 570.948 215.547 570.256 215.547 569.42V563.182H217.055V569.318C217.055 570.034 217.256 570.605 217.656 571.031C218.061 571.457 218.577 571.67 219.203 571.67C219.578 571.67 219.959 571.575 220.347 571.383C220.739 571.191 221.067 570.897 221.331 570.501C221.6 570.104 221.734 569.599 221.734 568.986ZM229.994 573.205C229.108 573.205 228.33 572.994 227.661 572.572C226.996 572.15 226.477 571.56 226.102 570.801C225.731 570.043 225.545 569.156 225.545 568.142C225.545 567.119 225.731 566.227 226.102 565.464C226.477 564.701 226.996 564.109 227.661 563.687C228.33 563.265 229.108 563.054 229.994 563.054C230.881 563.054 231.656 563.265 232.321 563.687C232.99 564.109 233.51 564.701 233.881 565.464C234.256 566.227 234.443 567.119 234.443 568.142C234.443 569.156 234.256 570.043 233.881 570.801C233.51 571.56 232.99 572.15 232.321 572.572C231.656 572.994 230.881 573.205 229.994 573.205ZM229.994 571.849C230.668 571.849 231.222 571.677 231.656 571.332C232.091 570.987 232.413 570.533 232.621 569.97C232.83 569.408 232.935 568.798 232.935 568.142C232.935 567.486 232.83 566.874 232.621 566.308C232.413 565.741 232.091 565.283 231.656 564.933C231.222 564.584 230.668 564.409 229.994 564.409C229.321 564.409 228.767 564.584 228.332 564.933C227.898 565.283 227.576 565.741 227.367 566.308C227.158 566.874 227.054 567.486 227.054 568.142C227.054 568.798 227.158 569.408 227.367 569.97C227.576 570.533 227.898 570.987 228.332 571.332C228.767 571.677 229.321 571.849 229.994 571.849ZM242.933 568.986V563.182H244.442V573H242.933V571.338H242.831C242.601 571.837 242.243 572.261 241.757 572.61C241.271 572.955 240.658 573.128 239.916 573.128C239.303 573.128 238.757 572.994 238.28 572.725C237.803 572.452 237.428 572.043 237.155 571.498C236.882 570.948 236.746 570.256 236.746 569.42V563.182H238.254V569.318C238.254 570.034 238.455 570.605 238.855 571.031C239.26 571.457 239.776 571.67 240.402 571.67C240.777 571.67 241.159 571.575 241.546 571.383C241.938 571.191 242.267 570.897 242.531 570.501C242.799 570.104 242.933 569.599 242.933 568.986ZM254.159 565.381L252.804 565.764C252.719 565.538 252.593 565.319 252.427 565.106C252.265 564.888 252.044 564.71 251.762 564.569C251.481 564.428 251.121 564.358 250.682 564.358C250.081 564.358 249.581 564.496 249.18 564.773C248.784 565.046 248.586 565.393 248.586 565.815C248.586 566.19 248.722 566.487 248.995 566.704C249.267 566.921 249.694 567.102 250.273 567.247L251.73 567.605C252.608 567.818 253.262 568.144 253.693 568.583C254.123 569.018 254.338 569.578 254.338 570.264C254.338 570.827 254.176 571.33 253.853 571.773C253.533 572.216 253.086 572.565 252.51 572.821C251.935 573.077 251.266 573.205 250.503 573.205C249.502 573.205 248.673 572.987 248.017 572.553C247.36 572.118 246.945 571.483 246.77 570.648L248.202 570.29C248.338 570.818 248.596 571.214 248.975 571.479C249.359 571.743 249.86 571.875 250.478 571.875C251.181 571.875 251.739 571.726 252.152 571.428C252.57 571.125 252.779 570.763 252.779 570.341C252.779 570 252.659 569.714 252.421 569.484C252.182 569.25 251.816 569.075 251.321 568.96L249.685 568.577C248.786 568.364 248.125 568.033 247.703 567.586C247.286 567.134 247.077 566.57 247.077 565.892C247.077 565.338 247.233 564.848 247.544 564.422C247.859 563.996 248.287 563.661 248.828 563.418C249.374 563.175 249.992 563.054 250.682 563.054C251.654 563.054 252.417 563.267 252.971 563.693C253.529 564.119 253.925 564.682 254.159 565.381ZM258.118 559.909V573H256.609V559.909H258.118ZM261.852 576.682C261.597 576.682 261.369 576.661 261.168 576.618C260.968 576.58 260.83 576.541 260.753 576.503L261.136 575.173C261.503 575.267 261.827 575.301 262.108 575.276C262.389 575.25 262.638 575.124 262.856 574.898C263.077 574.677 263.28 574.317 263.463 573.818L263.744 573.051L260.114 563.182H261.75L264.46 571.006H264.562L267.273 563.182H268.909L264.741 574.432C264.554 574.939 264.322 575.359 264.045 575.691C263.768 576.028 263.446 576.277 263.08 576.439C262.717 576.601 262.308 576.682 261.852 576.682ZM278.852 573.23C278.23 573.23 277.665 573.113 277.158 572.879C276.651 572.64 276.248 572.297 275.95 571.849C275.652 571.398 275.502 570.852 275.502 570.213C275.502 569.651 275.613 569.195 275.835 568.845C276.056 568.491 276.353 568.214 276.723 568.014C277.094 567.814 277.503 567.665 277.951 567.567C278.402 567.464 278.856 567.384 279.312 567.324C279.909 567.247 280.392 567.19 280.763 567.151C281.138 567.109 281.411 567.038 281.581 566.94C281.756 566.842 281.843 566.672 281.843 566.429V566.378C281.843 565.747 281.671 565.257 281.326 564.908C280.985 564.558 280.467 564.384 279.772 564.384C279.052 564.384 278.488 564.541 278.078 564.857C277.669 565.172 277.382 565.509 277.216 565.866L275.784 565.355C276.039 564.759 276.38 564.294 276.806 563.962C277.237 563.625 277.706 563.391 278.213 563.259C278.724 563.122 279.227 563.054 279.721 563.054C280.037 563.054 280.399 563.092 280.808 563.169C281.221 563.241 281.62 563.393 282.003 563.623C282.391 563.853 282.713 564.2 282.968 564.665C283.224 565.129 283.352 565.751 283.352 566.531V573H281.843V571.67H281.767C281.664 571.884 281.494 572.112 281.255 572.354C281.017 572.597 280.699 572.804 280.303 572.974C279.907 573.145 279.423 573.23 278.852 573.23ZM279.082 571.875C279.679 571.875 280.181 571.758 280.591 571.523C281.004 571.289 281.315 570.987 281.524 570.616C281.737 570.245 281.843 569.855 281.843 569.446V568.065C281.779 568.142 281.639 568.212 281.422 568.276C281.208 568.336 280.961 568.389 280.68 568.436C280.403 568.479 280.132 568.517 279.868 568.551C279.608 568.581 279.397 568.607 279.235 568.628C278.843 568.679 278.477 568.762 278.136 568.877C277.799 568.988 277.527 569.156 277.318 569.382C277.113 569.604 277.011 569.906 277.011 570.29C277.011 570.814 277.205 571.21 277.593 571.479C277.985 571.743 278.481 571.875 279.082 571.875ZM287.614 567.094V573H286.105V563.182H287.563V564.716H287.691C287.921 564.217 288.27 563.817 288.739 563.514C289.208 563.207 289.813 563.054 290.554 563.054C291.219 563.054 291.801 563.19 292.299 563.463C292.798 563.732 293.186 564.141 293.463 564.69C293.74 565.236 293.878 565.926 293.878 566.761V573H292.369V566.864C292.369 566.092 292.169 565.491 291.769 565.061C291.368 564.626 290.818 564.409 290.119 564.409C289.638 564.409 289.208 564.513 288.828 564.722C288.453 564.931 288.157 565.236 287.94 565.636C287.722 566.037 287.614 566.523 287.614 567.094ZM299.524 573.23C298.902 573.23 298.337 573.113 297.83 572.879C297.323 572.64 296.92 572.297 296.622 571.849C296.324 571.398 296.174 570.852 296.174 570.213C296.174 569.651 296.285 569.195 296.507 568.845C296.728 568.491 297.025 568.214 297.395 568.014C297.766 567.814 298.175 567.665 298.623 567.567C299.074 567.464 299.528 567.384 299.984 567.324C300.581 567.247 301.064 567.19 301.435 567.151C301.81 567.109 302.083 567.038 302.253 566.94C302.428 566.842 302.515 566.672 302.515 566.429V566.378C302.515 565.747 302.343 565.257 301.998 564.908C301.657 564.558 301.139 564.384 300.444 564.384C299.724 564.384 299.159 564.541 298.75 564.857C298.341 565.172 298.054 565.509 297.887 565.866L296.456 565.355C296.711 564.759 297.052 564.294 297.478 563.962C297.909 563.625 298.377 563.391 298.885 563.259C299.396 563.122 299.899 563.054 300.393 563.054C300.708 563.054 301.071 563.092 301.48 563.169C301.893 563.241 302.292 563.393 302.675 563.623C303.063 563.853 303.385 564.2 303.64 564.665C303.896 565.129 304.024 565.751 304.024 566.531V573H302.515V571.67H302.439C302.336 571.884 302.166 572.112 301.927 572.354C301.689 572.597 301.371 572.804 300.975 572.974C300.578 573.145 300.095 573.23 299.524 573.23ZM299.754 571.875C300.35 571.875 300.853 571.758 301.262 571.523C301.676 571.289 301.987 570.987 302.196 570.616C302.409 570.245 302.515 569.855 302.515 569.446V568.065C302.451 568.142 302.311 568.212 302.093 568.276C301.88 568.336 301.633 568.389 301.352 568.436C301.075 568.479 300.804 568.517 300.54 568.551C300.28 568.581 300.069 568.607 299.907 568.628C299.515 568.679 299.149 568.762 298.808 568.877C298.471 568.988 298.199 569.156 297.99 569.382C297.785 569.604 297.683 569.906 297.683 570.29C297.683 570.814 297.877 571.21 298.265 571.479C298.657 571.743 299.153 571.875 299.754 571.875ZM308.286 559.909V573H306.777V559.909H308.286ZM312.02 576.682C311.765 576.682 311.537 576.661 311.336 576.618C311.136 576.58 310.998 576.541 310.921 576.503L311.304 575.173C311.671 575.267 311.995 575.301 312.276 575.276C312.557 575.25 312.806 575.124 313.024 574.898C313.245 574.677 313.448 574.317 313.631 573.818L313.912 573.051L310.282 563.182H311.918L314.628 571.006H314.73L317.441 563.182H319.077L314.909 574.432C314.722 574.939 314.49 575.359 314.213 575.691C313.936 576.028 313.614 576.277 313.248 576.439C312.885 576.601 312.476 576.682 312.02 576.682ZM320.787 573V571.849L326.361 564.69V564.588H320.966V563.182H328.304V564.384L322.884 571.491V571.594H328.483V573H320.787ZM334.642 573.205C333.696 573.205 332.88 572.996 332.194 572.578C331.512 572.156 330.985 571.568 330.615 570.814C330.248 570.055 330.065 569.173 330.065 568.168C330.065 567.162 330.248 566.276 330.615 565.509C330.985 564.737 331.501 564.136 332.162 563.706C332.826 563.271 333.602 563.054 334.488 563.054C335 563.054 335.505 563.139 336.003 563.31C336.502 563.48 336.956 563.757 337.365 564.141C337.774 564.52 338.1 565.023 338.343 565.649C338.586 566.276 338.707 567.047 338.707 567.963V568.602H331.139V567.298H337.173C337.173 566.744 337.062 566.25 336.841 565.815C336.623 565.381 336.312 565.038 335.907 564.786C335.507 564.535 335.034 564.409 334.488 564.409C333.887 564.409 333.368 564.558 332.929 564.857C332.494 565.151 332.159 565.534 331.925 566.007C331.691 566.48 331.574 566.987 331.574 567.528V568.398C331.574 569.139 331.701 569.768 331.957 570.283C332.217 570.795 332.577 571.185 333.037 571.453C333.498 571.717 334.032 571.849 334.642 571.849C335.038 571.849 335.396 571.794 335.716 571.683C336.039 571.568 336.319 571.398 336.553 571.172C336.787 570.942 336.968 570.656 337.096 570.315L338.554 570.724C338.4 571.219 338.142 571.653 337.78 572.028C337.418 572.399 336.971 572.689 336.438 572.898C335.905 573.102 335.306 573.205 334.642 573.205ZM43.5495 606.682C43.2939 606.682 43.0659 606.661 42.8656 606.618C42.6653 606.58 42.5268 606.541 42.4501 606.503L42.8336 605.173C43.2001 605.267 43.524 605.301 43.8052 605.276C44.0865 605.25 44.3358 605.124 44.5531 604.898C44.7747 604.677 44.9771 604.317 45.1603 603.818L45.4416 603.051L41.8109 593.182H43.4473L46.1575 601.006H46.2598L48.97 593.182H50.6064L46.4387 604.432C46.2512 604.939 46.019 605.359 45.742 605.691C45.465 606.028 45.1433 606.277 44.7768 606.439C44.4146 606.601 44.0055 606.682 43.5495 606.682ZM56.2346 603.205C55.3482 603.205 54.5705 602.994 53.9015 602.572C53.2367 602.15 52.7168 601.56 52.3418 600.801C51.9711 600.043 51.7857 599.156 51.7857 598.142C51.7857 597.119 51.9711 596.227 52.3418 595.464C52.7168 594.701 53.2367 594.109 53.9015 593.687C54.5705 593.265 55.3482 593.054 56.2346 593.054C57.1209 593.054 57.8965 593.265 58.5613 593.687C59.2303 594.109 59.7502 594.701 60.1209 595.464C60.4959 596.227 60.6834 597.119 60.6834 598.142C60.6834 599.156 60.4959 600.043 60.1209 600.801C59.7502 601.56 59.2303 602.15 58.5613 602.572C57.8965 602.994 57.1209 603.205 56.2346 603.205ZM56.2346 601.849C56.9078 601.849 57.4618 601.677 57.8965 601.332C58.3311 600.987 58.6529 600.533 58.8617 599.97C59.0705 599.408 59.1749 598.798 59.1749 598.142C59.1749 597.486 59.0705 596.874 58.8617 596.308C58.6529 595.741 58.3311 595.283 57.8965 594.933C57.4618 594.584 56.9078 594.409 56.2346 594.409C55.5613 594.409 55.0073 594.584 54.5726 594.933C54.138 595.283 53.8162 595.741 53.6074 596.308C53.3986 596.874 53.2942 597.486 53.2942 598.142C53.2942 598.798 53.3986 599.408 53.6074 599.97C53.8162 600.533 54.138 600.987 54.5726 601.332C55.0073 601.677 55.5613 601.849 56.2346 601.849ZM69.1737 598.986V593.182H70.6822V603H69.1737V601.338H69.0714C68.8413 601.837 68.4833 602.261 67.9975 602.61C67.5117 602.955 66.8981 603.128 66.1566 603.128C65.543 603.128 64.9975 602.994 64.5202 602.725C64.043 602.452 63.668 602.043 63.3952 601.498C63.1225 600.948 62.9862 600.256 62.9862 599.42V593.182H64.4947V599.318C64.4947 600.034 64.695 600.605 65.0955 601.031C65.5004 601.457 66.016 601.67 66.6424 601.67C67.0174 601.67 67.3988 601.575 67.7866 601.383C68.1786 601.191 68.5067 600.897 68.771 600.501C69.0394 600.104 69.1737 599.599 69.1737 598.986ZM73.4451 603V593.182H74.9025V594.665H75.0048C75.1838 594.179 75.5076 593.785 75.9764 593.482C76.4451 593.18 76.9735 593.028 77.5616 593.028C77.6724 593.028 77.8109 593.031 77.9771 593.035C78.1433 593.039 78.269 593.045 78.3542 593.054V594.588C78.3031 594.575 78.1859 594.556 78.0027 594.531C77.8237 594.501 77.6341 594.486 77.4338 594.486C76.9565 594.486 76.5304 594.586 76.1554 594.786C75.7846 594.982 75.4906 595.255 75.2733 595.604C75.0602 595.95 74.9537 596.344 74.9537 596.787V603H73.4451ZM86.7134 597.094V603H85.2049V589.909H86.7134V594.716H86.8413C87.0714 594.209 87.4165 593.806 87.8768 593.508C88.3413 593.205 88.9592 593.054 89.7305 593.054C90.3995 593.054 90.9854 593.188 91.4883 593.457C91.9911 593.721 92.381 594.128 92.658 594.678C92.9393 595.223 93.0799 595.918 93.0799 596.761V603H91.5714V596.864C91.5714 596.084 91.369 595.481 90.9641 595.055C90.5636 594.624 90.0075 594.409 89.2958 594.409C88.8015 594.409 88.3583 594.513 87.9663 594.722C87.5785 594.931 87.2717 595.236 87.0458 595.636C86.8242 596.037 86.7134 596.523 86.7134 597.094ZM99.9561 603.205C99.0101 603.205 98.1941 602.996 97.508 602.578C96.8262 602.156 96.2999 601.568 95.9292 600.814C95.5627 600.055 95.3794 599.173 95.3794 598.168C95.3794 597.162 95.5627 596.276 95.9292 595.509C96.2999 594.737 96.8155 594.136 97.476 593.706C98.1408 593.271 98.9164 593.054 99.8027 593.054C100.314 593.054 100.819 593.139 101.318 593.31C101.816 593.48 102.27 593.757 102.679 594.141C103.088 594.52 103.414 595.023 103.657 595.649C103.9 596.276 104.021 597.047 104.021 597.963V598.602H96.4533V597.298H102.487C102.487 596.744 102.377 596.25 102.155 595.815C101.938 595.381 101.627 595.038 101.222 594.786C100.821 594.535 100.348 594.409 99.8027 594.409C99.2019 594.409 98.682 594.558 98.2431 594.857C97.8084 595.151 97.4739 595.534 97.2395 596.007C97.0051 596.48 96.888 596.987 96.888 597.528V598.398C96.888 599.139 97.0158 599.768 97.2715 600.283C97.5314 600.795 97.8915 601.185 98.3517 601.453C98.812 601.717 99.3468 601.849 99.9561 601.849C100.352 601.849 100.71 601.794 101.03 601.683C101.354 601.568 101.633 601.398 101.867 601.172C102.102 600.942 102.283 600.656 102.411 600.315L103.868 600.724C103.715 601.219 103.457 601.653 103.095 602.028C102.732 602.399 102.285 602.689 101.752 602.898C101.22 603.102 100.621 603.205 99.9561 603.205ZM109.205 603.23C108.583 603.23 108.019 603.113 107.512 602.879C107.004 602.64 106.602 602.297 106.303 601.849C106.005 601.398 105.856 600.852 105.856 600.213C105.856 599.651 105.967 599.195 106.188 598.845C106.41 598.491 106.706 598.214 107.077 598.014C107.448 597.814 107.857 597.665 108.304 597.567C108.756 597.464 109.21 597.384 109.666 597.324C110.262 597.247 110.746 597.19 111.117 597.151C111.492 597.109 111.764 597.038 111.935 596.94C112.11 596.842 112.197 596.672 112.197 596.429V596.378C112.197 595.747 112.024 595.257 111.679 594.908C111.338 594.558 110.82 594.384 110.126 594.384C109.406 594.384 108.841 594.541 108.432 594.857C108.023 595.172 107.735 595.509 107.569 595.866L106.137 595.355C106.393 594.759 106.734 594.294 107.16 593.962C107.59 593.625 108.059 593.391 108.566 593.259C109.078 593.122 109.58 593.054 110.075 593.054C110.39 593.054 110.752 593.092 111.161 593.169C111.575 593.241 111.973 593.393 112.357 593.623C112.744 593.853 113.066 594.2 113.322 594.665C113.578 595.129 113.705 595.751 113.705 596.531V603H112.197V601.67H112.12C112.018 601.884 111.847 602.112 111.609 602.354C111.37 602.597 111.053 602.804 110.656 602.974C110.26 603.145 109.776 603.23 109.205 603.23ZM109.436 601.875C110.032 601.875 110.535 601.758 110.944 601.523C111.357 601.289 111.669 600.987 111.877 600.616C112.09 600.245 112.197 599.855 112.197 599.446V598.065C112.133 598.142 111.992 598.212 111.775 598.276C111.562 598.336 111.315 598.389 111.034 598.436C110.757 598.479 110.486 598.517 110.222 598.551C109.962 598.581 109.751 598.607 109.589 598.628C109.197 598.679 108.83 598.762 108.49 598.877C108.153 598.988 107.88 599.156 107.671 599.382C107.467 599.604 107.365 599.906 107.365 600.29C107.365 600.814 107.558 601.21 107.946 601.479C108.338 601.743 108.835 601.875 109.436 601.875ZM117.967 589.909V603H116.459V589.909H117.967ZM125 593.182V594.46H119.912V593.182H125ZM121.395 590.83H122.904V600.188C122.904 600.614 122.965 600.933 123.089 601.146C123.217 601.355 123.379 601.496 123.575 601.568C123.775 601.636 123.986 601.67 124.208 601.67C124.374 601.67 124.51 601.662 124.617 601.645C124.723 601.624 124.808 601.607 124.872 601.594L125.179 602.949C125.077 602.987 124.934 603.026 124.751 603.064C124.568 603.107 124.335 603.128 124.054 603.128C123.628 603.128 123.21 603.036 122.801 602.853C122.396 602.67 122.06 602.391 121.791 602.016C121.527 601.641 121.395 601.168 121.395 600.597V590.83ZM128.989 597.094V603H127.48V589.909H128.989V594.716H129.117C129.347 594.209 129.692 593.806 130.152 593.508C130.617 593.205 131.235 593.054 132.006 593.054C132.675 593.054 133.261 593.188 133.764 593.457C134.267 593.721 134.656 594.128 134.933 594.678C135.215 595.223 135.355 595.918 135.355 596.761V603H133.847V596.864C133.847 596.084 133.644 595.481 133.24 595.055C132.839 594.624 132.283 594.409 131.571 594.409C131.077 594.409 130.634 594.513 130.242 594.722C129.854 594.931 129.547 595.236 129.321 595.636C129.1 596.037 128.989 596.523 128.989 597.094ZM146.885 603.205C146.067 603.205 145.344 602.998 144.718 602.585C144.092 602.167 143.602 601.579 143.248 600.82C142.894 600.058 142.717 599.156 142.717 598.116C142.717 597.085 142.894 596.19 143.248 595.432C143.602 594.673 144.094 594.087 144.724 593.674C145.355 593.261 146.084 593.054 146.911 593.054C147.55 593.054 148.055 593.161 148.425 593.374C148.8 593.582 149.086 593.821 149.282 594.089C149.482 594.354 149.638 594.571 149.749 594.741H149.876V589.909H151.385V603H149.928V601.491H149.749C149.638 601.67 149.48 601.896 149.276 602.169C149.071 602.437 148.779 602.678 148.4 602.891C148.021 603.1 147.516 603.205 146.885 603.205ZM147.089 601.849C147.695 601.849 148.206 601.692 148.624 601.376C149.041 601.057 149.359 600.616 149.576 600.053C149.793 599.487 149.902 598.832 149.902 598.091C149.902 597.358 149.795 596.717 149.582 596.167C149.369 595.613 149.054 595.183 148.636 594.876C148.219 594.565 147.703 594.409 147.089 594.409C146.45 594.409 145.918 594.573 145.491 594.901C145.07 595.225 144.752 595.666 144.539 596.224C144.33 596.778 144.226 597.401 144.226 598.091C144.226 598.79 144.332 599.425 144.545 599.996C144.763 600.562 145.082 601.014 145.504 601.351C145.93 601.683 146.459 601.849 147.089 601.849ZM157.246 603.23C156.624 603.23 156.06 603.113 155.553 602.879C155.045 602.64 154.643 602.297 154.344 601.849C154.046 601.398 153.897 600.852 153.897 600.213C153.897 599.651 154.008 599.195 154.229 598.845C154.451 598.491 154.747 598.214 155.118 598.014C155.489 597.814 155.898 597.665 156.345 597.567C156.797 597.464 157.251 597.384 157.707 597.324C158.303 597.247 158.787 597.19 159.158 597.151C159.533 597.109 159.805 597.038 159.976 596.94C160.151 596.842 160.238 596.672 160.238 596.429V596.378C160.238 595.747 160.065 595.257 159.72 594.908C159.379 594.558 158.862 594.384 158.167 594.384C157.447 594.384 156.882 594.541 156.473 594.857C156.064 595.172 155.776 595.509 155.61 595.866L154.178 595.355C154.434 594.759 154.775 594.294 155.201 593.962C155.631 593.625 156.1 593.391 156.607 593.259C157.119 593.122 157.621 593.054 158.116 593.054C158.431 593.054 158.793 593.092 159.202 593.169C159.616 593.241 160.014 593.393 160.398 593.623C160.786 593.853 161.107 594.2 161.363 594.665C161.619 595.129 161.746 595.751 161.746 596.531V603H160.238V601.67H160.161C160.059 601.884 159.888 602.112 159.65 602.354C159.411 602.597 159.094 602.804 158.697 602.974C158.301 603.145 157.817 603.23 157.246 603.23ZM157.477 601.875C158.073 601.875 158.576 601.758 158.985 601.523C159.398 601.289 159.71 600.987 159.918 600.616C160.131 600.245 160.238 599.855 160.238 599.446V598.065C160.174 598.142 160.033 598.212 159.816 598.276C159.603 598.336 159.356 598.389 159.075 598.436C158.798 598.479 158.527 598.517 158.263 598.551C158.003 598.581 157.792 598.607 157.63 598.628C157.238 598.679 156.871 598.762 156.531 598.877C156.194 598.988 155.921 599.156 155.712 599.382C155.508 599.604 155.406 599.906 155.406 600.29C155.406 600.814 155.599 601.21 155.987 601.479C156.379 601.743 156.876 601.875 157.477 601.875ZM168.77 593.182V594.46H163.682V593.182H168.77ZM165.165 590.83H166.673V600.188C166.673 600.614 166.735 600.933 166.858 601.146C166.986 601.355 167.148 601.496 167.344 601.568C167.545 601.636 167.756 601.67 167.977 601.67C168.143 601.67 168.28 601.662 168.386 601.645C168.493 601.624 168.578 601.607 168.642 601.594L168.949 602.949C168.846 602.987 168.704 603.026 168.52 603.064C168.337 603.107 168.105 603.128 167.824 603.128C167.398 603.128 166.98 603.036 166.571 602.853C166.166 602.67 165.829 602.391 165.561 602.016C165.297 601.641 165.165 601.168 165.165 600.597V590.83ZM173.928 603.23C173.306 603.23 172.741 603.113 172.234 602.879C171.727 602.64 171.324 602.297 171.026 601.849C170.728 601.398 170.579 600.852 170.579 600.213C170.579 599.651 170.689 599.195 170.911 598.845C171.133 598.491 171.429 598.214 171.8 598.014C172.17 597.814 172.579 597.665 173.027 597.567C173.479 597.464 173.932 597.384 174.388 597.324C174.985 597.247 175.469 597.19 175.839 597.151C176.214 597.109 176.487 597.038 176.657 596.94C176.832 596.842 176.92 596.672 176.92 596.429V596.378C176.92 595.747 176.747 595.257 176.402 594.908C176.061 594.558 175.543 594.384 174.849 594.384C174.128 594.384 173.564 594.541 173.155 594.857C172.746 595.172 172.458 595.509 172.292 595.866L170.86 595.355C171.116 594.759 171.456 594.294 171.883 593.962C172.313 593.625 172.782 593.391 173.289 593.259C173.8 593.122 174.303 593.054 174.797 593.054C175.113 593.054 175.475 593.092 175.884 593.169C176.297 593.241 176.696 593.393 177.079 593.623C177.467 593.853 177.789 594.2 178.045 594.665C178.3 595.129 178.428 595.751 178.428 596.531V603H176.92V601.67H176.843C176.741 601.884 176.57 602.112 176.331 602.354C176.093 602.597 175.775 602.804 175.379 602.974C174.983 603.145 174.499 603.23 173.928 603.23ZM174.158 601.875C174.755 601.875 175.258 601.758 175.667 601.523C176.08 601.289 176.391 600.987 176.6 600.616C176.813 600.245 176.92 599.855 176.92 599.446V598.065C176.856 598.142 176.715 598.212 176.498 598.276C176.285 598.336 176.037 598.389 175.756 598.436C175.479 598.479 175.209 598.517 174.944 598.551C174.684 598.581 174.474 598.607 174.312 598.628C173.92 598.679 173.553 598.762 173.212 598.877C172.876 598.988 172.603 599.156 172.394 599.382C172.189 599.604 172.087 599.906 172.087 600.29C172.087 600.814 172.281 601.21 172.669 601.479C173.061 601.743 173.557 601.875 174.158 601.875ZM183.431 601.21L183.329 601.901C183.257 602.386 183.146 602.906 182.997 603.46C182.852 604.014 182.701 604.536 182.543 605.026C182.385 605.516 182.255 605.906 182.153 606.196H181.002C181.058 605.923 181.13 605.563 181.22 605.116C181.309 604.668 181.399 604.168 181.488 603.614C181.582 603.064 181.659 602.501 181.718 601.926L181.795 601.21H183.431ZM198.243 595.381L196.888 595.764C196.803 595.538 196.677 595.319 196.511 595.106C196.349 594.888 196.128 594.71 195.846 594.569C195.565 594.428 195.205 594.358 194.766 594.358C194.165 594.358 193.665 594.496 193.264 594.773C192.868 595.046 192.67 595.393 192.67 595.815C192.67 596.19 192.806 596.487 193.079 596.704C193.351 596.921 193.778 597.102 194.357 597.247L195.814 597.605C196.692 597.818 197.346 598.144 197.777 598.583C198.207 599.018 198.422 599.578 198.422 600.264C198.422 600.827 198.26 601.33 197.937 601.773C197.617 602.216 197.17 602.565 196.594 602.821C196.019 603.077 195.35 603.205 194.587 603.205C193.586 603.205 192.757 602.987 192.101 602.553C191.444 602.118 191.029 601.483 190.854 600.648L192.286 600.29C192.422 600.818 192.68 601.214 193.059 601.479C193.443 601.743 193.944 601.875 194.562 601.875C195.265 601.875 195.823 601.726 196.236 601.428C196.654 601.125 196.863 600.763 196.863 600.341C196.863 600 196.743 599.714 196.505 599.484C196.266 599.25 195.9 599.075 195.405 598.96L193.769 598.577C192.87 598.364 192.209 598.033 191.787 597.586C191.37 597.134 191.161 596.57 191.161 595.892C191.161 595.338 191.317 594.848 191.628 594.422C191.943 593.996 192.371 593.661 192.912 593.418C193.458 593.175 194.076 593.054 194.766 593.054C195.738 593.054 196.501 593.267 197.055 593.693C197.613 594.119 198.009 594.682 198.243 595.381ZM204.682 603.205C203.795 603.205 203.018 602.994 202.349 602.572C201.684 602.15 201.164 601.56 200.789 600.801C200.418 600.043 200.233 599.156 200.233 598.142C200.233 597.119 200.418 596.227 200.789 595.464C201.164 594.701 201.684 594.109 202.349 593.687C203.018 593.265 203.795 593.054 204.682 593.054C205.568 593.054 206.344 593.265 207.009 593.687C207.678 594.109 208.197 594.701 208.568 595.464C208.943 596.227 209.131 597.119 209.131 598.142C209.131 599.156 208.943 600.043 208.568 600.801C208.197 601.56 207.678 602.15 207.009 602.572C206.344 602.994 205.568 603.205 204.682 603.205ZM204.682 601.849C205.355 601.849 205.909 601.677 206.344 601.332C206.778 600.987 207.1 600.533 207.309 599.97C207.518 599.408 207.622 598.798 207.622 598.142C207.622 597.486 207.518 596.874 207.309 596.308C207.1 595.741 206.778 595.283 206.344 594.933C205.909 594.584 205.355 594.409 204.682 594.409C204.009 594.409 203.455 594.584 203.02 594.933C202.585 595.283 202.263 595.741 202.055 596.308C201.846 596.874 201.741 597.486 201.741 598.142C201.741 598.798 201.846 599.408 202.055 599.97C202.263 600.533 202.585 600.987 203.02 601.332C203.455 601.677 204.009 601.849 204.682 601.849ZM217.902 599.42L217.877 597.554H218.183L222.479 593.182H224.345L219.769 597.81H219.641L217.902 599.42ZM216.496 603V589.909H218.004V603H216.496ZM222.735 603L218.899 598.142L219.973 597.094L224.652 603H222.735ZM229.999 603.205C229.053 603.205 228.237 602.996 227.551 602.578C226.869 602.156 226.343 601.568 225.972 600.814C225.606 600.055 225.422 599.173 225.422 598.168C225.422 597.162 225.606 596.276 225.972 595.509C226.343 594.737 226.858 594.136 227.519 593.706C228.184 593.271 228.959 593.054 229.846 593.054C230.357 593.054 230.862 593.139 231.361 593.31C231.859 593.48 232.313 593.757 232.722 594.141C233.131 594.52 233.457 595.023 233.7 595.649C233.943 596.276 234.064 597.047 234.064 597.963V598.602H226.496V597.298H232.53C232.53 596.744 232.42 596.25 232.198 595.815C231.981 595.381 231.67 595.038 231.265 594.786C230.864 594.535 230.391 594.409 229.846 594.409C229.245 594.409 228.725 594.558 228.286 594.857C227.851 595.151 227.517 595.534 227.282 596.007C227.048 596.48 226.931 596.987 226.931 597.528V598.398C226.931 599.139 227.059 599.768 227.314 600.283C227.574 600.795 227.934 601.185 228.395 601.453C228.855 601.717 229.39 601.849 229.999 601.849C230.395 601.849 230.753 601.794 231.073 601.683C231.397 601.568 231.676 601.398 231.91 601.172C232.145 600.942 232.326 600.656 232.454 600.315L233.911 600.724C233.758 601.219 233.5 601.653 233.138 602.028C232.775 602.399 232.328 602.689 231.795 602.898C231.263 603.102 230.664 603.205 229.999 603.205ZM240.476 603.205C239.53 603.205 238.714 602.996 238.028 602.578C237.346 602.156 236.819 601.568 236.449 600.814C236.082 600.055 235.899 599.173 235.899 598.168C235.899 597.162 236.082 596.276 236.449 595.509C236.819 594.737 237.335 594.136 237.996 593.706C238.66 593.271 239.436 593.054 240.322 593.054C240.834 593.054 241.339 593.139 241.837 593.31C242.336 593.48 242.79 593.757 243.199 594.141C243.608 594.52 243.934 595.023 244.177 595.649C244.42 596.276 244.541 597.047 244.541 597.963V598.602H236.973V597.298H243.007C243.007 596.744 242.896 596.25 242.675 595.815C242.457 595.381 242.146 595.038 241.741 594.786C241.341 594.535 240.868 594.409 240.322 594.409C239.721 594.409 239.202 594.558 238.763 594.857C238.328 595.151 237.993 595.534 237.759 596.007C237.525 596.48 237.407 596.987 237.407 597.528V598.398C237.407 599.139 237.535 599.768 237.791 600.283C238.051 600.795 238.411 601.185 238.871 601.453C239.331 601.717 239.866 601.849 240.476 601.849C240.872 601.849 241.23 601.794 241.55 601.683C241.873 601.568 242.153 601.398 242.387 601.172C242.621 600.942 242.802 600.656 242.93 600.315L244.388 600.724C244.234 601.219 243.976 601.653 243.614 602.028C243.252 602.399 242.805 602.689 242.272 602.898C241.739 603.102 241.14 603.205 240.476 603.205ZM246.836 606.682V593.182H248.293V594.741H248.472C248.583 594.571 248.736 594.354 248.932 594.089C249.133 593.821 249.418 593.582 249.789 593.374C250.164 593.161 250.671 593.054 251.31 593.054C252.137 593.054 252.866 593.261 253.496 593.674C254.127 594.087 254.619 594.673 254.973 595.432C255.327 596.19 255.503 597.085 255.503 598.116C255.503 599.156 255.327 600.058 254.973 600.82C254.619 601.579 254.129 602.167 253.503 602.585C252.876 602.998 252.154 603.205 251.336 603.205C250.705 603.205 250.2 603.1 249.821 602.891C249.442 602.678 249.15 602.437 248.945 602.169C248.741 601.896 248.583 601.67 248.472 601.491H248.344V606.682H246.836ZM248.319 598.091C248.319 598.832 248.427 599.487 248.645 600.053C248.862 600.616 249.18 601.057 249.597 601.376C250.015 601.692 250.526 601.849 251.131 601.849C251.762 601.849 252.288 601.683 252.71 601.351C253.136 601.014 253.456 600.562 253.669 599.996C253.886 599.425 253.995 598.79 253.995 598.091C253.995 597.401 253.888 596.778 253.675 596.224C253.466 595.666 253.149 595.225 252.723 594.901C252.301 594.573 251.77 594.409 251.131 594.409C250.518 594.409 250.002 594.565 249.584 594.876C249.167 595.183 248.851 595.613 248.638 596.167C248.425 596.717 248.319 597.358 248.319 598.091ZM266.574 603.205C265.756 603.205 265.034 602.998 264.407 602.585C263.781 602.167 263.291 601.579 262.937 600.82C262.584 600.058 262.407 599.156 262.407 598.116C262.407 597.085 262.584 596.19 262.937 595.432C263.291 594.673 263.783 594.087 264.414 593.674C265.045 593.261 265.773 593.054 266.6 593.054C267.239 593.054 267.744 593.161 268.115 593.374C268.49 593.582 268.775 593.821 268.971 594.089C269.172 594.354 269.327 594.571 269.438 594.741H269.566V589.909H271.074V603H269.617V601.491H269.438C269.327 601.67 269.17 601.896 268.965 602.169C268.76 602.437 268.469 602.678 268.089 602.891C267.71 603.1 267.205 603.205 266.574 603.205ZM266.779 601.849C267.384 601.849 267.895 601.692 268.313 601.376C268.731 601.057 269.048 600.616 269.265 600.053C269.483 599.487 269.591 598.832 269.591 598.091C269.591 597.358 269.485 596.717 269.272 596.167C269.059 595.613 268.743 595.183 268.326 594.876C267.908 594.565 267.393 594.409 266.779 594.409C266.14 594.409 265.607 594.573 265.181 594.901C264.759 595.225 264.442 595.666 264.229 596.224C264.02 596.778 263.915 597.401 263.915 598.091C263.915 598.79 264.022 599.425 264.235 599.996C264.452 600.562 264.772 601.014 265.194 601.351C265.62 601.683 266.148 601.849 266.779 601.849ZM278.035 603.205C277.149 603.205 276.371 602.994 275.702 602.572C275.037 602.15 274.518 601.56 274.143 600.801C273.772 600.043 273.586 599.156 273.586 598.142C273.586 597.119 273.772 596.227 274.143 595.464C274.518 594.701 275.037 594.109 275.702 593.687C276.371 593.265 277.149 593.054 278.035 593.054C278.922 593.054 279.697 593.265 280.362 593.687C281.031 594.109 281.551 594.701 281.922 595.464C282.297 596.227 282.484 597.119 282.484 598.142C282.484 599.156 282.297 600.043 281.922 600.801C281.551 601.56 281.031 602.15 280.362 602.572C279.697 602.994 278.922 603.205 278.035 603.205ZM278.035 601.849C278.709 601.849 279.263 601.677 279.697 601.332C280.132 600.987 280.454 600.533 280.662 599.97C280.871 599.408 280.976 598.798 280.976 598.142C280.976 597.486 280.871 596.874 280.662 596.308C280.454 595.741 280.132 595.283 279.697 594.933C279.263 594.584 278.709 594.409 278.035 594.409C277.362 594.409 276.808 594.584 276.373 594.933C275.939 595.283 275.617 595.741 275.408 596.308C275.199 596.874 275.095 597.486 275.095 598.142C275.095 598.798 275.199 599.408 275.408 599.97C275.617 600.533 275.939 600.987 276.373 601.332C276.808 601.677 277.362 601.849 278.035 601.849ZM284.787 603V593.182H286.295V603H284.787ZM285.554 591.545C285.26 591.545 285.006 591.445 284.793 591.245C284.585 591.045 284.48 590.804 284.48 590.523C284.48 590.241 284.585 590.001 284.793 589.8C285.006 589.6 285.26 589.5 285.554 589.5C285.848 589.5 286.099 589.6 286.308 589.8C286.521 590.001 286.628 590.241 286.628 590.523C286.628 590.804 286.521 591.045 286.308 591.245C286.099 591.445 285.848 591.545 285.554 591.545ZM290.567 597.094V603H289.058V593.182H290.516V594.716H290.644C290.874 594.217 291.223 593.817 291.692 593.514C292.161 593.207 292.766 593.054 293.507 593.054C294.172 593.054 294.754 593.19 295.252 593.463C295.751 593.732 296.139 594.141 296.416 594.69C296.693 595.236 296.831 595.926 296.831 596.761V603H295.323V596.864C295.323 596.092 295.122 595.491 294.722 595.061C294.321 594.626 293.771 594.409 293.073 594.409C292.591 594.409 292.161 594.513 291.781 594.722C291.406 594.931 291.11 595.236 290.893 595.636C290.676 596.037 290.567 596.523 290.567 597.094ZM303.551 606.886C302.822 606.886 302.196 606.793 301.672 606.605C301.147 606.422 300.711 606.179 300.361 605.876C300.016 605.578 299.741 605.259 299.537 604.918L300.738 604.074C300.875 604.253 301.047 604.457 301.256 604.688C301.465 604.922 301.75 605.124 302.113 605.295C302.479 605.469 302.958 605.557 303.551 605.557C304.343 605.557 304.998 605.365 305.513 604.982C306.029 604.598 306.287 603.997 306.287 603.179V601.185H306.159C306.048 601.364 305.89 601.585 305.686 601.849C305.485 602.109 305.196 602.342 304.816 602.546C304.441 602.746 303.934 602.847 303.295 602.847C302.502 602.847 301.791 602.659 301.16 602.284C300.534 601.909 300.037 601.364 299.671 600.648C299.309 599.932 299.127 599.062 299.127 598.04C299.127 597.034 299.304 596.158 299.658 595.413C300.012 594.663 300.504 594.083 301.135 593.674C301.765 593.261 302.494 593.054 303.321 593.054C303.96 593.054 304.467 593.161 304.842 593.374C305.221 593.582 305.511 593.821 305.711 594.089C305.916 594.354 306.074 594.571 306.184 594.741H306.338V593.182H307.795V603.281C307.795 604.125 307.603 604.811 307.22 605.339C306.841 605.872 306.329 606.262 305.686 606.509C305.047 606.761 304.335 606.886 303.551 606.886ZM303.5 601.491C304.105 601.491 304.616 601.353 305.034 601.076C305.451 600.799 305.769 600.401 305.986 599.881C306.203 599.361 306.312 598.739 306.312 598.014C306.312 597.307 306.206 596.683 305.993 596.141C305.779 595.6 305.464 595.176 305.047 594.869C304.629 594.562 304.113 594.409 303.5 594.409C302.86 594.409 302.328 594.571 301.902 594.895C301.48 595.219 301.162 595.653 300.949 596.199C300.74 596.744 300.636 597.349 300.636 598.014C300.636 598.696 300.743 599.299 300.956 599.823C301.173 600.343 301.493 600.752 301.914 601.05C302.341 601.344 302.869 601.491 303.5 601.491ZM316.591 606.682C316.335 606.682 316.107 606.661 315.907 606.618C315.706 606.58 315.568 606.541 315.491 606.503L315.875 605.173C316.241 605.267 316.565 605.301 316.846 605.276C317.127 605.25 317.377 605.124 317.594 604.898C317.816 604.677 318.018 604.317 318.201 603.818L318.483 603.051L314.852 593.182H316.488L319.199 601.006H319.301L322.011 593.182H323.647L319.48 604.432C319.292 604.939 319.06 605.359 318.783 605.691C318.506 606.028 318.184 606.277 317.818 606.439C317.456 606.601 317.047 606.682 316.591 606.682ZM329.276 603.205C328.389 603.205 327.612 602.994 326.942 602.572C326.278 602.15 325.758 601.56 325.383 600.801C325.012 600.043 324.827 599.156 324.827 598.142C324.827 597.119 325.012 596.227 325.383 595.464C325.758 594.701 326.278 594.109 326.942 593.687C327.612 593.265 328.389 593.054 329.276 593.054C330.162 593.054 330.938 593.265 331.602 593.687C332.271 594.109 332.791 594.701 333.162 595.464C333.537 596.227 333.724 597.119 333.724 598.142C333.724 599.156 333.537 600.043 333.162 600.801C332.791 601.56 332.271 602.15 331.602 602.572C330.938 602.994 330.162 603.205 329.276 603.205ZM329.276 601.849C329.949 601.849 330.503 601.677 330.938 601.332C331.372 600.987 331.694 600.533 331.903 599.97C332.112 599.408 332.216 598.798 332.216 598.142C332.216 597.486 332.112 596.874 331.903 596.308C331.694 595.741 331.372 595.283 330.938 594.933C330.503 594.584 329.949 594.409 329.276 594.409C328.602 594.409 328.048 594.584 327.614 594.933C327.179 595.283 326.857 595.741 326.648 596.308C326.44 596.874 326.335 597.486 326.335 598.142C326.335 598.798 326.44 599.408 326.648 599.97C326.857 600.533 327.179 600.987 327.614 601.332C328.048 601.677 328.602 601.849 329.276 601.849ZM342.215 598.986V593.182H343.723V603H342.215V601.338H342.112C341.882 601.837 341.524 602.261 341.039 602.61C340.553 602.955 339.939 603.128 339.198 603.128C338.584 603.128 338.039 602.994 337.561 602.725C337.084 602.452 336.709 602.043 336.436 601.498C336.164 600.948 336.027 600.256 336.027 599.42V593.182H337.536V599.318C337.536 600.034 337.736 600.605 338.137 601.031C338.541 601.457 339.057 601.67 339.683 601.67C340.058 601.67 340.44 601.575 340.828 601.383C341.22 601.191 341.548 600.897 341.812 600.501C342.08 600.104 342.215 599.599 342.215 598.986ZM346.486 603V593.182H347.944V594.665H348.046C348.225 594.179 348.549 593.785 349.017 593.482C349.486 593.18 350.015 593.028 350.603 593.028C350.713 593.028 350.852 593.031 351.018 593.035C351.184 593.039 351.31 593.045 351.395 593.054V594.588C351.344 594.575 351.227 594.556 351.044 594.531C350.865 594.501 350.675 594.486 350.475 594.486C349.998 594.486 349.571 594.586 349.196 594.786C348.826 594.982 348.532 595.255 348.314 595.604C348.101 595.95 347.995 596.344 347.995 596.787V603H346.486ZM178.069 623.182V624.46H172.98V623.182H178.069ZM174.463 620.83H175.972V630.188C175.972 630.614 176.034 630.933 176.157 631.146C176.285 631.355 176.447 631.496 176.643 631.568C176.843 631.636 177.054 631.67 177.276 631.67C177.442 631.67 177.578 631.662 177.685 631.645C177.792 631.624 177.877 631.607 177.941 631.594L178.248 632.949C178.145 632.987 178.002 633.026 177.819 633.064C177.636 633.107 177.404 633.128 177.123 633.128C176.696 633.128 176.279 633.036 175.87 632.853C175.465 632.67 175.128 632.391 174.86 632.016C174.596 631.641 174.463 631.168 174.463 630.597V620.83ZM182.057 627.094V633H180.549V619.909H182.057V624.716H182.185C182.415 624.209 182.76 623.806 183.221 623.508C183.685 623.205 184.303 623.054 185.074 623.054C185.743 623.054 186.329 623.188 186.832 623.457C187.335 623.721 187.725 624.128 188.002 624.678C188.283 625.223 188.424 625.918 188.424 626.761V633H186.915V626.864C186.915 626.084 186.713 625.481 186.308 625.055C185.907 624.624 185.351 624.409 184.64 624.409C184.145 624.409 183.702 624.513 183.31 624.722C182.922 624.931 182.615 625.236 182.39 625.636C182.168 626.037 182.057 626.523 182.057 627.094ZM191.183 633V623.182H192.692V633H191.183ZM191.95 621.545C191.656 621.545 191.403 621.445 191.19 621.245C190.981 621.045 190.877 620.804 190.877 620.523C190.877 620.241 190.981 620.001 191.19 619.8C191.403 619.6 191.656 619.5 191.95 619.5C192.244 619.5 192.496 619.6 192.705 619.8C192.918 620.001 193.024 620.241 193.024 620.523C193.024 620.804 192.918 621.045 192.705 621.245C192.496 621.445 192.244 621.545 191.95 621.545ZM196.963 627.094V633H195.455V623.182H196.912V624.716H197.04C197.27 624.217 197.62 623.817 198.088 623.514C198.557 623.207 199.162 623.054 199.904 623.054C200.569 623.054 201.15 623.19 201.649 623.463C202.147 623.732 202.535 624.141 202.812 624.69C203.089 625.236 203.228 625.926 203.228 626.761V633H201.719V626.864C201.719 626.092 201.519 625.491 201.118 625.061C200.718 624.626 200.168 624.409 199.469 624.409C198.988 624.409 198.557 624.513 198.178 624.722C197.803 624.931 197.507 625.236 197.289 625.636C197.072 626.037 196.963 626.523 196.963 627.094ZM209.947 636.886C209.219 636.886 208.592 636.793 208.068 636.605C207.544 636.422 207.107 636.179 206.758 635.876C206.412 635.578 206.138 635.259 205.933 634.918L207.135 634.074C207.271 634.253 207.444 634.457 207.653 634.688C207.861 634.922 208.147 635.124 208.509 635.295C208.876 635.469 209.355 635.557 209.947 635.557C210.74 635.557 211.394 635.365 211.91 634.982C212.425 634.598 212.683 633.997 212.683 633.179V631.185H212.555C212.444 631.364 212.287 631.585 212.082 631.849C211.882 632.109 211.592 632.342 211.213 632.546C210.838 632.746 210.331 632.847 209.692 632.847C208.899 632.847 208.187 632.659 207.557 632.284C206.93 631.909 206.434 631.364 206.067 630.648C205.705 629.932 205.524 629.062 205.524 628.04C205.524 627.034 205.701 626.158 206.055 625.413C206.408 624.663 206.9 624.083 207.531 623.674C208.162 623.261 208.89 623.054 209.717 623.054C210.356 623.054 210.863 623.161 211.238 623.374C211.618 623.582 211.907 623.821 212.108 624.089C212.312 624.354 212.47 624.571 212.581 624.741H212.734V623.182H214.192V633.281C214.192 634.125 214 634.811 213.616 635.339C213.237 635.872 212.726 636.262 212.082 636.509C211.443 636.761 210.731 636.886 209.947 636.886ZM209.896 631.491C210.501 631.491 211.013 631.353 211.43 631.076C211.848 630.799 212.165 630.401 212.383 629.881C212.6 629.361 212.709 628.739 212.709 628.014C212.709 627.307 212.602 626.683 212.389 626.141C212.176 625.6 211.861 625.176 211.443 624.869C211.025 624.562 210.51 624.409 209.896 624.409C209.257 624.409 208.724 624.571 208.298 624.895C207.876 625.219 207.559 625.653 207.346 626.199C207.137 626.744 207.032 627.349 207.032 628.014C207.032 628.696 207.139 629.299 207.352 629.823C207.569 630.343 207.889 630.752 208.311 631.05C208.737 631.344 209.265 631.491 209.896 631.491ZM218.947 619.909L218.819 629.318H217.336L217.209 619.909H218.947ZM218.078 633.102C217.763 633.102 217.492 632.989 217.266 632.763C217.04 632.538 216.927 632.267 216.927 631.952C216.927 631.636 217.04 631.366 217.266 631.14C217.492 630.914 217.763 630.801 218.078 630.801C218.393 630.801 218.664 630.914 218.89 631.14C219.116 631.366 219.229 631.636 219.229 631.952C219.229 632.161 219.175 632.352 219.069 632.527C218.966 632.702 218.828 632.842 218.653 632.949C218.483 633.051 218.291 633.102 218.078 633.102Z" fill="#636363"/>
<rect x="20" y="718" width="354" height="51" rx="25.5" fill="#70C16F"/>
<path d="M165.781 749V737.364H167.888V747.233H173.013V749H165.781ZM178.616 749.17C177.741 749.17 176.985 748.989 176.349 748.625C175.716 748.258 175.229 747.739 174.888 747.068C174.548 746.394 174.377 745.6 174.377 744.688C174.377 743.79 174.548 743.002 174.888 742.324C175.233 741.642 175.714 741.112 176.332 740.733C176.949 740.35 177.674 740.159 178.508 740.159C179.046 740.159 179.553 740.246 180.031 740.42C180.512 740.591 180.936 740.856 181.303 741.216C181.674 741.576 181.966 742.034 182.178 742.591C182.39 743.144 182.496 743.803 182.496 744.568V745.199H175.343V743.812H180.525C180.521 743.419 180.436 743.068 180.269 742.761C180.103 742.451 179.87 742.206 179.57 742.028C179.275 741.85 178.93 741.761 178.536 741.761C178.116 741.761 177.746 741.864 177.428 742.068C177.11 742.269 176.862 742.534 176.684 742.864C176.51 743.189 176.421 743.547 176.417 743.938V745.148C176.417 745.655 176.51 746.091 176.695 746.455C176.881 746.814 177.14 747.091 177.474 747.284C177.807 747.473 178.197 747.568 178.644 747.568C178.943 747.568 179.214 747.527 179.457 747.443C179.699 747.356 179.909 747.229 180.087 747.062C180.265 746.896 180.4 746.689 180.491 746.443L182.411 746.659C182.29 747.167 182.059 747.61 181.718 747.989C181.381 748.364 180.949 748.655 180.423 748.864C179.896 749.068 179.294 749.17 178.616 749.17ZM188.594 740.273V741.864H183.577V740.273H188.594ZM184.816 738.182H186.873V746.375C186.873 746.652 186.915 746.864 186.998 747.011C187.085 747.155 187.199 747.254 187.339 747.307C187.479 747.36 187.634 747.386 187.805 747.386C187.933 747.386 188.051 747.377 188.157 747.358C188.267 747.339 188.35 747.322 188.407 747.307L188.754 748.915C188.644 748.953 188.487 748.994 188.282 749.04C188.081 749.085 187.835 749.112 187.543 749.119C187.028 749.134 186.564 749.057 186.151 748.886C185.738 748.712 185.411 748.443 185.168 748.08C184.93 747.716 184.812 747.261 184.816 746.716V738.182ZM192.465 737.364V738.523C192.465 738.856 192.401 739.203 192.272 739.562C192.147 739.919 191.975 740.259 191.755 740.585C191.535 740.907 191.285 741.184 191.005 741.415L190.05 740.795C190.259 740.481 190.441 740.142 190.596 739.778C190.751 739.411 190.829 738.996 190.829 738.534V737.364H192.465ZM199.9 742.58L198.025 742.784C197.972 742.595 197.879 742.417 197.746 742.25C197.618 742.083 197.443 741.949 197.224 741.847C197.004 741.744 196.735 741.693 196.417 741.693C195.989 741.693 195.629 741.786 195.337 741.972C195.049 742.157 194.907 742.398 194.911 742.693C194.907 742.947 195 743.153 195.19 743.312C195.383 743.472 195.701 743.602 196.144 743.705L197.633 744.023C198.459 744.201 199.072 744.483 199.474 744.869C199.879 745.256 200.084 745.761 200.087 746.386C200.084 746.936 199.923 747.42 199.604 747.841C199.29 748.258 198.853 748.583 198.292 748.818C197.731 749.053 197.087 749.17 196.36 749.17C195.292 749.17 194.432 748.947 193.781 748.5C193.129 748.049 192.741 747.422 192.616 746.619L194.621 746.426C194.712 746.82 194.906 747.117 195.201 747.318C195.496 747.519 195.881 747.619 196.354 747.619C196.843 747.619 197.235 747.519 197.531 747.318C197.83 747.117 197.979 746.869 197.979 746.574C197.979 746.324 197.883 746.117 197.69 745.955C197.5 745.792 197.205 745.667 196.803 745.58L195.315 745.267C194.478 745.093 193.858 744.799 193.457 744.386C193.055 743.97 192.856 743.443 192.86 742.807C192.856 742.269 193.002 741.803 193.298 741.409C193.597 741.011 194.012 740.705 194.542 740.489C195.076 740.269 195.692 740.159 196.388 740.159C197.411 740.159 198.216 740.377 198.803 740.812C199.394 741.248 199.76 741.837 199.9 742.58ZM209.548 752.455C208.809 752.455 208.174 752.354 207.644 752.153C207.114 751.956 206.688 751.691 206.366 751.358C206.044 751.025 205.82 750.655 205.695 750.25L207.548 749.801C207.631 749.972 207.752 750.14 207.911 750.307C208.07 750.477 208.284 750.617 208.553 750.727C208.826 750.841 209.169 750.898 209.582 750.898C210.165 750.898 210.648 750.756 211.031 750.472C211.413 750.191 211.604 749.729 211.604 749.085V747.432H211.502C211.396 747.644 211.241 747.862 211.036 748.085C210.835 748.309 210.568 748.496 210.235 748.648C209.906 748.799 209.491 748.875 208.991 748.875C208.32 748.875 207.712 748.718 207.167 748.403C206.625 748.085 206.193 747.612 205.871 746.983C205.553 746.35 205.394 745.559 205.394 744.608C205.394 743.65 205.553 742.841 205.871 742.182C206.193 741.519 206.627 741.017 207.173 740.676C207.718 740.331 208.326 740.159 208.996 740.159C209.508 740.159 209.928 740.246 210.258 740.42C210.591 740.591 210.856 740.797 211.053 741.04C211.25 741.278 211.4 741.504 211.502 741.716H211.616V740.273H213.644V749.142C213.644 749.888 213.466 750.506 213.11 750.994C212.754 751.483 212.267 751.848 211.65 752.091C211.032 752.333 210.332 752.455 209.548 752.455ZM209.565 747.261C210 747.261 210.371 747.155 210.678 746.943C210.985 746.731 211.218 746.426 211.377 746.028C211.536 745.631 211.616 745.153 211.616 744.597C211.616 744.047 211.536 743.566 211.377 743.153C211.222 742.741 210.991 742.42 210.684 742.193C210.381 741.962 210.008 741.847 209.565 741.847C209.106 741.847 208.724 741.966 208.417 742.205C208.11 742.443 207.879 742.771 207.724 743.188C207.568 743.6 207.491 744.07 207.491 744.597C207.491 745.131 207.568 745.598 207.724 746C207.883 746.398 208.116 746.708 208.423 746.932C208.733 747.152 209.114 747.261 209.565 747.261ZM219.559 749.17C218.707 749.17 217.968 748.983 217.343 748.608C216.718 748.233 216.233 747.708 215.888 747.034C215.548 746.36 215.377 745.572 215.377 744.67C215.377 743.769 215.548 742.979 215.888 742.301C216.233 741.623 216.718 741.097 217.343 740.722C217.968 740.347 218.707 740.159 219.559 740.159C220.411 740.159 221.15 740.347 221.775 740.722C222.4 741.097 222.883 741.623 223.224 742.301C223.568 742.979 223.741 743.769 223.741 744.67C223.741 745.572 223.568 746.36 223.224 747.034C222.883 747.708 222.4 748.233 221.775 748.608C221.15 748.983 220.411 749.17 219.559 749.17ZM219.57 747.523C220.032 747.523 220.419 747.396 220.729 747.142C221.04 746.884 221.271 746.54 221.423 746.108C221.578 745.676 221.656 745.195 221.656 744.665C221.656 744.131 221.578 743.648 221.423 743.216C221.271 742.78 221.04 742.434 220.729 742.176C220.419 741.919 220.032 741.79 219.57 741.79C219.097 741.79 218.703 741.919 218.388 742.176C218.078 742.434 217.845 742.78 217.69 743.216C217.538 743.648 217.462 744.131 217.462 744.665C217.462 745.195 217.538 745.676 217.69 746.108C217.845 746.54 218.078 746.884 218.388 747.142C218.703 747.396 219.097 747.523 219.57 747.523ZM228.004 737.364L227.816 745.58H225.987L225.805 737.364H228.004ZM226.901 749.125C226.557 749.125 226.261 749.004 226.015 748.761C225.772 748.519 225.651 748.223 225.651 747.875C225.651 747.534 225.772 747.242 226.015 747C226.261 746.758 226.557 746.636 226.901 746.636C227.238 746.636 227.53 746.758 227.776 747C228.026 747.242 228.151 747.534 228.151 747.875C228.151 748.106 228.093 748.316 227.975 748.506C227.862 748.695 227.71 748.847 227.521 748.96C227.335 749.07 227.129 749.125 226.901 749.125Z" fill="white"/>
<circle cx="193.5" cy="214.5" r="68.5" fill="#EDFBE8"/>
<circle cx="185.5" cy="223.5" r="47.5" fill="#CCE8CB"/>
<path d="M128 195.5L169 242L264.5 154" stroke="#70C16F" stroke-width="24" stroke-linecap="round" stroke-linejoin="round"/>
<path fill-rule="evenodd" clip-rule="evenodd" d="M40 0C17.9086 0 0 17.9086 0 40V808.5C0 830.591 17.9086 848.5 40 848.5H350C372.091 848.5 390 830.591 390 808.5V40C390 17.9086 372.091 0 350 0H40ZM49.4204 9.42027C27.329 9.42027 9.42039 27.3289 9.42039 49.4203V793C9.42039 815.092 27.329 833 49.4204 833H340.58C362.671 833 380.58 815.092 380.58 793V49.4203C380.58 27.3289 362.671 9.42027 340.58 9.42027H293.651C284.895 9.42027 277.797 16.5182 277.797 25.274C277.797 34.0298 270.699 41.1278 261.943 41.1278H195H128.057C119.301 41.1278 112.203 34.0298 112.203 25.274C112.203 16.5182 105.105 9.42027 96.3493 9.42027H49.4204Z" fill="#2C2C2C"/>
</g>
<defs>
<clipPath id="clip0_1354_1090">
<rect width="390" height="844" rx="42" fill="white"/>
</clipPath>
</defs>
</svg>
