<svg width="390" height="844" viewBox="0 0 390 844" fill="none" xmlns="http://www.w3.org/2000/svg">
<g clip-path="url(#clip0_1354_1089)">
<rect width="390" height="844" rx="42" fill="white"/>
<path d="M55.3024 155V133.182H59.2548V142.418H69.3649V133.182H73.3279V155H69.3649V145.732H59.2548V155H55.3024ZM82.165 155.33C81.128 155.33 80.1941 155.146 79.3631 154.776C78.5392 154.4 77.8858 153.846 77.4029 153.114C76.927 152.383 76.6891 151.481 76.6891 150.408C76.6891 149.485 76.8596 148.722 77.2005 148.118C77.5414 147.514 78.0066 147.031 78.5961 146.669C79.1855 146.307 79.8496 146.033 80.5882 145.849C81.334 145.657 82.1046 145.518 82.9 145.433C83.8588 145.334 84.6365 145.245 85.2331 145.167C85.8297 145.082 86.263 144.954 86.5328 144.783C86.8098 144.606 86.9483 144.332 86.9483 143.963V143.899C86.9483 143.097 86.7104 142.475 86.2346 142.035C85.7587 141.594 85.0733 141.374 84.1784 141.374C83.2338 141.374 82.4846 141.58 81.9306 141.992C81.3837 142.404 81.0144 142.891 80.8226 143.452L77.2218 142.94C77.5059 141.946 77.9746 141.115 78.628 140.447C79.2814 139.773 80.0804 139.268 81.025 138.935C81.9696 138.594 83.0137 138.423 84.1571 138.423C84.9455 138.423 85.7303 138.516 86.5115 138.7C87.2928 138.885 88.0066 139.19 88.6529 139.616C89.2992 140.036 89.8176 140.607 90.2083 141.332C90.606 142.056 90.8049 142.962 90.8049 144.048V155H87.0975V152.752H86.9696C86.7353 153.207 86.405 153.633 85.9789 154.031C85.5598 154.421 85.0307 154.737 84.3915 154.979C83.7594 155.213 83.0172 155.33 82.165 155.33ZM83.1664 152.496C83.9405 152.496 84.6117 152.344 85.1799 152.038C85.748 151.726 86.1848 151.314 86.4902 150.803C86.8027 150.291 86.959 149.734 86.959 149.13V147.202C86.8382 147.301 86.6323 147.393 86.3411 147.479C86.057 147.564 85.7374 147.638 85.3823 147.702C85.0272 147.766 84.6756 147.823 84.3276 147.873C83.9796 147.923 83.6777 147.965 83.4221 148.001C82.8468 148.079 82.3319 148.207 81.8773 148.384C81.4228 148.562 81.0641 148.81 80.8013 149.13C80.5385 149.442 80.4071 149.847 80.4071 150.344C80.4071 151.055 80.6664 151.591 81.1848 151.953C81.7033 152.315 82.3638 152.496 83.1664 152.496ZM98.5392 145.412V155H94.6827V138.636H98.3688V141.417H98.5605C98.937 140.501 99.5371 139.773 100.361 139.233C101.192 138.693 102.218 138.423 103.44 138.423C104.569 138.423 105.553 138.665 106.391 139.148C107.236 139.631 107.889 140.33 108.351 141.246C108.82 142.163 109.051 143.274 109.044 144.581V155H105.187V145.178C105.187 144.084 104.903 143.228 104.335 142.61C103.774 141.992 102.996 141.683 102.002 141.683C101.327 141.683 100.727 141.832 100.201 142.131C99.6827 142.422 99.2743 142.844 98.976 143.398C98.6848 143.952 98.5392 144.624 98.5392 145.412ZM119.036 155.288C117.751 155.288 116.6 154.957 115.585 154.297C114.569 153.636 113.767 152.678 113.177 151.42C112.588 150.163 112.293 148.636 112.293 146.839C112.293 145.021 112.591 143.487 113.188 142.237C113.791 140.98 114.605 140.032 115.627 139.393C116.65 138.746 117.79 138.423 119.047 138.423C120.006 138.423 120.794 138.587 121.412 138.913C122.03 139.233 122.52 139.62 122.882 140.075C123.244 140.522 123.525 140.945 123.724 141.342H123.884V133.182H127.751V155H123.958V152.422H123.724C123.525 152.82 123.237 153.242 122.861 153.69C122.485 154.13 121.987 154.506 121.369 154.819C120.752 155.131 119.974 155.288 119.036 155.288ZM120.112 152.124C120.929 152.124 121.625 151.903 122.2 151.463C122.776 151.016 123.213 150.394 123.511 149.599C123.809 148.803 123.958 147.876 123.958 146.818C123.958 145.76 123.809 144.84 123.511 144.059C123.22 143.278 122.786 142.67 122.211 142.237C121.643 141.804 120.943 141.587 120.112 141.587C119.253 141.587 118.536 141.811 117.96 142.259C117.385 142.706 116.952 143.324 116.661 144.112C116.369 144.901 116.224 145.803 116.224 146.818C116.224 147.841 116.369 148.754 116.661 149.556C116.959 150.352 117.396 150.98 117.971 151.442C118.553 151.896 119.267 152.124 120.112 152.124ZM135.717 133.182V155H131.86V133.182H135.717ZM146.927 155.32C145.286 155.32 143.869 154.979 142.676 154.297C141.49 153.608 140.578 152.635 139.938 151.378C139.299 150.114 138.98 148.626 138.98 146.914C138.98 145.231 139.299 143.754 139.938 142.482C140.585 141.204 141.487 140.21 142.644 139.499C143.802 138.782 145.162 138.423 146.725 138.423C147.733 138.423 148.685 138.587 149.58 138.913C150.482 139.233 151.277 139.73 151.966 140.405C152.662 141.08 153.209 141.939 153.607 142.983C154.004 144.02 154.203 145.256 154.203 146.69V147.873H140.791V145.273H150.507C150.499 144.535 150.34 143.878 150.027 143.303C149.715 142.72 149.278 142.262 148.717 141.928C148.163 141.594 147.517 141.428 146.778 141.428C145.99 141.428 145.297 141.619 144.7 142.003C144.104 142.379 143.639 142.876 143.305 143.494C142.978 144.105 142.811 144.776 142.804 145.508V147.777C142.804 148.729 142.978 149.545 143.326 150.227C143.674 150.902 144.161 151.42 144.786 151.783C145.411 152.138 146.142 152.315 146.98 152.315C147.541 152.315 148.049 152.237 148.504 152.081C148.958 151.918 149.352 151.68 149.686 151.367C150.02 151.055 150.272 150.668 150.443 150.206L154.044 150.611C153.816 151.562 153.383 152.393 152.744 153.104C152.112 153.807 151.302 154.354 150.315 154.744C149.328 155.128 148.198 155.32 146.927 155.32ZM164.907 161.136V138.636H168.7V141.342H168.924C169.123 140.945 169.403 140.522 169.765 140.075C170.127 139.62 170.618 139.233 171.235 138.913C171.853 138.587 172.642 138.423 173.6 138.423C174.865 138.423 176.005 138.746 177.02 139.393C178.043 140.032 178.853 140.98 179.449 142.237C180.053 143.487 180.355 145.021 180.355 146.839C180.355 148.636 180.06 150.163 179.471 151.42C178.881 152.678 178.078 153.636 177.063 154.297C176.047 154.957 174.897 155.288 173.611 155.288C172.674 155.288 171.896 155.131 171.278 154.819C170.66 154.506 170.163 154.13 169.787 153.69C169.417 153.242 169.13 152.82 168.924 152.422H168.764V161.136H164.907ZM168.689 146.818C168.689 147.876 168.838 148.803 169.137 149.599C169.442 150.394 169.879 151.016 170.447 151.463C171.022 151.903 171.718 152.124 172.535 152.124C173.387 152.124 174.101 151.896 174.676 151.442C175.252 150.98 175.685 150.352 175.976 149.556C176.275 148.754 176.424 147.841 176.424 146.818C176.424 145.803 176.278 144.901 175.987 144.112C175.696 143.324 175.262 142.706 174.687 142.259C174.112 141.811 173.395 141.587 172.535 141.587C171.711 141.587 171.012 141.804 170.436 142.237C169.861 142.67 169.424 143.278 169.126 144.059C168.835 144.84 168.689 145.76 168.689 146.818ZM190.902 155.32C189.261 155.32 187.844 154.979 186.651 154.297C185.465 153.608 184.552 152.635 183.913 151.378C183.274 150.114 182.954 148.626 182.954 146.914C182.954 145.231 183.274 143.754 183.913 142.482C184.559 141.204 185.461 140.21 186.619 139.499C187.777 138.782 189.137 138.423 190.699 138.423C191.708 138.423 192.659 138.587 193.554 138.913C194.456 139.233 195.252 139.73 195.941 140.405C196.637 141.08 197.184 141.939 197.581 142.983C197.979 144.02 198.178 145.256 198.178 146.69V147.873H184.765V145.273H194.481C194.474 144.535 194.314 143.878 194.002 143.303C193.689 142.72 193.252 142.262 192.691 141.928C192.137 141.594 191.491 141.428 190.752 141.428C189.964 141.428 189.272 141.619 188.675 142.003C188.078 142.379 187.613 142.876 187.279 143.494C186.953 144.105 186.786 144.776 186.779 145.508V147.777C186.779 148.729 186.953 149.545 187.301 150.227C187.649 150.902 188.135 151.42 188.76 151.783C189.385 152.138 190.117 152.315 190.955 152.315C191.516 152.315 192.024 152.237 192.478 152.081C192.933 151.918 193.327 151.68 193.661 151.367C193.995 151.055 194.247 150.668 194.417 150.206L198.018 150.611C197.791 151.562 197.358 152.393 196.718 153.104C196.086 153.807 195.277 154.354 194.289 154.744C193.302 155.128 192.173 155.32 190.902 155.32ZM201.441 155V138.636H205.18V141.364H205.35C205.649 140.419 206.16 139.691 206.884 139.18C207.616 138.661 208.45 138.402 209.388 138.402C209.601 138.402 209.839 138.413 210.102 138.434C210.372 138.448 210.595 138.473 210.773 138.509V142.056C210.61 141.999 210.35 141.95 209.995 141.907C209.647 141.857 209.31 141.832 208.983 141.832C208.28 141.832 207.648 141.985 207.087 142.29C206.533 142.589 206.096 143.004 205.776 143.537C205.457 144.07 205.297 144.684 205.297 145.38V155H201.441ZM213.335 155V138.636H217.021V141.417H217.213C217.554 140.479 218.118 139.748 218.907 139.222C219.695 138.69 220.636 138.423 221.73 138.423C222.838 138.423 223.772 138.693 224.532 139.233C225.299 139.766 225.839 140.494 226.151 141.417H226.322C226.684 140.508 227.295 139.783 228.154 139.244C229.02 138.697 230.047 138.423 231.233 138.423C232.738 138.423 233.967 138.899 234.919 139.851C235.871 140.803 236.346 142.191 236.346 144.016V155H232.479V144.613C232.479 143.597 232.209 142.855 231.67 142.386C231.13 141.911 230.469 141.673 229.688 141.673C228.758 141.673 228.03 141.964 227.504 142.546C226.986 143.121 226.726 143.871 226.726 144.794V155H222.944V144.453C222.944 143.608 222.689 142.933 222.177 142.429C221.673 141.925 221.013 141.673 220.196 141.673C219.642 141.673 219.138 141.815 218.683 142.099C218.229 142.376 217.866 142.77 217.596 143.281C217.327 143.786 217.192 144.375 217.192 145.05V155H213.335ZM240.259 155V138.636H244.115V155H240.259ZM242.198 136.314C241.587 136.314 241.061 136.112 240.621 135.707C240.181 135.295 239.961 134.801 239.961 134.226C239.961 133.643 240.181 133.15 240.621 132.745C241.061 132.333 241.587 132.127 242.198 132.127C242.816 132.127 243.341 132.333 243.775 132.745C244.215 133.15 244.435 133.643 244.435 134.226C244.435 134.801 244.215 135.295 243.775 135.707C243.341 136.112 242.816 136.314 242.198 136.314ZM261.014 142.962L257.499 143.345C257.399 142.99 257.225 142.656 256.977 142.344C256.735 142.031 256.409 141.779 255.997 141.587C255.585 141.396 255.08 141.3 254.484 141.3C253.681 141.3 253.007 141.474 252.46 141.822C251.92 142.17 251.654 142.621 251.661 143.175C251.654 143.651 251.828 144.038 252.183 144.336C252.545 144.634 253.142 144.879 253.972 145.071L256.764 145.668C258.312 146.001 259.463 146.531 260.215 147.255C260.975 147.979 261.359 148.928 261.366 150.099C261.359 151.129 261.057 152.038 260.46 152.827C259.871 153.608 259.051 154.219 257.999 154.659C256.948 155.099 255.741 155.32 254.377 155.32C252.374 155.32 250.762 154.901 249.541 154.062C248.319 153.217 247.591 152.042 247.357 150.536L251.117 150.174C251.288 150.913 251.65 151.47 252.204 151.847C252.758 152.223 253.479 152.411 254.367 152.411C255.283 152.411 256.018 152.223 256.572 151.847C257.133 151.47 257.414 151.005 257.414 150.451C257.414 149.982 257.232 149.595 256.87 149.29C256.515 148.984 255.961 148.75 255.208 148.587L252.417 148.001C250.847 147.674 249.686 147.124 248.933 146.349C248.181 145.568 247.808 144.581 247.815 143.388C247.808 142.379 248.081 141.506 248.635 140.767C249.196 140.021 249.974 139.446 250.968 139.041C251.97 138.629 253.124 138.423 254.431 138.423C256.348 138.423 257.857 138.832 258.958 139.648C260.066 140.465 260.752 141.57 261.014 142.962ZM277.479 142.962L273.964 143.345C273.864 142.99 273.69 142.656 273.442 142.344C273.2 142.031 272.873 141.779 272.461 141.587C272.05 141.396 271.545 141.3 270.949 141.3C270.146 141.3 269.471 141.474 268.925 141.822C268.385 142.17 268.118 142.621 268.126 143.175C268.118 143.651 268.292 144.038 268.648 144.336C269.01 144.634 269.606 144.879 270.437 145.071L273.229 145.668C274.777 146.001 275.927 146.531 276.68 147.255C277.44 147.979 277.824 148.928 277.831 150.099C277.824 151.129 277.522 152.038 276.925 152.827C276.336 153.608 275.515 154.219 274.464 154.659C273.413 155.099 272.206 155.32 270.842 155.32C268.839 155.32 267.227 154.901 266.006 154.062C264.784 153.217 264.056 152.042 263.822 150.536L267.582 150.174C267.753 150.913 268.115 151.47 268.669 151.847C269.223 152.223 269.944 152.411 270.831 152.411C271.748 152.411 272.483 152.223 273.037 151.847C273.598 151.47 273.878 151.005 273.878 150.451C273.878 149.982 273.697 149.595 273.335 149.29C272.98 148.984 272.426 148.75 271.673 148.587L268.882 148.001C267.312 147.674 266.151 147.124 265.398 146.349C264.645 145.568 264.273 144.581 264.28 143.388C264.273 142.379 264.546 141.506 265.1 140.767C265.661 140.021 266.439 139.446 267.433 139.041C268.434 138.629 269.589 138.423 270.895 138.423C272.813 138.423 274.322 138.832 275.423 139.648C276.531 140.465 277.216 141.57 277.479 142.962ZM281.011 155V138.636H284.867V155H281.011ZM282.95 136.314C282.339 136.314 281.813 136.112 281.373 135.707C280.933 135.295 280.713 134.801 280.713 134.226C280.713 133.643 280.933 133.15 281.373 132.745C281.813 132.333 282.339 132.127 282.95 132.127C283.568 132.127 284.093 132.333 284.526 132.745C284.967 133.15 285.187 133.643 285.187 134.226C285.187 134.801 284.967 135.295 284.526 135.707C284.093 136.112 283.568 136.314 282.95 136.314ZM295.971 155.32C294.373 155.32 292.988 154.968 291.816 154.265C290.644 153.562 289.735 152.578 289.089 151.314C288.45 150.05 288.13 148.572 288.13 146.882C288.13 145.192 288.45 143.711 289.089 142.44C289.735 141.168 290.644 140.181 291.816 139.478C292.988 138.775 294.373 138.423 295.971 138.423C297.569 138.423 298.954 138.775 300.126 139.478C301.298 140.181 302.203 141.168 302.842 142.44C303.489 143.711 303.812 145.192 303.812 146.882C303.812 148.572 303.489 150.05 302.842 151.314C302.203 152.578 301.298 153.562 300.126 154.265C298.954 154.968 297.569 155.32 295.971 155.32ZM295.992 152.23C296.859 152.23 297.583 151.992 298.165 151.516C298.748 151.033 299.181 150.387 299.465 149.577C299.756 148.768 299.902 147.866 299.902 146.871C299.902 145.87 299.756 144.964 299.465 144.155C299.181 143.338 298.748 142.688 298.165 142.205C297.583 141.722 296.859 141.481 295.992 141.481C295.104 141.481 294.366 141.722 293.776 142.205C293.194 142.688 292.757 143.338 292.466 144.155C292.182 144.964 292.04 145.87 292.04 146.871C292.04 147.866 292.182 148.768 292.466 149.577C292.757 150.387 293.194 151.033 293.776 151.516C294.366 151.992 295.104 152.23 295.992 152.23ZM310.942 145.412V155H307.085V138.636H310.771V141.417H310.963C311.339 140.501 311.939 139.773 312.763 139.233C313.594 138.693 314.621 138.423 315.842 138.423C316.971 138.423 317.955 138.665 318.793 139.148C319.638 139.631 320.292 140.33 320.753 141.246C321.222 142.163 321.453 143.274 321.446 144.581V155H317.589V145.178C317.589 144.084 317.305 143.228 316.737 142.61C316.176 141.992 315.398 141.683 314.404 141.683C313.729 141.683 313.129 141.832 312.604 142.131C312.085 142.422 311.677 142.844 311.378 143.398C311.087 143.952 310.942 144.624 310.942 145.412ZM338.3 142.962L334.784 143.345C334.684 142.99 334.51 142.656 334.262 142.344C334.02 142.031 333.694 141.779 333.282 141.587C332.87 141.396 332.366 141.3 331.769 141.3C330.966 141.3 330.292 141.474 329.745 141.822C329.205 142.17 328.939 142.621 328.946 143.175C328.939 143.651 329.113 144.038 329.468 144.336C329.83 144.634 330.427 144.879 331.258 145.071L334.049 145.668C335.597 146.001 336.748 146.531 337.501 147.255C338.26 147.979 338.644 148.928 338.651 150.099C338.644 151.129 338.342 152.038 337.746 152.827C337.156 153.608 336.336 154.219 335.285 154.659C334.233 155.099 333.026 155.32 331.662 155.32C329.66 155.32 328.047 154.901 326.826 154.062C325.604 153.217 324.876 152.042 324.642 150.536L328.403 150.174C328.573 150.913 328.935 151.47 329.489 151.847C330.043 152.223 330.764 152.411 331.652 152.411C332.568 152.411 333.303 152.223 333.857 151.847C334.418 151.47 334.699 151.005 334.699 150.451C334.699 149.982 334.518 149.595 334.155 149.29C333.8 148.984 333.246 148.75 332.493 148.587L329.702 148.001C328.133 147.674 326.971 147.124 326.219 146.349C325.466 145.568 325.093 144.581 325.1 143.388C325.093 142.379 325.366 141.506 325.92 140.767C326.481 140.021 327.259 139.446 328.253 139.041C329.255 138.629 330.409 138.423 331.716 138.423C333.633 138.423 335.143 138.832 336.243 139.648C337.351 140.465 338.037 141.57 338.3 142.962Z" fill="black"/>
<path d="M94.2992 176.909H95.8844V185.577C95.8844 186.472 95.6735 187.271 95.2516 187.974C94.834 188.673 94.2438 189.224 93.481 189.629C92.7182 190.03 91.8233 190.23 90.7963 190.23C89.7694 190.23 88.8745 190.03 88.1117 189.629C87.3489 189.224 86.7566 188.673 86.3347 187.974C85.9171 187.271 85.7083 186.472 85.7083 185.577V176.909H87.2935V185.449C87.2935 186.088 87.4341 186.657 87.7154 187.156C87.9966 187.65 88.3972 188.04 88.9171 188.325C89.4412 188.607 90.0676 188.747 90.7963 188.747C91.525 188.747 92.1515 188.607 92.6756 188.325C93.1998 188.04 93.6003 187.65 93.8773 187.156C94.1586 186.657 94.2992 186.088 94.2992 185.449V176.909ZM100.354 184.094V190H98.8455V180.182H100.303V181.716H100.431C100.661 181.217 101.01 180.817 101.479 180.514C101.948 180.207 102.553 180.054 103.294 180.054C103.959 180.054 104.541 180.19 105.039 180.463C105.538 180.732 105.926 181.141 106.203 181.69C106.48 182.236 106.618 182.926 106.618 183.761V190H105.11V183.864C105.11 183.092 104.909 182.491 104.509 182.061C104.108 181.626 103.559 181.409 102.86 181.409C102.378 181.409 101.948 181.513 101.569 181.722C101.194 181.931 100.897 182.236 100.68 182.636C100.463 183.037 100.354 183.523 100.354 184.094ZM113.645 180.182V181.46H108.557V180.182H113.645ZM110.04 177.83H111.548V187.188C111.548 187.614 111.61 187.933 111.733 188.146C111.861 188.355 112.023 188.496 112.219 188.568C112.42 188.636 112.631 188.67 112.852 188.67C113.018 188.67 113.155 188.662 113.261 188.645C113.368 188.624 113.453 188.607 113.517 188.594L113.824 189.949C113.721 189.987 113.579 190.026 113.395 190.064C113.212 190.107 112.98 190.128 112.699 190.128C112.273 190.128 111.855 190.036 111.446 189.853C111.041 189.67 110.704 189.391 110.436 189.016C110.172 188.641 110.04 188.168 110.04 187.597V177.83ZM115.914 190V180.182H117.422V190H115.914ZM116.681 178.545C116.387 178.545 116.133 178.445 115.92 178.245C115.711 178.045 115.607 177.804 115.607 177.523C115.607 177.241 115.711 177.001 115.92 176.8C116.133 176.6 116.387 176.5 116.681 176.5C116.975 176.5 117.226 176.6 117.435 176.8C117.648 177.001 117.755 177.241 117.755 177.523C117.755 177.804 117.648 178.045 117.435 178.245C117.226 178.445 116.975 178.545 116.681 178.545ZM124.302 190.205C123.356 190.205 122.54 189.996 121.854 189.578C121.172 189.156 120.646 188.568 120.275 187.814C119.908 187.055 119.725 186.173 119.725 185.168C119.725 184.162 119.908 183.276 120.275 182.509C120.646 181.737 121.161 181.136 121.822 180.706C122.487 180.271 123.262 180.054 124.148 180.054C124.66 180.054 125.165 180.139 125.663 180.31C126.162 180.48 126.616 180.757 127.025 181.141C127.434 181.52 127.76 182.023 128.003 182.649C128.246 183.276 128.367 184.047 128.367 184.963V185.602H120.799V184.298H126.833C126.833 183.744 126.722 183.25 126.501 182.815C126.283 182.381 125.972 182.038 125.567 181.786C125.167 181.535 124.694 181.409 124.148 181.409C123.548 181.409 123.028 181.558 122.589 181.857C122.154 182.151 121.82 182.534 121.585 183.007C121.351 183.48 121.234 183.987 121.234 184.528V185.398C121.234 186.139 121.362 186.768 121.617 187.283C121.877 187.795 122.237 188.185 122.697 188.453C123.158 188.717 123.692 188.849 124.302 188.849C124.698 188.849 125.056 188.794 125.376 188.683C125.7 188.568 125.979 188.398 126.213 188.172C126.447 187.942 126.629 187.656 126.756 187.315L128.214 187.724C128.06 188.219 127.803 188.653 127.44 189.028C127.078 189.399 126.631 189.689 126.098 189.898C125.565 190.102 124.967 190.205 124.302 190.205ZM134.369 190.205C133.551 190.205 132.829 189.998 132.202 189.585C131.576 189.167 131.086 188.579 130.732 187.82C130.379 187.058 130.202 186.156 130.202 185.116C130.202 184.085 130.379 183.19 130.732 182.432C131.086 181.673 131.578 181.087 132.209 180.674C132.839 180.261 133.568 180.054 134.395 180.054C135.034 180.054 135.539 180.161 135.91 180.374C136.285 180.582 136.57 180.821 136.766 181.089C136.967 181.354 137.122 181.571 137.233 181.741H137.361V176.909H138.869V190H137.412V188.491H137.233C137.122 188.67 136.964 188.896 136.76 189.169C136.555 189.437 136.263 189.678 135.884 189.891C135.505 190.1 135 190.205 134.369 190.205ZM134.574 188.849C135.179 188.849 135.69 188.692 136.108 188.376C136.526 188.057 136.843 187.616 137.06 187.053C137.278 186.487 137.386 185.832 137.386 185.091C137.386 184.358 137.28 183.717 137.067 183.167C136.854 182.613 136.538 182.183 136.121 181.876C135.703 181.565 135.188 181.409 134.574 181.409C133.935 181.409 133.402 181.573 132.976 181.901C132.554 182.225 132.237 182.666 132.023 183.224C131.815 183.778 131.71 184.401 131.71 185.091C131.71 185.79 131.817 186.425 132.03 186.996C132.247 187.562 132.567 188.014 132.989 188.351C133.415 188.683 133.943 188.849 134.574 188.849ZM149.487 190L145.907 176.909H147.518L150.254 187.571H150.381L153.168 176.909H154.958L157.745 187.571H157.873L160.609 176.909H162.219L158.64 190H157.004L154.114 179.568H154.012L151.123 190H149.487ZM167.065 190.205C166.178 190.205 165.401 189.994 164.732 189.572C164.067 189.15 163.547 188.56 163.172 187.801C162.801 187.043 162.616 186.156 162.616 185.142C162.616 184.119 162.801 183.227 163.172 182.464C163.547 181.701 164.067 181.109 164.732 180.687C165.401 180.265 166.178 180.054 167.065 180.054C167.951 180.054 168.727 180.265 169.391 180.687C170.06 181.109 170.58 181.701 170.951 182.464C171.326 183.227 171.513 184.119 171.513 185.142C171.513 186.156 171.326 187.043 170.951 187.801C170.58 188.56 170.06 189.15 169.391 189.572C168.727 189.994 167.951 190.205 167.065 190.205ZM167.065 188.849C167.738 188.849 168.292 188.677 168.727 188.332C169.161 187.987 169.483 187.533 169.692 186.97C169.901 186.408 170.005 185.798 170.005 185.142C170.005 184.486 169.901 183.874 169.692 183.308C169.483 182.741 169.161 182.283 168.727 181.933C168.292 181.584 167.738 181.409 167.065 181.409C166.391 181.409 165.837 181.584 165.403 181.933C164.968 182.283 164.646 182.741 164.438 183.308C164.229 183.874 164.124 184.486 164.124 185.142C164.124 185.798 164.229 186.408 164.438 186.97C164.646 187.533 164.968 187.987 165.403 188.332C165.837 188.677 166.391 188.849 167.065 188.849ZM173.816 190V180.182H175.274V181.665H175.376C175.555 181.179 175.879 180.785 176.347 180.482C176.816 180.18 177.345 180.028 177.933 180.028C178.044 180.028 178.182 180.031 178.348 180.035C178.514 180.039 178.64 180.045 178.725 180.054V181.588C178.674 181.575 178.557 181.556 178.374 181.531C178.195 181.501 178.005 181.486 177.805 181.486C177.328 181.486 176.901 181.586 176.526 181.786C176.156 181.982 175.862 182.255 175.644 182.604C175.431 182.95 175.325 183.344 175.325 183.787V190H173.816ZM182.022 176.909V190H180.513V176.909H182.022ZM188.492 190.205C187.674 190.205 186.952 189.998 186.325 189.585C185.699 189.167 185.209 188.579 184.855 187.82C184.502 187.058 184.325 186.156 184.325 185.116C184.325 184.085 184.502 183.19 184.855 182.432C185.209 181.673 185.701 181.087 186.332 180.674C186.963 180.261 187.691 180.054 188.518 180.054C189.157 180.054 189.662 180.161 190.033 180.374C190.408 180.582 190.693 180.821 190.889 181.089C191.09 181.354 191.245 181.571 191.356 181.741H191.484V176.909H192.992V190H191.535V188.491H191.356C191.245 188.67 191.088 188.896 190.883 189.169C190.678 189.437 190.387 189.678 190.007 189.891C189.628 190.1 189.123 190.205 188.492 190.205ZM188.697 188.849C189.302 188.849 189.813 188.692 190.231 188.376C190.649 188.057 190.966 187.616 191.183 187.053C191.401 186.487 191.509 185.832 191.509 185.091C191.509 184.358 191.403 183.717 191.19 183.167C190.977 182.613 190.661 182.183 190.244 181.876C189.826 181.565 189.311 181.409 188.697 181.409C188.058 181.409 187.525 181.573 187.099 181.901C186.677 182.225 186.36 182.666 186.146 183.224C185.938 183.778 185.833 184.401 185.833 185.091C185.833 185.79 185.94 186.425 186.153 186.996C186.37 187.562 186.69 188.014 187.112 188.351C187.538 188.683 188.066 188.849 188.697 188.849ZM201.027 190V180.182H202.536V190H201.027ZM201.794 178.545C201.5 178.545 201.247 178.445 201.034 178.245C200.825 178.045 200.72 177.804 200.72 177.523C200.72 177.241 200.825 177.001 201.034 176.8C201.247 176.6 201.5 176.5 201.794 176.5C202.088 176.5 202.34 176.6 202.548 176.8C202.762 177.001 202.868 177.241 202.868 177.523C202.868 177.804 202.762 178.045 202.548 178.245C202.34 178.445 202.088 178.545 201.794 178.545ZM212.253 182.381L210.898 182.764C210.813 182.538 210.687 182.319 210.521 182.106C210.359 181.888 210.137 181.71 209.856 181.569C209.575 181.428 209.215 181.358 208.776 181.358C208.175 181.358 207.674 181.496 207.274 181.773C206.877 182.046 206.679 182.393 206.679 182.815C206.679 183.19 206.816 183.487 207.088 183.704C207.361 183.921 207.787 184.102 208.367 184.247L209.824 184.605C210.702 184.818 211.356 185.144 211.787 185.583C212.217 186.018 212.432 186.578 212.432 187.264C212.432 187.827 212.27 188.33 211.946 188.773C211.627 189.216 211.179 189.565 210.604 189.821C210.029 190.077 209.36 190.205 208.597 190.205C207.596 190.205 206.767 189.987 206.11 189.553C205.454 189.118 205.039 188.483 204.864 187.648L206.296 187.29C206.432 187.818 206.69 188.214 207.069 188.479C207.453 188.743 207.953 188.875 208.571 188.875C209.275 188.875 209.833 188.726 210.246 188.428C210.664 188.125 210.873 187.763 210.873 187.341C210.873 187 210.753 186.714 210.515 186.484C210.276 186.25 209.909 186.075 209.415 185.96L207.779 185.577C206.88 185.364 206.219 185.033 205.797 184.586C205.38 184.134 205.171 183.57 205.171 182.892C205.171 182.338 205.326 181.848 205.637 181.422C205.953 180.996 206.381 180.661 206.922 180.418C207.468 180.175 208.086 180.054 208.776 180.054C209.748 180.054 210.51 180.267 211.064 180.693C211.623 181.119 212.019 181.682 212.253 182.381ZM219.765 190V180.182H221.223V181.665H221.325C221.504 181.179 221.828 180.785 222.297 180.482C222.765 180.18 223.294 180.028 223.882 180.028C223.993 180.028 224.131 180.031 224.297 180.035C224.464 180.039 224.589 180.045 224.675 180.054V181.588C224.623 181.575 224.506 181.556 224.323 181.531C224.144 181.501 223.954 181.486 223.754 181.486C223.277 181.486 222.851 181.586 222.476 181.786C222.105 181.982 221.811 182.255 221.594 182.604C221.381 182.95 221.274 183.344 221.274 183.787V190H219.765ZM230.28 190.205C229.334 190.205 228.518 189.996 227.832 189.578C227.15 189.156 226.624 188.568 226.253 187.814C225.887 187.055 225.704 186.173 225.704 185.168C225.704 184.162 225.887 183.276 226.253 182.509C226.624 181.737 227.14 181.136 227.8 180.706C228.465 180.271 229.241 180.054 230.127 180.054C230.638 180.054 231.143 180.139 231.642 180.31C232.14 180.48 232.594 180.757 233.003 181.141C233.412 181.52 233.738 182.023 233.981 182.649C234.224 183.276 234.346 184.047 234.346 184.963V185.602H226.778V184.298H232.812C232.812 183.744 232.701 183.25 232.479 182.815C232.262 182.381 231.951 182.038 231.546 181.786C231.145 181.535 230.672 181.409 230.127 181.409C229.526 181.409 229.006 181.558 228.567 181.857C228.133 182.151 227.798 182.534 227.564 183.007C227.329 183.48 227.212 183.987 227.212 184.528V185.398C227.212 186.139 227.34 186.768 227.596 187.283C227.856 187.795 228.216 188.185 228.676 188.453C229.136 188.717 229.671 188.849 230.28 188.849C230.677 188.849 231.035 188.794 231.354 188.683C231.678 188.568 231.957 188.398 232.192 188.172C232.426 187.942 232.607 187.656 232.735 187.315L234.192 187.724C234.039 188.219 233.781 188.653 233.419 189.028C233.057 189.399 232.609 189.689 232.077 189.898C231.544 190.102 230.945 190.205 230.28 190.205ZM243.339 193.682V188.491H243.211C243.101 188.67 242.943 188.896 242.738 189.169C242.534 189.437 242.242 189.678 241.863 189.891C241.483 190.1 240.979 190.205 240.348 190.205C239.53 190.205 238.807 189.998 238.181 189.585C237.555 189.167 237.064 188.579 236.711 187.82C236.357 187.058 236.18 186.156 236.18 185.116C236.18 184.085 236.357 183.19 236.711 182.432C237.064 181.673 237.557 181.087 238.187 180.674C238.818 180.261 239.547 180.054 240.373 180.054C241.013 180.054 241.518 180.161 241.888 180.374C242.263 180.582 242.549 180.821 242.745 181.089C242.945 181.354 243.101 181.571 243.211 181.741H243.39V180.182H244.848V193.682H243.339ZM240.552 188.849C241.157 188.849 241.669 188.692 242.086 188.376C242.504 188.057 242.822 187.616 243.039 187.053C243.256 186.487 243.365 185.832 243.365 185.091C243.365 184.358 243.258 183.717 243.045 183.167C242.832 182.613 242.517 182.183 242.099 181.876C241.682 181.565 241.166 181.409 240.552 181.409C239.913 181.409 239.381 181.573 238.954 181.901C238.532 182.225 238.215 182.666 238.002 183.224C237.793 183.778 237.689 184.401 237.689 185.091C237.689 185.79 237.795 186.425 238.008 186.996C238.226 187.562 238.545 188.014 238.967 188.351C239.393 188.683 239.922 188.849 240.552 188.849ZM253.797 185.986V180.182H255.305V190H253.797V188.338H253.694C253.464 188.837 253.106 189.261 252.621 189.61C252.135 189.955 251.521 190.128 250.78 190.128C250.166 190.128 249.621 189.994 249.143 189.725C248.666 189.452 248.291 189.043 248.018 188.498C247.746 187.948 247.609 187.256 247.609 186.42V180.182H249.118V186.318C249.118 187.034 249.318 187.605 249.719 188.031C250.123 188.457 250.639 188.67 251.265 188.67C251.64 188.67 252.022 188.575 252.41 188.383C252.802 188.191 253.13 187.897 253.394 187.501C253.662 187.104 253.797 186.599 253.797 185.986ZM262.185 190.205C261.239 190.205 260.423 189.996 259.737 189.578C259.055 189.156 258.528 188.568 258.158 187.814C257.791 187.055 257.608 186.173 257.608 185.168C257.608 184.162 257.791 183.276 258.158 182.509C258.528 181.737 259.044 181.136 259.705 180.706C260.369 180.271 261.145 180.054 262.031 180.054C262.543 180.054 263.048 180.139 263.546 180.31C264.045 180.48 264.499 180.757 264.908 181.141C265.317 181.52 265.643 182.023 265.886 182.649C266.129 183.276 266.25 184.047 266.25 184.963V185.602H258.682V184.298H264.716C264.716 183.744 264.605 183.25 264.384 182.815C264.166 182.381 263.855 182.038 263.45 181.786C263.05 181.535 262.577 181.409 262.031 181.409C261.43 181.409 260.911 181.558 260.472 181.857C260.037 182.151 259.702 182.534 259.468 183.007C259.234 183.48 259.116 183.987 259.116 184.528V185.398C259.116 186.139 259.244 186.768 259.5 187.283C259.76 187.795 260.12 188.185 260.58 188.453C261.04 188.717 261.575 188.849 262.185 188.849C262.581 188.849 262.939 188.794 263.259 188.683C263.582 188.568 263.862 188.398 264.096 188.172C264.33 187.942 264.511 187.656 264.639 187.315L266.097 187.724C265.943 188.219 265.685 188.653 265.323 189.028C264.961 189.399 264.513 189.689 263.981 189.898C263.448 190.102 262.849 190.205 262.185 190.205ZM275.499 182.381L274.144 182.764C274.059 182.538 273.933 182.319 273.767 182.106C273.605 181.888 273.384 181.71 273.102 181.569C272.821 181.428 272.461 181.358 272.022 181.358C271.421 181.358 270.92 181.496 270.52 181.773C270.124 182.046 269.925 182.393 269.925 182.815C269.925 183.19 270.062 183.487 270.335 183.704C270.607 183.921 271.033 184.102 271.613 184.247L273.07 184.605C273.948 184.818 274.602 185.144 275.033 185.583C275.463 186.018 275.678 186.578 275.678 187.264C275.678 187.827 275.516 188.33 275.192 188.773C274.873 189.216 274.425 189.565 273.85 189.821C273.275 190.077 272.606 190.205 271.843 190.205C270.842 190.205 270.013 189.987 269.357 189.553C268.7 189.118 268.285 188.483 268.11 187.648L269.542 187.29C269.678 187.818 269.936 188.214 270.315 188.479C270.699 188.743 271.2 188.875 271.817 188.875C272.521 188.875 273.079 188.726 273.492 188.428C273.91 188.125 274.119 187.763 274.119 187.341C274.119 187 273.999 186.714 273.761 186.484C273.522 186.25 273.156 186.075 272.661 185.96L271.025 185.577C270.126 185.364 269.465 185.033 269.043 184.586C268.626 184.134 268.417 183.57 268.417 182.892C268.417 182.338 268.572 181.848 268.884 181.422C269.199 180.996 269.627 180.661 270.168 180.418C270.714 180.175 271.332 180.054 272.022 180.054C272.994 180.054 273.756 180.267 274.31 180.693C274.869 181.119 275.265 181.682 275.499 182.381ZM282.219 180.182V181.46H277.131V180.182H282.219ZM278.614 177.83H280.122V187.188C280.122 187.614 280.184 187.933 280.308 188.146C280.436 188.355 280.597 188.496 280.794 188.568C280.994 188.636 281.205 188.67 281.426 188.67C281.593 188.67 281.729 188.662 281.835 188.645C281.942 188.624 282.027 188.607 282.091 188.594L282.398 189.949C282.296 189.987 282.153 190.026 281.97 190.064C281.786 190.107 281.554 190.128 281.273 190.128C280.847 190.128 280.429 190.036 280.02 189.853C279.615 189.67 279.279 189.391 279.01 189.016C278.746 188.641 278.614 188.168 278.614 187.597V177.83ZM284.488 190V180.182H285.997V190H284.488ZM285.255 178.545C284.961 178.545 284.708 178.445 284.494 178.245C284.286 178.045 284.181 177.804 284.181 177.523C284.181 177.241 284.286 177.001 284.494 176.8C284.708 176.6 284.961 176.5 285.255 176.5C285.549 176.5 285.801 176.6 286.009 176.8C286.222 177.001 286.329 177.241 286.329 177.523C286.329 177.804 286.222 178.045 286.009 178.245C285.801 178.445 285.549 178.545 285.255 178.545ZM290.268 184.094V190H288.76V180.182H290.217V181.716H290.345C290.575 181.217 290.924 180.817 291.393 180.514C291.862 180.207 292.467 180.054 293.208 180.054C293.873 180.054 294.455 180.19 294.953 180.463C295.452 180.732 295.84 181.141 296.117 181.69C296.394 182.236 296.532 182.926 296.532 183.761V190H295.024V183.864C295.024 183.092 294.824 182.491 294.423 182.061C294.022 181.626 293.473 181.409 292.774 181.409C292.292 181.409 291.862 181.513 291.483 181.722C291.108 181.931 290.811 182.236 290.594 182.636C290.377 183.037 290.268 183.523 290.268 184.094ZM303.252 193.886C302.523 193.886 301.897 193.793 301.373 193.605C300.849 193.422 300.412 193.179 300.062 192.876C299.717 192.578 299.442 192.259 299.238 191.918L300.439 191.074C300.576 191.253 300.748 191.457 300.957 191.688C301.166 191.922 301.452 192.124 301.814 192.295C302.18 192.469 302.66 192.557 303.252 192.557C304.045 192.557 304.699 192.365 305.214 191.982C305.73 191.598 305.988 190.997 305.988 190.179V188.185H305.86C305.749 188.364 305.591 188.585 305.387 188.849C305.187 189.109 304.897 189.342 304.518 189.546C304.143 189.746 303.635 189.847 302.996 189.847C302.204 189.847 301.492 189.659 300.861 189.284C300.235 188.909 299.738 188.364 299.372 187.648C299.01 186.932 298.829 186.062 298.829 185.04C298.829 184.034 299.006 183.158 299.359 182.413C299.713 181.663 300.205 181.083 300.836 180.674C301.466 180.261 302.195 180.054 303.022 180.054C303.661 180.054 304.168 180.161 304.543 180.374C304.922 180.582 305.212 180.821 305.412 181.089C305.617 181.354 305.775 181.571 305.885 181.741H306.039V180.182H307.496V190.281C307.496 191.125 307.305 191.811 306.921 192.339C306.542 192.872 306.03 193.262 305.387 193.509C304.748 193.761 304.036 193.886 303.252 193.886ZM303.201 188.491C303.806 188.491 304.317 188.353 304.735 188.076C305.153 187.799 305.47 187.401 305.687 186.881C305.905 186.361 306.013 185.739 306.013 185.014C306.013 184.307 305.907 183.683 305.694 183.141C305.481 182.6 305.165 182.176 304.748 181.869C304.33 181.562 303.814 181.409 303.201 181.409C302.562 181.409 302.029 181.571 301.603 181.895C301.181 182.219 300.863 182.653 300.65 183.199C300.442 183.744 300.337 184.349 300.337 185.014C300.337 185.696 300.444 186.299 300.657 186.823C300.874 187.343 301.194 187.752 301.616 188.05C302.042 188.344 302.57 188.491 303.201 188.491ZM59.3738 223.682V210.182H60.8312V211.741H61.0102C61.121 211.571 61.2744 211.354 61.4704 211.089C61.6707 210.821 61.9562 210.582 62.327 210.374C62.702 210.161 63.2091 210.054 63.8483 210.054C64.675 210.054 65.4037 210.261 66.0344 210.674C66.665 211.087 67.1572 211.673 67.5109 212.432C67.8646 213.19 68.0415 214.085 68.0415 215.116C68.0415 216.156 67.8646 217.058 67.5109 217.82C67.1572 218.579 66.6672 219.167 66.0407 219.585C65.4143 219.998 64.692 220.205 63.8738 220.205C63.2432 220.205 62.7382 220.1 62.3589 219.891C61.9797 219.678 61.6878 219.437 61.4832 219.169C61.2787 218.896 61.121 218.67 61.0102 218.491H60.8824V223.682H59.3738ZM60.8568 215.091C60.8568 215.832 60.9655 216.487 61.1828 217.053C61.4001 217.616 61.7176 218.057 62.1352 218.376C62.5528 218.692 63.0642 218.849 63.6693 218.849C64.3 218.849 64.8263 218.683 65.2481 218.351C65.6743 218.014 65.9939 217.562 66.2069 216.996C66.4243 216.425 66.5329 215.79 66.5329 215.091C66.5329 214.401 66.4264 213.778 66.2133 213.224C66.0045 212.666 65.6871 212.225 65.2609 211.901C64.839 211.573 64.3085 211.409 63.6693 211.409C63.0557 211.409 62.54 211.565 62.1224 211.876C61.7048 212.183 61.3895 212.613 61.1764 213.167C60.9633 213.717 60.8568 214.358 60.8568 215.091ZM74.4591 220.205C73.5131 220.205 72.697 219.996 72.0109 219.578C71.3291 219.156 70.8028 218.568 70.4321 217.814C70.0656 217.055 69.8824 216.173 69.8824 215.168C69.8824 214.162 70.0656 213.276 70.4321 212.509C70.8028 211.737 71.3184 211.136 71.979 210.706C72.6437 210.271 73.4193 210.054 74.3057 210.054C74.817 210.054 75.322 210.139 75.8206 210.31C76.3192 210.48 76.773 210.757 77.1821 211.141C77.5912 211.52 77.9172 212.023 78.1601 212.649C78.403 213.276 78.5244 214.047 78.5244 214.963V215.602H70.9562V214.298H76.9903C76.9903 213.744 76.8795 213.25 76.6579 212.815C76.4406 212.381 76.1295 212.038 75.7247 211.786C75.3241 211.535 74.8511 211.409 74.3057 211.409C73.7048 211.409 73.1849 211.558 72.746 211.857C72.3113 212.151 71.9768 212.534 71.7425 213.007C71.5081 213.48 71.3909 213.987 71.3909 214.528V215.398C71.3909 216.139 71.5187 216.768 71.7744 217.283C72.0344 217.795 72.3944 218.185 72.8547 218.453C73.3149 218.717 73.8497 218.849 74.4591 218.849C74.8554 218.849 75.2133 218.794 75.5329 218.683C75.8568 218.568 76.1359 218.398 76.3703 218.172C76.6047 217.942 76.7858 217.656 76.9136 217.315L78.371 217.724C78.2176 218.219 77.9598 218.653 77.5976 219.028C77.2354 219.399 76.7879 219.689 76.2552 219.898C75.7226 220.102 75.1238 220.205 74.4591 220.205ZM80.8192 220V210.182H82.2765V211.665H82.3788C82.5578 211.179 82.8817 210.785 83.3504 210.482C83.8192 210.18 84.3476 210.028 84.9356 210.028C85.0464 210.028 85.1849 210.031 85.3511 210.035C85.5173 210.039 85.643 210.045 85.7282 210.054V211.588C85.6771 211.575 85.5599 211.556 85.3767 211.531C85.1977 211.501 85.0081 211.486 84.8078 211.486C84.3305 211.486 83.9044 211.586 83.5294 211.786C83.1586 211.982 82.8646 212.255 82.6473 212.604C82.4342 212.95 82.3277 213.344 82.3277 213.787V220H80.8192ZM87.5164 220V210.182H88.9738V211.716H89.1017C89.3062 211.192 89.6365 210.785 90.0924 210.495C90.5484 210.201 91.096 210.054 91.7352 210.054C92.3829 210.054 92.922 210.201 93.3524 210.495C93.787 210.785 94.1258 211.192 94.3687 211.716H94.471C94.7224 211.209 95.0995 210.806 95.6024 210.508C96.1052 210.205 96.7082 210.054 97.4113 210.054C98.2892 210.054 99.0072 210.329 99.5654 210.879C100.124 211.424 100.403 212.274 100.403 213.429V220H98.8943V213.429C98.8943 212.705 98.6961 212.187 98.2998 211.876C97.9035 211.565 97.4369 211.409 96.8999 211.409C96.2096 211.409 95.6748 211.618 95.2955 212.036C94.9163 212.449 94.7267 212.973 94.7267 213.608V220H93.1926V213.276C93.1926 212.717 93.0115 212.268 92.6492 211.927C92.287 211.582 91.8204 211.409 91.2494 211.409C90.8573 211.409 90.4909 211.513 90.1499 211.722C89.8133 211.931 89.5406 212.221 89.3318 212.592C89.1272 212.958 89.0249 213.382 89.0249 213.864V220H87.5164ZM103.161 220V210.182H104.669V220H103.161ZM103.928 208.545C103.634 208.545 103.38 208.445 103.167 208.245C102.959 208.045 102.854 207.804 102.854 207.523C102.854 207.241 102.959 207.001 103.167 206.8C103.38 206.6 103.634 206.5 103.928 206.5C104.222 206.5 104.473 206.6 104.682 206.8C104.895 207.001 105.002 207.241 105.002 207.523C105.002 207.804 104.895 208.045 104.682 208.245C104.473 208.445 104.222 208.545 103.928 208.545ZM114.387 212.381L113.032 212.764C112.947 212.538 112.821 212.319 112.655 212.106C112.493 211.888 112.271 211.71 111.99 211.569C111.709 211.428 111.349 211.358 110.91 211.358C110.309 211.358 109.808 211.496 109.408 211.773C109.011 212.046 108.813 212.393 108.813 212.815C108.813 213.19 108.949 213.487 109.222 213.704C109.495 213.921 109.921 214.102 110.501 214.247L111.958 214.605C112.836 214.818 113.49 215.144 113.92 215.583C114.351 216.018 114.566 216.578 114.566 217.264C114.566 217.827 114.404 218.33 114.08 218.773C113.761 219.216 113.313 219.565 112.738 219.821C112.163 220.077 111.494 220.205 110.731 220.205C109.729 220.205 108.9 219.987 108.244 219.553C107.588 219.118 107.172 218.483 106.998 217.648L108.43 217.29C108.566 217.818 108.824 218.214 109.203 218.479C109.587 218.743 110.087 218.875 110.705 218.875C111.408 218.875 111.967 218.726 112.38 218.428C112.797 218.125 113.006 217.763 113.006 217.341C113.006 217 112.887 216.714 112.648 216.484C112.41 216.25 112.043 216.075 111.549 215.96L109.913 215.577C109.013 215.364 108.353 215.033 107.931 214.586C107.513 214.134 107.305 213.57 107.305 212.892C107.305 212.338 107.46 211.848 107.771 211.422C108.087 210.996 108.515 210.661 109.056 210.418C109.601 210.175 110.219 210.054 110.91 210.054C111.881 210.054 112.644 210.267 113.198 210.693C113.756 211.119 114.153 211.682 114.387 212.381ZM123.791 212.381L122.436 212.764C122.351 212.538 122.225 212.319 122.059 212.106C121.897 211.888 121.676 211.71 121.394 211.569C121.113 211.428 120.753 211.358 120.314 211.358C119.713 211.358 119.212 211.496 118.812 211.773C118.416 212.046 118.217 212.393 118.217 212.815C118.217 213.19 118.354 213.487 118.627 213.704C118.899 213.921 119.325 214.102 119.905 214.247L121.362 214.605C122.24 214.818 122.894 215.144 123.325 215.583C123.755 216.018 123.97 216.578 123.97 217.264C123.97 217.827 123.808 218.33 123.484 218.773C123.165 219.216 122.717 219.565 122.142 219.821C121.567 220.077 120.898 220.205 120.135 220.205C119.134 220.205 118.305 219.987 117.649 219.553C116.992 219.118 116.577 218.483 116.402 217.648L117.834 217.29C117.97 217.818 118.228 218.214 118.607 218.479C118.991 218.743 119.492 218.875 120.109 218.875C120.813 218.875 121.371 218.726 121.784 218.428C122.202 218.125 122.411 217.763 122.411 217.341C122.411 217 122.291 216.714 122.053 216.484C121.814 216.25 121.448 216.075 120.953 215.96L119.317 215.577C118.418 215.364 117.757 215.033 117.335 214.586C116.918 214.134 116.709 213.57 116.709 212.892C116.709 212.338 116.864 211.848 117.176 211.422C117.491 210.996 117.919 210.661 118.46 210.418C119.006 210.175 119.624 210.054 120.314 210.054C121.286 210.054 122.048 210.267 122.602 210.693C123.161 211.119 123.557 211.682 123.791 212.381ZM126.241 220V210.182H127.75V220H126.241ZM127.008 208.545C126.714 208.545 126.46 208.445 126.247 208.245C126.039 208.045 125.934 207.804 125.934 207.523C125.934 207.241 126.039 207.001 126.247 206.8C126.46 206.6 126.714 206.5 127.008 206.5C127.302 206.5 127.554 206.6 127.762 206.8C127.975 207.001 128.082 207.241 128.082 207.523C128.082 207.804 127.975 208.045 127.762 208.245C127.554 208.445 127.302 208.545 127.008 208.545ZM134.501 220.205C133.615 220.205 132.837 219.994 132.168 219.572C131.503 219.15 130.983 218.56 130.608 217.801C130.238 217.043 130.052 216.156 130.052 215.142C130.052 214.119 130.238 213.227 130.608 212.464C130.983 211.701 131.503 211.109 132.168 210.687C132.837 210.265 133.615 210.054 134.501 210.054C135.388 210.054 136.163 210.265 136.828 210.687C137.497 211.109 138.017 211.701 138.388 212.464C138.763 213.227 138.95 214.119 138.95 215.142C138.95 216.156 138.763 217.043 138.388 217.801C138.017 218.56 137.497 219.15 136.828 219.572C136.163 219.994 135.388 220.205 134.501 220.205ZM134.501 218.849C135.174 218.849 135.728 218.677 136.163 218.332C136.598 217.987 136.919 217.533 137.128 216.97C137.337 216.408 137.441 215.798 137.441 215.142C137.441 214.486 137.337 213.874 137.128 213.308C136.919 212.741 136.598 212.283 136.163 211.933C135.728 211.584 135.174 211.409 134.501 211.409C133.828 211.409 133.274 211.584 132.839 211.933C132.405 212.283 132.083 212.741 131.874 213.308C131.665 213.874 131.561 214.486 131.561 215.142C131.561 215.798 131.665 216.408 131.874 216.97C132.083 217.533 132.405 217.987 132.839 218.332C133.274 218.677 133.828 218.849 134.501 218.849ZM142.761 214.094V220H141.253V210.182H142.71V211.716H142.838C143.068 211.217 143.418 210.817 143.886 210.514C144.355 210.207 144.96 210.054 145.702 210.054C146.366 210.054 146.948 210.19 147.447 210.463C147.945 210.732 148.333 211.141 148.61 211.69C148.887 212.236 149.025 212.926 149.025 213.761V220H147.517V213.864C147.517 213.092 147.317 212.491 146.916 212.061C146.516 211.626 145.966 211.409 145.267 211.409C144.785 211.409 144.355 211.513 143.976 211.722C143.601 211.931 143.305 212.236 143.087 212.636C142.87 213.037 142.761 213.523 142.761 214.094ZM161.114 210.182V211.46H156.026V210.182H161.114ZM157.509 207.83H159.018V217.188C159.018 217.614 159.08 217.933 159.203 218.146C159.331 218.355 159.493 218.496 159.689 218.568C159.889 218.636 160.1 218.67 160.322 218.67C160.488 218.67 160.624 218.662 160.731 218.645C160.837 218.624 160.923 218.607 160.987 218.594L161.293 219.949C161.191 219.987 161.048 220.026 160.865 220.064C160.682 220.107 160.45 220.128 160.168 220.128C159.742 220.128 159.325 220.036 158.916 219.853C158.511 219.67 158.174 219.391 157.906 219.016C157.641 218.641 157.509 218.168 157.509 217.597V207.83ZM167.267 220.205C166.38 220.205 165.603 219.994 164.934 219.572C164.269 219.15 163.749 218.56 163.374 217.801C163.003 217.043 162.818 216.156 162.818 215.142C162.818 214.119 163.003 213.227 163.374 212.464C163.749 211.701 164.269 211.109 164.934 210.687C165.603 210.265 166.38 210.054 167.267 210.054C168.153 210.054 168.929 210.265 169.593 210.687C170.263 211.109 170.782 211.701 171.153 212.464C171.528 213.227 171.716 214.119 171.716 215.142C171.716 216.156 171.528 217.043 171.153 217.801C170.782 218.56 170.263 219.15 169.593 219.572C168.929 219.994 168.153 220.205 167.267 220.205ZM167.267 218.849C167.94 218.849 168.494 218.677 168.929 218.332C169.363 217.987 169.685 217.533 169.894 216.97C170.103 216.408 170.207 215.798 170.207 215.142C170.207 214.486 170.103 213.874 169.894 213.308C169.685 212.741 169.363 212.283 168.929 211.933C168.494 211.584 167.94 211.409 167.267 211.409C166.593 211.409 166.04 211.584 165.605 211.933C165.17 212.283 164.848 212.741 164.64 213.308C164.431 213.874 164.326 214.486 164.326 215.142C164.326 215.798 164.431 216.408 164.64 216.97C164.848 217.533 165.17 217.987 165.605 218.332C166.04 218.677 166.593 218.849 167.267 218.849ZM179.081 220V210.182H180.538V211.665H180.641C180.82 211.179 181.143 210.785 181.612 210.482C182.081 210.18 182.609 210.028 183.197 210.028C183.308 210.028 183.447 210.031 183.613 210.035C183.779 210.039 183.905 210.045 183.99 210.054V211.588C183.939 211.575 183.822 211.556 183.638 211.531C183.459 211.501 183.27 211.486 183.07 211.486C182.592 211.486 182.166 211.586 181.791 211.786C181.42 211.982 181.126 212.255 180.909 212.604C180.696 212.95 180.589 213.344 180.589 213.787V220H179.081ZM189.596 220.205C188.65 220.205 187.834 219.996 187.148 219.578C186.466 219.156 185.94 218.568 185.569 217.814C185.202 217.055 185.019 216.173 185.019 215.168C185.019 214.162 185.202 213.276 185.569 212.509C185.94 211.737 186.455 211.136 187.116 210.706C187.78 210.271 188.556 210.054 189.442 210.054C189.954 210.054 190.459 210.139 190.957 210.31C191.456 210.48 191.91 210.757 192.319 211.141C192.728 211.52 193.054 212.023 193.297 212.649C193.54 213.276 193.661 214.047 193.661 214.963V215.602H186.093V214.298H192.127C192.127 213.744 192.016 213.25 191.795 212.815C191.577 212.381 191.266 212.038 190.861 211.786C190.461 211.535 189.988 211.409 189.442 211.409C188.842 211.409 188.322 211.558 187.883 211.857C187.448 212.151 187.114 212.534 186.879 213.007C186.645 213.48 186.528 213.987 186.528 214.528V215.398C186.528 216.139 186.655 216.768 186.911 217.283C187.171 217.795 187.531 218.185 187.991 218.453C188.452 218.717 188.986 218.849 189.596 218.849C189.992 218.849 190.35 218.794 190.67 218.683C190.994 218.568 191.273 218.398 191.507 218.172C191.741 217.942 191.922 217.656 192.05 217.315L193.508 217.724C193.354 218.219 193.097 218.653 192.734 219.028C192.372 219.399 191.925 219.689 191.392 219.898C190.859 220.102 190.261 220.205 189.596 220.205ZM198.845 220.23C198.223 220.23 197.658 220.113 197.151 219.879C196.644 219.64 196.241 219.297 195.943 218.849C195.645 218.398 195.496 217.852 195.496 217.213C195.496 216.651 195.606 216.195 195.828 215.845C196.05 215.491 196.346 215.214 196.717 215.014C197.087 214.814 197.496 214.665 197.944 214.567C198.396 214.464 198.849 214.384 199.305 214.324C199.902 214.247 200.386 214.19 200.756 214.151C201.131 214.109 201.404 214.038 201.574 213.94C201.749 213.842 201.837 213.672 201.837 213.429V213.378C201.837 212.747 201.664 212.257 201.319 211.908C200.978 211.558 200.46 211.384 199.766 211.384C199.045 211.384 198.481 211.541 198.072 211.857C197.663 212.172 197.375 212.509 197.209 212.866L195.777 212.355C196.033 211.759 196.373 211.294 196.8 210.962C197.23 210.625 197.699 210.391 198.206 210.259C198.717 210.122 199.22 210.054 199.714 210.054C200.03 210.054 200.392 210.092 200.801 210.169C201.214 210.241 201.613 210.393 201.996 210.623C202.384 210.853 202.706 211.2 202.962 211.665C203.217 212.129 203.345 212.751 203.345 213.531V220H201.837V218.67H201.76C201.658 218.884 201.487 219.112 201.248 219.354C201.01 219.597 200.692 219.804 200.296 219.974C199.9 220.145 199.416 220.23 198.845 220.23ZM199.075 218.875C199.672 218.875 200.175 218.758 200.584 218.523C200.997 218.289 201.308 217.987 201.517 217.616C201.73 217.245 201.837 216.855 201.837 216.446V215.065C201.773 215.142 201.632 215.212 201.415 215.276C201.202 215.336 200.954 215.389 200.673 215.436C200.396 215.479 200.126 215.517 199.861 215.551C199.601 215.581 199.391 215.607 199.229 215.628C198.837 215.679 198.47 215.762 198.129 215.877C197.793 215.988 197.52 216.156 197.311 216.382C197.106 216.604 197.004 216.906 197.004 217.29C197.004 217.814 197.198 218.21 197.586 218.479C197.978 218.743 198.474 218.875 199.075 218.875ZM209.806 220.205C208.988 220.205 208.265 219.998 207.639 219.585C207.013 219.167 206.522 218.579 206.169 217.82C205.815 217.058 205.638 216.156 205.638 215.116C205.638 214.085 205.815 213.19 206.169 212.432C206.522 211.673 207.015 211.087 207.645 210.674C208.276 210.261 209.005 210.054 209.831 210.054C210.471 210.054 210.976 210.161 211.346 210.374C211.721 210.582 212.007 210.821 212.203 211.089C212.403 211.354 212.559 211.571 212.669 211.741H212.797V206.909H214.306V220H212.848V218.491H212.669C212.559 218.67 212.401 218.896 212.196 219.169C211.992 219.437 211.7 219.678 211.321 219.891C210.941 220.1 210.437 220.205 209.806 220.205ZM210.01 218.849C210.616 218.849 211.127 218.692 211.544 218.376C211.962 218.057 212.28 217.616 212.497 217.053C212.714 216.487 212.823 215.832 212.823 215.091C212.823 214.358 212.716 213.717 212.503 213.167C212.29 212.613 211.975 212.183 211.557 211.876C211.14 211.565 210.624 211.409 210.01 211.409C209.371 211.409 208.839 211.573 208.412 211.901C207.991 212.225 207.673 212.666 207.46 213.224C207.251 213.778 207.147 214.401 207.147 215.091C207.147 215.79 207.253 216.425 207.466 216.996C207.684 217.562 208.003 218.014 208.425 218.351C208.851 218.683 209.38 218.849 210.01 218.849ZM226.611 210.182V211.46H221.522V210.182H226.611ZM223.005 207.83H224.514V217.188C224.514 217.614 224.576 217.933 224.699 218.146C224.827 218.355 224.989 218.496 225.185 218.568C225.385 218.636 225.596 218.67 225.818 218.67C225.984 218.67 226.12 218.662 226.227 218.645C226.334 218.624 226.419 218.607 226.483 218.594L226.79 219.949C226.687 219.987 226.544 220.026 226.361 220.064C226.178 220.107 225.946 220.128 225.665 220.128C225.238 220.128 224.821 220.036 224.412 219.853C224.007 219.67 223.67 219.391 223.402 219.016C223.138 218.641 223.005 218.168 223.005 217.597V207.83ZM230.599 214.094V220H229.091V206.909H230.599V211.716H230.727C230.957 211.209 231.302 210.806 231.763 210.508C232.227 210.205 232.845 210.054 233.616 210.054C234.285 210.054 234.871 210.188 235.374 210.457C235.877 210.721 236.267 211.128 236.544 211.678C236.825 212.223 236.966 212.918 236.966 213.761V220H235.457V213.864C235.457 213.084 235.255 212.481 234.85 212.055C234.449 211.624 233.893 211.409 233.182 211.409C232.687 211.409 232.244 211.513 231.852 211.722C231.464 211.931 231.157 212.236 230.932 212.636C230.71 213.037 230.599 213.523 230.599 214.094ZM243.842 220.205C242.896 220.205 242.08 219.996 241.394 219.578C240.712 219.156 240.186 218.568 239.815 217.814C239.448 217.055 239.265 216.173 239.265 215.168C239.265 214.162 239.448 213.276 239.815 212.509C240.186 211.737 240.701 211.136 241.362 210.706C242.027 210.271 242.802 210.054 243.688 210.054C244.2 210.054 244.705 210.139 245.203 210.31C245.702 210.48 246.156 210.757 246.565 211.141C246.974 211.52 247.3 212.023 247.543 212.649C247.786 213.276 247.907 214.047 247.907 214.963V215.602H240.339V214.298H246.373C246.373 213.744 246.262 213.25 246.041 212.815C245.823 212.381 245.512 212.038 245.108 211.786C244.707 211.535 244.234 211.409 243.688 211.409C243.088 211.409 242.568 211.558 242.129 211.857C241.694 212.151 241.36 212.534 241.125 213.007C240.891 213.48 240.774 213.987 240.774 214.528V215.398C240.774 216.139 240.902 216.768 241.157 217.283C241.417 217.795 241.777 218.185 242.237 218.453C242.698 218.717 243.233 218.849 243.842 218.849C244.238 218.849 244.596 218.794 244.916 218.683C245.24 218.568 245.519 218.398 245.753 218.172C245.987 217.942 246.169 217.656 246.296 217.315L247.754 217.724C247.6 218.219 247.343 218.653 246.98 219.028C246.618 219.399 246.171 219.689 245.638 219.898C245.105 220.102 244.507 220.205 243.842 220.205ZM259.637 210.182V211.46H254.344V210.182H259.637ZM255.929 220V208.827C255.929 208.264 256.061 207.795 256.326 207.42C256.59 207.045 256.933 206.764 257.355 206.577C257.777 206.389 258.222 206.295 258.691 206.295C259.061 206.295 259.364 206.325 259.598 206.385C259.833 206.445 260.007 206.5 260.122 206.551L259.688 207.855C259.611 207.83 259.505 207.798 259.368 207.759C259.236 207.721 259.061 207.702 258.844 207.702C258.345 207.702 257.985 207.827 257.764 208.079C257.546 208.33 257.438 208.699 257.438 209.185V220H255.929ZM265.335 220.205C264.449 220.205 263.671 219.994 263.002 219.572C262.337 219.15 261.817 218.56 261.442 217.801C261.072 217.043 260.886 216.156 260.886 215.142C260.886 214.119 261.072 213.227 261.442 212.464C261.817 211.701 262.337 211.109 263.002 210.687C263.671 210.265 264.449 210.054 265.335 210.054C266.222 210.054 266.997 210.265 267.662 210.687C268.331 211.109 268.851 211.701 269.222 212.464C269.597 213.227 269.784 214.119 269.784 215.142C269.784 216.156 269.597 217.043 269.222 217.801C268.851 218.56 268.331 219.15 267.662 219.572C266.997 219.994 266.222 220.205 265.335 220.205ZM265.335 218.849C266.008 218.849 266.562 218.677 266.997 218.332C267.432 217.987 267.753 217.533 267.962 216.97C268.171 216.408 268.275 215.798 268.275 215.142C268.275 214.486 268.171 213.874 267.962 213.308C267.753 212.741 267.432 212.283 266.997 211.933C266.562 211.584 266.008 211.409 265.335 211.409C264.662 211.409 264.108 211.584 263.673 211.933C263.239 212.283 262.917 212.741 262.708 213.308C262.499 213.874 262.395 214.486 262.395 215.142C262.395 215.798 262.499 216.408 262.708 216.97C262.917 217.533 263.239 217.987 263.673 218.332C264.108 218.677 264.662 218.849 265.335 218.849ZM273.595 206.909V220H272.087V206.909H273.595ZM277.867 206.909V220H276.358V206.909H277.867ZM284.618 220.205C283.732 220.205 282.954 219.994 282.285 219.572C281.62 219.15 281.101 218.56 280.726 217.801C280.355 217.043 280.169 216.156 280.169 215.142C280.169 214.119 280.355 213.227 280.726 212.464C281.101 211.701 281.62 211.109 282.285 210.687C282.954 210.265 283.732 210.054 284.618 210.054C285.505 210.054 286.28 210.265 286.945 210.687C287.614 211.109 288.134 211.701 288.505 212.464C288.88 213.227 289.067 214.119 289.067 215.142C289.067 216.156 288.88 217.043 288.505 217.801C288.134 218.56 287.614 219.15 286.945 219.572C286.28 219.994 285.505 220.205 284.618 220.205ZM284.618 218.849C285.292 218.849 285.846 218.677 286.28 218.332C286.715 217.987 287.037 217.533 287.245 216.97C287.454 216.408 287.559 215.798 287.559 215.142C287.559 214.486 287.454 213.874 287.245 213.308C287.037 212.741 286.715 212.283 286.28 211.933C285.846 211.584 285.292 211.409 284.618 211.409C283.945 211.409 283.391 211.584 282.956 211.933C282.522 212.283 282.2 212.741 281.991 213.308C281.782 213.874 281.678 214.486 281.678 215.142C281.678 215.798 281.782 216.408 281.991 216.97C282.2 217.533 282.522 217.987 282.956 218.332C283.391 218.677 283.945 218.849 284.618 218.849ZM293.26 220L290.269 210.182H291.854L293.976 217.699H294.079L296.175 210.182H297.786L299.857 217.673H299.959L302.081 210.182H303.667L300.675 220H299.192L297.044 212.457H296.891L294.743 220H293.26ZM305.661 220V210.182H307.169V220H305.661ZM306.428 208.545C306.134 208.545 305.88 208.445 305.667 208.245C305.459 208.045 305.354 207.804 305.354 207.523C305.354 207.241 305.459 207.001 305.667 206.8C305.88 206.6 306.134 206.5 306.428 206.5C306.722 206.5 306.973 206.6 307.182 206.8C307.395 207.001 307.502 207.241 307.502 207.523C307.502 207.804 307.395 208.045 307.182 208.245C306.973 208.445 306.722 208.545 306.428 208.545ZM311.441 214.094V220H309.932V210.182H311.39V211.716H311.518C311.748 211.217 312.097 210.817 312.566 210.514C313.035 210.207 313.64 210.054 314.381 210.054C315.046 210.054 315.628 210.19 316.126 210.463C316.625 210.732 317.013 211.141 317.29 211.69C317.567 212.236 317.705 212.926 317.705 213.761V220H316.197V213.864C316.197 213.092 315.996 212.491 315.596 212.061C315.195 211.626 314.646 211.409 313.947 211.409C313.465 211.409 313.035 211.513 312.655 211.722C312.28 211.931 311.984 212.236 311.767 212.636C311.55 213.037 311.441 213.523 311.441 214.094ZM324.425 223.886C323.696 223.886 323.07 223.793 322.546 223.605C322.021 223.422 321.585 223.179 321.235 222.876C320.89 222.578 320.615 222.259 320.411 221.918L321.612 221.074C321.749 221.253 321.921 221.457 322.13 221.688C322.339 221.922 322.624 222.124 322.987 222.295C323.353 222.469 323.832 222.557 324.425 222.557C325.217 222.557 325.872 222.365 326.387 221.982C326.903 221.598 327.161 220.997 327.161 220.179V218.185H327.033C326.922 218.364 326.764 218.585 326.56 218.849C326.359 219.109 326.07 219.342 325.69 219.546C325.315 219.746 324.808 219.847 324.169 219.847C323.377 219.847 322.665 219.659 322.034 219.284C321.408 218.909 320.911 218.364 320.545 217.648C320.183 216.932 320.002 216.062 320.002 215.04C320.002 214.034 320.178 213.158 320.532 212.413C320.886 211.663 321.378 211.083 322.009 210.674C322.639 210.261 323.368 210.054 324.195 210.054C324.834 210.054 325.341 210.161 325.716 210.374C326.095 210.582 326.385 210.821 326.585 211.089C326.79 211.354 326.948 211.571 327.058 211.741H327.212V210.182H328.669V220.281C328.669 221.125 328.477 221.811 328.094 222.339C327.715 222.872 327.203 223.262 326.56 223.509C325.921 223.761 325.209 223.886 324.425 223.886ZM324.374 218.491C324.979 218.491 325.49 218.353 325.908 218.076C326.325 217.799 326.643 217.401 326.86 216.881C327.078 216.361 327.186 215.739 327.186 215.014C327.186 214.307 327.08 213.683 326.867 213.141C326.653 212.6 326.338 212.176 325.921 211.869C325.503 211.562 324.987 211.409 324.374 211.409C323.734 211.409 323.202 211.571 322.776 211.895C322.354 212.219 322.036 212.653 321.823 213.199C321.614 213.744 321.51 214.349 321.51 215.014C321.51 215.696 321.617 216.299 321.83 216.823C322.047 217.343 322.367 217.752 322.788 218.05C323.215 218.344 323.743 218.491 324.374 218.491ZM332.53 220.102C332.215 220.102 331.944 219.989 331.718 219.763C331.492 219.538 331.379 219.267 331.379 218.952C331.379 218.636 331.492 218.366 331.718 218.14C331.944 217.914 332.215 217.801 332.53 217.801C332.845 217.801 333.116 217.914 333.342 218.14C333.568 218.366 333.68 218.636 333.68 218.952C333.68 219.161 333.627 219.352 333.521 219.527C333.418 219.702 333.28 219.842 333.105 219.949C332.935 220.051 332.743 220.102 332.53 220.102ZM332.53 212.815C332.215 212.815 331.944 212.702 331.718 212.477C331.492 212.251 331.379 211.98 331.379 211.665C331.379 211.349 331.492 211.079 331.718 210.853C331.944 210.627 332.215 210.514 332.53 210.514C332.845 210.514 333.116 210.627 333.342 210.853C333.568 211.079 333.68 211.349 333.68 211.665C333.68 211.874 333.627 212.065 333.521 212.24C333.418 212.415 333.28 212.555 333.105 212.662C332.935 212.764 332.743 212.815 332.53 212.815Z" fill="#636363"/>
<path d="M94.0909 558H90.1477V546.364H94.1705C95.3258 546.364 96.3182 546.597 97.1477 547.062C97.9811 547.525 98.6212 548.189 99.0682 549.057C99.5152 549.924 99.7386 550.962 99.7386 552.17C99.7386 553.383 99.5133 554.424 99.0625 555.295C98.6155 556.167 97.9697 556.835 97.125 557.301C96.2841 557.767 95.2727 558 94.0909 558ZM92.2557 556.176H93.9886C94.7992 556.176 95.4754 556.028 96.017 555.733C96.5587 555.434 96.9659 554.989 97.2386 554.398C97.5114 553.803 97.6477 553.061 97.6477 552.17C97.6477 551.28 97.5114 550.542 97.2386 549.955C96.9659 549.364 96.5625 548.922 96.0284 548.631C95.4981 548.335 94.839 548.188 94.0511 548.188H92.2557V556.176ZM104.162 558.176C103.609 558.176 103.111 558.078 102.668 557.881C102.228 557.68 101.88 557.384 101.622 556.994C101.368 556.604 101.241 556.123 101.241 555.551C101.241 555.059 101.332 554.652 101.514 554.33C101.696 554.008 101.944 553.75 102.259 553.557C102.573 553.364 102.927 553.218 103.321 553.119C103.719 553.017 104.13 552.943 104.554 552.898C105.065 552.845 105.48 552.797 105.798 552.756C106.116 552.71 106.348 552.642 106.491 552.551C106.639 552.456 106.713 552.311 106.713 552.114V552.08C106.713 551.652 106.586 551.32 106.332 551.085C106.079 550.85 105.713 550.733 105.236 550.733C104.732 550.733 104.332 550.843 104.037 551.062C103.745 551.282 103.548 551.542 103.446 551.841L101.526 551.568C101.677 551.038 101.927 550.595 102.276 550.239C102.624 549.879 103.05 549.61 103.554 549.432C104.058 549.25 104.615 549.159 105.224 549.159C105.645 549.159 106.063 549.208 106.48 549.307C106.897 549.405 107.277 549.568 107.622 549.795C107.967 550.019 108.243 550.324 108.452 550.71C108.664 551.097 108.77 551.58 108.77 552.159V558H106.793V556.801H106.724C106.599 557.044 106.423 557.271 106.196 557.483C105.973 557.691 105.69 557.86 105.349 557.989C105.012 558.114 104.616 558.176 104.162 558.176ZM104.696 556.665C105.109 556.665 105.467 556.583 105.77 556.42C106.073 556.254 106.306 556.034 106.469 555.761C106.635 555.489 106.719 555.191 106.719 554.869V553.841C106.654 553.894 106.545 553.943 106.389 553.989C106.238 554.034 106.067 554.074 105.878 554.108C105.688 554.142 105.501 554.172 105.315 554.199C105.13 554.225 104.969 554.248 104.832 554.267C104.526 554.309 104.251 554.377 104.009 554.472C103.766 554.566 103.575 554.699 103.435 554.869C103.295 555.036 103.224 555.252 103.224 555.517C103.224 555.896 103.363 556.182 103.639 556.375C103.916 556.568 104.268 556.665 104.696 556.665ZM115.196 549.273V550.864H110.179V549.273H115.196ZM111.418 547.182H113.474V555.375C113.474 555.652 113.516 555.864 113.599 556.011C113.687 556.155 113.8 556.254 113.94 556.307C114.08 556.36 114.236 556.386 114.406 556.386C114.535 556.386 114.652 556.377 114.759 556.358C114.868 556.339 114.952 556.322 115.009 556.307L115.355 557.915C115.245 557.953 115.088 557.994 114.884 558.04C114.683 558.085 114.437 558.112 114.145 558.119C113.63 558.134 113.166 558.057 112.753 557.886C112.34 557.712 112.012 557.443 111.77 557.08C111.531 556.716 111.414 556.261 111.418 555.716V547.182ZM119.428 558.176C118.875 558.176 118.376 558.078 117.933 557.881C117.494 557.68 117.145 557.384 116.888 556.994C116.634 556.604 116.507 556.123 116.507 555.551C116.507 555.059 116.598 554.652 116.78 554.33C116.962 554.008 117.21 553.75 117.524 553.557C117.839 553.364 118.193 553.218 118.587 553.119C118.984 553.017 119.395 552.943 119.82 552.898C120.331 552.845 120.746 552.797 121.064 552.756C121.382 552.71 121.613 552.642 121.757 552.551C121.905 552.456 121.979 552.311 121.979 552.114V552.08C121.979 551.652 121.852 551.32 121.598 551.085C121.344 550.85 120.979 550.733 120.501 550.733C119.998 550.733 119.598 550.843 119.303 551.062C119.011 551.282 118.814 551.542 118.712 551.841L116.791 551.568C116.943 551.038 117.193 550.595 117.541 550.239C117.89 549.879 118.316 549.61 118.82 549.432C119.323 549.25 119.88 549.159 120.49 549.159C120.911 549.159 121.329 549.208 121.746 549.307C122.162 549.405 122.543 549.568 122.888 549.795C123.232 550.019 123.509 550.324 123.717 550.71C123.929 551.097 124.036 551.58 124.036 552.159V558H122.058V556.801H121.99C121.865 557.044 121.689 557.271 121.462 557.483C121.238 557.691 120.956 557.86 120.615 557.989C120.278 558.114 119.882 558.176 119.428 558.176ZM119.962 556.665C120.375 556.665 120.732 556.583 121.036 556.42C121.339 556.254 121.571 556.034 121.734 555.761C121.901 555.489 121.984 555.191 121.984 554.869V553.841C121.92 553.894 121.81 553.943 121.655 553.989C121.503 554.034 121.333 554.074 121.143 554.108C120.954 554.142 120.767 554.172 120.581 554.199C120.395 554.225 120.234 554.248 120.098 554.267C119.791 554.309 119.517 554.377 119.274 554.472C119.032 554.566 118.84 554.699 118.7 554.869C118.56 555.036 118.49 555.252 118.49 555.517C118.49 555.896 118.628 556.182 118.905 556.375C119.181 556.568 119.534 556.665 119.962 556.665ZM130.072 561.273V549.273H132.095V550.716H132.214C132.321 550.504 132.47 550.278 132.663 550.04C132.857 549.797 133.118 549.591 133.447 549.42C133.777 549.246 134.197 549.159 134.709 549.159C135.383 549.159 135.991 549.331 136.533 549.676C137.078 550.017 137.51 550.523 137.828 551.193C138.15 551.86 138.311 552.678 138.311 553.648C138.311 554.606 138.154 555.42 137.839 556.091C137.525 556.761 137.097 557.273 136.555 557.625C136.014 557.977 135.4 558.153 134.714 558.153C134.214 558.153 133.8 558.07 133.47 557.903C133.141 557.737 132.875 557.536 132.675 557.301C132.478 557.062 132.324 556.837 132.214 556.625H132.129V561.273H130.072ZM132.089 553.636C132.089 554.201 132.169 554.695 132.328 555.119C132.491 555.544 132.724 555.875 133.027 556.114C133.334 556.348 133.705 556.466 134.141 556.466C134.595 556.466 134.976 556.345 135.283 556.102C135.589 555.856 135.821 555.521 135.976 555.097C136.135 554.669 136.214 554.182 136.214 553.636C136.214 553.095 136.137 552.614 135.982 552.193C135.826 551.773 135.595 551.443 135.288 551.205C134.982 550.966 134.599 550.847 134.141 550.847C133.701 550.847 133.328 550.962 133.021 551.193C132.714 551.424 132.482 551.748 132.322 552.165C132.167 552.581 132.089 553.072 132.089 553.636ZM143.879 558.17C143.027 558.17 142.288 557.983 141.663 557.608C141.038 557.233 140.554 556.708 140.209 556.034C139.868 555.36 139.697 554.572 139.697 553.67C139.697 552.769 139.868 551.979 140.209 551.301C140.554 550.623 141.038 550.097 141.663 549.722C142.288 549.347 143.027 549.159 143.879 549.159C144.732 549.159 145.47 549.347 146.095 549.722C146.72 550.097 147.203 550.623 147.544 551.301C147.889 551.979 148.061 552.769 148.061 553.67C148.061 554.572 147.889 555.36 147.544 556.034C147.203 556.708 146.72 557.233 146.095 557.608C145.47 557.983 144.732 558.17 143.879 558.17ZM143.891 556.523C144.353 556.523 144.739 556.396 145.05 556.142C145.36 555.884 145.591 555.54 145.743 555.108C145.898 554.676 145.976 554.195 145.976 553.665C145.976 553.131 145.898 552.648 145.743 552.216C145.591 551.78 145.36 551.434 145.05 551.176C144.739 550.919 144.353 550.79 143.891 550.79C143.417 550.79 143.023 550.919 142.709 551.176C142.398 551.434 142.165 551.78 142.01 552.216C141.858 552.648 141.783 553.131 141.783 553.665C141.783 554.195 141.858 554.676 142.01 555.108C142.165 555.54 142.398 555.884 142.709 556.142C143.023 556.396 143.417 556.523 143.891 556.523ZM151.864 546.364V558H149.807V546.364H151.864ZM153.979 558V549.273H156.036V558H153.979ZM155.013 548.034C154.687 548.034 154.407 547.926 154.172 547.71C153.937 547.491 153.82 547.227 153.82 546.92C153.82 546.61 153.937 546.347 154.172 546.131C154.407 545.911 154.687 545.801 155.013 545.801C155.342 545.801 155.623 545.911 155.854 546.131C156.089 546.347 156.206 546.61 156.206 546.92C156.206 547.227 156.089 547.491 155.854 547.71C155.623 547.926 155.342 548.034 155.013 548.034ZM161.957 558.17C161.086 558.17 160.338 557.979 159.713 557.597C159.092 557.214 158.613 556.686 158.276 556.011C157.942 555.333 157.776 554.553 157.776 553.67C157.776 552.784 157.946 552.002 158.287 551.324C158.628 550.642 159.109 550.112 159.73 549.733C160.355 549.35 161.094 549.159 161.946 549.159C162.654 549.159 163.281 549.29 163.827 549.551C164.376 549.809 164.813 550.174 165.139 550.648C165.465 551.117 165.651 551.667 165.696 552.295H163.73C163.651 551.875 163.461 551.525 163.162 551.244C162.866 550.96 162.471 550.818 161.974 550.818C161.554 550.818 161.185 550.932 160.866 551.159C160.548 551.383 160.3 551.705 160.122 552.125C159.948 552.545 159.861 553.049 159.861 553.636C159.861 554.231 159.948 554.742 160.122 555.17C160.296 555.595 160.541 555.922 160.855 556.153C161.173 556.381 161.546 556.494 161.974 556.494C162.277 556.494 162.548 556.437 162.787 556.324C163.029 556.206 163.232 556.038 163.395 555.818C163.558 555.598 163.67 555.331 163.73 555.017H165.696C165.647 555.634 165.465 556.182 165.151 556.659C164.836 557.133 164.408 557.504 163.866 557.773C163.325 558.038 162.688 558.17 161.957 558.17ZM168.663 561.273C168.383 561.273 168.124 561.25 167.885 561.205C167.65 561.163 167.463 561.114 167.322 561.057L167.8 559.455C168.099 559.542 168.366 559.583 168.601 559.58C168.836 559.576 169.042 559.502 169.22 559.358C169.402 559.218 169.555 558.983 169.68 558.653L169.857 558.182L166.692 549.273H168.874L170.885 555.864H170.976L172.993 549.273H175.18L171.686 559.057C171.523 559.519 171.307 559.915 171.038 560.244C170.769 560.578 170.44 560.831 170.05 561.006C169.663 561.184 169.201 561.273 168.663 561.273Z" fill="black"/>
<rect x="23" y="543" width="50" height="50" rx="8" fill="#F6F6F6"/>
<path d="M37 566H59V577.952C59 580.262 57.6873 582.409 55.5385 583.256C49.7096 585.555 45.5722 585.592 40.2251 583.303C38.1949 582.434 37 580.355 37 578.146V566Z" fill="#70C16F"/>
<path d="M48 554.899C44.134 554.899 41.9 558.06 41.9 561.958V567L39 566.118V561.076C39 556.063 43.0294 552 48 552C52.9706 552 57 556.063 57 561.076V566.118L54.1 567V561.958C54.1 558.06 51.866 554.899 48 554.899Z" fill="#70C16F"/>
<rect x="89" y="569" width="212" height="13" fill="#F6F6F6"/>
<rect x="89" y="609" width="212" height="13" fill="#F6F6F6"/>
<rect x="89" y="589" width="176" height="13" fill="#F6F6F6"/>
<rect x="89" y="629" width="127" height="13" fill="#F6F6F6"/>
<rect x="23" y="377" width="50" height="50" rx="8" fill="#F6F6F6"/>
<path d="M48 416C57.75 410.727 63 402.008 63 397.168C63 392.328 62.25 388.882 57.75 387.376C53.25 385.869 48.4688 388.986 48.4688 395.013C48.4688 388.986 42.75 385.869 38.25 387.376C33.75 388.882 33 392.328 33 397.168C33 402.008 38.25 410.727 48 416Z" fill="#70C16F"/>
<path d="M90.1477 392V380.364H92.2557V385.29H97.6477V380.364H99.7614V392H97.6477V387.057H92.2557V392H90.1477ZM105.827 392.17C104.952 392.17 104.196 391.989 103.56 391.625C102.927 391.258 102.44 390.739 102.099 390.068C101.759 389.394 101.588 388.6 101.588 387.688C101.588 386.79 101.759 386.002 102.099 385.324C102.444 384.642 102.925 384.112 103.543 383.733C104.16 383.35 104.885 383.159 105.719 383.159C106.257 383.159 106.764 383.246 107.241 383.42C107.723 383.591 108.147 383.856 108.514 384.216C108.885 384.576 109.177 385.034 109.389 385.591C109.601 386.144 109.707 386.803 109.707 387.568V388.199H102.554V386.812H107.736C107.732 386.419 107.647 386.068 107.48 385.761C107.313 385.451 107.08 385.206 106.781 385.028C106.486 384.85 106.141 384.761 105.747 384.761C105.327 384.761 104.957 384.864 104.639 385.068C104.321 385.269 104.073 385.534 103.895 385.864C103.721 386.189 103.632 386.547 103.628 386.938V388.148C103.628 388.655 103.721 389.091 103.906 389.455C104.092 389.814 104.351 390.091 104.685 390.284C105.018 390.473 105.408 390.568 105.855 390.568C106.154 390.568 106.425 390.527 106.668 390.443C106.91 390.356 107.12 390.229 107.298 390.062C107.476 389.896 107.611 389.689 107.702 389.443L109.622 389.659C109.501 390.167 109.27 390.61 108.929 390.989C108.592 391.364 108.16 391.655 107.634 391.864C107.107 392.068 106.505 392.17 105.827 392.17ZM113.959 392.176C113.406 392.176 112.908 392.078 112.464 391.881C112.025 391.68 111.677 391.384 111.419 390.994C111.165 390.604 111.038 390.123 111.038 389.551C111.038 389.059 111.129 388.652 111.311 388.33C111.493 388.008 111.741 387.75 112.055 387.557C112.37 387.364 112.724 387.218 113.118 387.119C113.516 387.017 113.927 386.943 114.351 386.898C114.862 386.845 115.277 386.797 115.595 386.756C115.913 386.71 116.144 386.642 116.288 386.551C116.436 386.456 116.51 386.311 116.51 386.114V386.08C116.51 385.652 116.383 385.32 116.129 385.085C115.875 384.85 115.51 384.733 115.033 384.733C114.529 384.733 114.129 384.843 113.834 385.062C113.542 385.282 113.345 385.542 113.243 385.841L111.322 385.568C111.474 385.038 111.724 384.595 112.072 384.239C112.421 383.879 112.847 383.61 113.351 383.432C113.855 383.25 114.411 383.159 115.021 383.159C115.442 383.159 115.86 383.208 116.277 383.307C116.694 383.405 117.074 383.568 117.419 383.795C117.764 384.019 118.04 384.324 118.249 384.71C118.461 385.097 118.567 385.58 118.567 386.159V392H116.589V390.801H116.521C116.396 391.044 116.22 391.271 115.993 391.483C115.769 391.691 115.487 391.86 115.146 391.989C114.809 392.114 114.413 392.176 113.959 392.176ZM114.493 390.665C114.906 390.665 115.264 390.583 115.567 390.42C115.87 390.254 116.103 390.034 116.266 389.761C116.432 389.489 116.516 389.191 116.516 388.869V387.841C116.451 387.894 116.341 387.943 116.186 387.989C116.035 388.034 115.864 388.074 115.675 388.108C115.485 388.142 115.298 388.172 115.112 388.199C114.927 388.225 114.766 388.248 114.629 388.267C114.322 388.309 114.048 388.377 113.805 388.472C113.563 388.566 113.372 388.699 113.232 388.869C113.091 389.036 113.021 389.252 113.021 389.517C113.021 389.896 113.16 390.182 113.436 390.375C113.713 390.568 114.065 390.665 114.493 390.665ZM122.692 380.364V392H120.635V380.364H122.692ZM129.165 383.273V384.864H124.148V383.273H129.165ZM125.386 381.182H127.443V389.375C127.443 389.652 127.485 389.864 127.568 390.011C127.655 390.155 127.769 390.254 127.909 390.307C128.049 390.36 128.205 390.386 128.375 390.386C128.504 390.386 128.621 390.377 128.727 390.358C128.837 390.339 128.92 390.322 128.977 390.307L129.324 391.915C129.214 391.953 129.057 391.994 128.852 392.04C128.652 392.085 128.405 392.112 128.114 392.119C127.598 392.134 127.134 392.057 126.722 391.886C126.309 391.712 125.981 391.443 125.739 391.08C125.5 390.716 125.383 390.261 125.386 389.716V381.182ZM133.129 386.886V392H131.072V380.364H133.084V384.756H133.186C133.391 384.263 133.707 383.875 134.135 383.591C134.567 383.303 135.116 383.159 135.783 383.159C136.389 383.159 136.917 383.286 137.368 383.54C137.819 383.794 138.167 384.165 138.413 384.653C138.663 385.142 138.788 385.739 138.788 386.443V392H136.732V386.761C136.732 386.174 136.58 385.718 136.277 385.392C135.978 385.062 135.557 384.898 135.016 384.898C134.652 384.898 134.326 384.977 134.038 385.136C133.754 385.292 133.531 385.517 133.368 385.812C133.209 386.108 133.129 386.466 133.129 386.886Z" fill="black"/>
<rect x="89" y="403" width="212" height="13" fill="#F6F6F6"/>
<rect x="89" y="423" width="176" height="13" fill="#F6F6F6"/>
<rect x="23" y="284" width="50" height="50" rx="8" fill="#F6F6F6"/>
<mask id="mask0_1354_1089" style="mask-type:alpha" maskUnits="userSpaceOnUse" x="23" y="284" width="50" height="50">
<rect x="23" y="284" width="50" height="50" rx="8" fill="#F6F6F6"/>
</mask>
<g mask="url(#mask0_1354_1089)">
<circle cx="48" cy="304.134" r="9.13433" fill="#70C16F"/>
<ellipse cx="48" cy="337" rx="18" ry="26" fill="#70C16F"/>
</g>
<path d="M90.1477 299V287.364H94.5114C95.4053 287.364 96.1553 287.53 96.7614 287.864C97.3712 288.197 97.8314 288.655 98.142 289.239C98.4564 289.818 98.6136 290.477 98.6136 291.216C98.6136 291.962 98.4564 292.625 98.142 293.205C97.8277 293.784 97.3636 294.241 96.75 294.574C96.1364 294.903 95.3807 295.068 94.483 295.068H91.5909V293.335H94.1989C94.7216 293.335 95.1496 293.244 95.483 293.062C95.8163 292.881 96.0625 292.631 96.2216 292.312C96.3845 291.994 96.4659 291.629 96.4659 291.216C96.4659 290.803 96.3845 290.439 96.2216 290.125C96.0625 289.811 95.8144 289.566 95.4773 289.392C95.1439 289.214 94.714 289.125 94.1875 289.125H92.2557V299H90.1477ZM100.354 299V290.273H102.348V291.727H102.439C102.598 291.223 102.871 290.835 103.257 290.562C103.647 290.286 104.092 290.148 104.592 290.148C104.706 290.148 104.833 290.153 104.973 290.165C105.117 290.172 105.236 290.186 105.331 290.205V292.097C105.244 292.066 105.106 292.04 104.916 292.017C104.731 291.991 104.551 291.977 104.376 291.977C104.001 291.977 103.664 292.059 103.365 292.222C103.07 292.381 102.837 292.602 102.666 292.886C102.496 293.17 102.411 293.498 102.411 293.869V299H100.354ZM110.145 299.17C109.293 299.17 108.554 298.983 107.929 298.608C107.304 298.233 106.819 297.708 106.474 297.034C106.134 296.36 105.963 295.572 105.963 294.67C105.963 293.769 106.134 292.979 106.474 292.301C106.819 291.623 107.304 291.097 107.929 290.722C108.554 290.347 109.293 290.159 110.145 290.159C110.997 290.159 111.736 290.347 112.361 290.722C112.986 291.097 113.469 291.623 113.81 292.301C114.154 292.979 114.327 293.769 114.327 294.67C114.327 295.572 114.154 296.36 113.81 297.034C113.469 297.708 112.986 298.233 112.361 298.608C111.736 298.983 110.997 299.17 110.145 299.17ZM110.156 297.523C110.618 297.523 111.005 297.396 111.315 297.142C111.626 296.884 111.857 296.54 112.009 296.108C112.164 295.676 112.241 295.195 112.241 294.665C112.241 294.131 112.164 293.648 112.009 293.216C111.857 292.78 111.626 292.434 111.315 292.176C111.005 291.919 110.618 291.79 110.156 291.79C109.683 291.79 109.289 291.919 108.974 292.176C108.664 292.434 108.431 292.78 108.276 293.216C108.124 293.648 108.048 294.131 108.048 294.665C108.048 295.195 108.124 295.676 108.276 296.108C108.431 296.54 108.664 296.884 108.974 297.142C109.289 297.396 109.683 297.523 110.156 297.523ZM120.493 290.273V291.864H115.334V290.273H120.493ZM116.624 299V289.449C116.624 288.862 116.745 288.373 116.987 287.983C117.233 287.593 117.563 287.301 117.976 287.108C118.389 286.915 118.847 286.818 119.351 286.818C119.707 286.818 120.023 286.847 120.3 286.903C120.576 286.96 120.781 287.011 120.913 287.057L120.504 288.648C120.417 288.621 120.307 288.595 120.175 288.568C120.042 288.538 119.894 288.523 119.732 288.523C119.349 288.523 119.078 288.616 118.919 288.801C118.764 288.983 118.686 289.244 118.686 289.585V299H116.624ZM122.104 299V290.273H124.161V299H122.104ZM123.138 289.034C122.812 289.034 122.532 288.926 122.297 288.71C122.062 288.491 121.945 288.227 121.945 287.92C121.945 287.61 122.062 287.347 122.297 287.131C122.532 286.911 122.812 286.801 123.138 286.801C123.467 286.801 123.748 286.911 123.979 287.131C124.214 287.347 124.331 287.61 124.331 287.92C124.331 288.227 124.214 288.491 123.979 288.71C123.748 288.926 123.467 289.034 123.138 289.034ZM128.332 287.364V299H126.276V287.364H128.332ZM134.311 299.17C133.436 299.17 132.68 298.989 132.044 298.625C131.411 298.258 130.925 297.739 130.584 297.068C130.243 296.394 130.072 295.6 130.072 294.688C130.072 293.79 130.243 293.002 130.584 292.324C130.929 291.642 131.41 291.112 132.027 290.733C132.644 290.35 133.37 290.159 134.203 290.159C134.741 290.159 135.249 290.246 135.726 290.42C136.207 290.591 136.631 290.856 136.999 291.216C137.37 291.576 137.661 292.034 137.874 292.591C138.086 293.144 138.192 293.803 138.192 294.568V295.199H131.038V293.812H136.22C136.216 293.419 136.131 293.068 135.964 292.761C135.798 292.451 135.565 292.206 135.266 292.028C134.97 291.85 134.625 291.761 134.232 291.761C133.811 291.761 133.442 291.864 133.124 292.068C132.805 292.269 132.557 292.534 132.379 292.864C132.205 293.189 132.116 293.547 132.112 293.938V295.148C132.112 295.655 132.205 296.091 132.391 296.455C132.576 296.814 132.836 297.091 133.169 297.284C133.502 297.473 133.893 297.568 134.339 297.568C134.639 297.568 134.91 297.527 135.152 297.443C135.394 297.356 135.605 297.229 135.783 297.062C135.961 296.896 136.095 296.689 136.186 296.443L138.107 296.659C137.985 297.167 137.754 297.61 137.413 297.989C137.076 298.364 136.644 298.655 136.118 298.864C135.591 299.068 134.989 299.17 134.311 299.17Z" fill="black"/>
<line x1="89" y1="360.5" x2="366" y2="360.5" stroke="#E8E8E8"/>
<rect x="89" y="310" width="212" height="13" fill="#F6F6F6"/>
<rect x="89" y="330" width="176" height="13" fill="#F6F6F6"/>
<rect x="16" y="679" width="358" height="51" rx="25.5" fill="#70C16F"/>
<path d="M174.967 702.29H172.842C172.782 701.941 172.67 701.633 172.507 701.364C172.344 701.091 172.142 700.86 171.899 700.67C171.657 700.481 171.38 700.339 171.07 700.244C170.763 700.146 170.431 700.097 170.075 700.097C169.443 700.097 168.882 700.256 168.393 700.574C167.905 700.888 167.522 701.35 167.246 701.96C166.969 702.566 166.831 703.307 166.831 704.182C166.831 705.072 166.969 705.822 167.246 706.432C167.526 707.038 167.909 707.496 168.393 707.807C168.882 708.114 169.441 708.267 170.07 708.267C170.418 708.267 170.744 708.222 171.047 708.131C171.354 708.036 171.628 707.898 171.871 707.716C172.117 707.534 172.323 707.311 172.49 707.045C172.661 706.78 172.778 706.477 172.842 706.136L174.967 706.148C174.888 706.701 174.715 707.22 174.45 707.705C174.189 708.189 173.846 708.617 173.422 708.989C172.998 709.356 172.501 709.644 171.933 709.852C171.365 710.057 170.734 710.159 170.041 710.159C169.018 710.159 168.106 709.922 167.303 709.449C166.5 708.975 165.867 708.292 165.405 707.398C164.943 706.504 164.712 705.432 164.712 704.182C164.712 702.928 164.945 701.856 165.411 700.966C165.876 700.072 166.511 699.388 167.314 698.915C168.117 698.441 169.026 698.205 170.041 698.205C170.689 698.205 171.291 698.295 171.848 698.477C172.405 698.659 172.901 698.926 173.337 699.278C173.772 699.627 174.13 700.055 174.411 700.562C174.695 701.066 174.88 701.642 174.967 702.29ZM180.614 710.17C179.761 710.17 179.023 709.983 178.398 709.608C177.773 709.233 177.288 708.708 176.943 708.034C176.602 707.36 176.432 706.572 176.432 705.67C176.432 704.769 176.602 703.979 176.943 703.301C177.288 702.623 177.773 702.097 178.398 701.722C179.023 701.347 179.761 701.159 180.614 701.159C181.466 701.159 182.205 701.347 182.83 701.722C183.455 702.097 183.938 702.623 184.278 703.301C184.623 703.979 184.795 704.769 184.795 705.67C184.795 706.572 184.623 707.36 184.278 708.034C183.938 708.708 183.455 709.233 182.83 709.608C182.205 709.983 181.466 710.17 180.614 710.17ZM180.625 708.523C181.087 708.523 181.473 708.396 181.784 708.142C182.095 707.884 182.326 707.54 182.477 707.108C182.633 706.676 182.71 706.195 182.71 705.665C182.71 705.131 182.633 704.648 182.477 704.216C182.326 703.78 182.095 703.434 181.784 703.176C181.473 702.919 181.087 702.79 180.625 702.79C180.152 702.79 179.758 702.919 179.443 703.176C179.133 703.434 178.9 703.78 178.744 704.216C178.593 704.648 178.517 705.131 178.517 705.665C178.517 706.195 178.593 706.676 178.744 707.108C178.9 707.54 179.133 707.884 179.443 708.142C179.758 708.396 180.152 708.523 180.625 708.523ZM188.598 704.886V710H186.541V701.273H188.507V702.756H188.609C188.81 702.267 189.13 701.879 189.57 701.591C190.013 701.303 190.56 701.159 191.212 701.159C191.814 701.159 192.339 701.288 192.786 701.545C193.236 701.803 193.585 702.176 193.831 702.665C194.081 703.153 194.204 703.746 194.2 704.443V710H192.143V704.761C192.143 704.178 191.992 703.722 191.689 703.392C191.39 703.062 190.975 702.898 190.445 702.898C190.085 702.898 189.765 702.977 189.484 703.136C189.208 703.292 188.99 703.517 188.831 703.812C188.676 704.108 188.598 704.466 188.598 704.886ZM200.712 701.273V702.864H195.553V701.273H200.712ZM196.842 710V700.449C196.842 699.862 196.964 699.373 197.206 698.983C197.452 698.593 197.782 698.301 198.195 698.108C198.607 697.915 199.066 697.818 199.57 697.818C199.926 697.818 200.242 697.847 200.518 697.903C200.795 697.96 201 698.011 201.132 698.057L200.723 699.648C200.636 699.621 200.526 699.595 200.393 699.568C200.261 699.538 200.113 699.523 199.95 699.523C199.568 699.523 199.297 699.616 199.138 699.801C198.982 699.983 198.905 700.244 198.905 700.585V710H196.842ZM202.322 710V701.273H204.379V710H202.322ZM203.357 700.034C203.031 700.034 202.75 699.926 202.516 699.71C202.281 699.491 202.163 699.227 202.163 698.92C202.163 698.61 202.281 698.347 202.516 698.131C202.75 697.911 203.031 697.801 203.357 697.801C203.686 697.801 203.966 697.911 204.197 698.131C204.432 698.347 204.55 698.61 204.55 698.92C204.55 699.227 204.432 699.491 204.197 699.71C203.966 699.926 203.686 700.034 203.357 700.034ZM206.494 710V701.273H208.489V702.727H208.58C208.739 702.223 209.011 701.835 209.398 701.562C209.788 701.286 210.233 701.148 210.733 701.148C210.847 701.148 210.973 701.153 211.114 701.165C211.258 701.172 211.377 701.186 211.472 701.205V703.097C211.384 703.066 211.246 703.04 211.057 703.017C210.871 702.991 210.691 702.977 210.517 702.977C210.142 702.977 209.805 703.059 209.506 703.222C209.21 703.381 208.977 703.602 208.807 703.886C208.636 704.17 208.551 704.498 208.551 704.869V710H206.494ZM212.838 710V701.273H214.804V702.756H214.906C215.088 702.256 215.389 701.866 215.81 701.585C216.23 701.301 216.732 701.159 217.315 701.159C217.906 701.159 218.404 701.303 218.81 701.591C219.219 701.875 219.507 702.263 219.673 702.756H219.764C219.957 702.271 220.283 701.884 220.741 701.597C221.204 701.305 221.751 701.159 222.384 701.159C223.187 701.159 223.842 701.413 224.349 701.92C224.857 702.428 225.111 703.169 225.111 704.142V710H223.048V704.46C223.048 703.919 222.904 703.523 222.616 703.273C222.329 703.019 221.976 702.892 221.56 702.892C221.063 702.892 220.675 703.047 220.395 703.358C220.118 703.665 219.98 704.064 219.98 704.557V710H217.963V704.375C217.963 703.924 217.827 703.564 217.554 703.295C217.285 703.027 216.933 702.892 216.497 702.892C216.202 702.892 215.933 702.968 215.69 703.119C215.448 703.267 215.255 703.477 215.111 703.75C214.967 704.019 214.895 704.333 214.895 704.693V710H212.838Z" fill="white"/>
<path fill-rule="evenodd" clip-rule="evenodd" d="M40 0C17.9086 0 0 17.9086 0 40V808.5C0 830.591 17.9086 848.5 40 848.5H350C372.091 848.5 390 830.591 390 808.5V40C390 17.9086 372.091 0 350 0H40ZM49.4204 9.42027C27.329 9.42027 9.42039 27.3289 9.42039 49.4203V793C9.42039 815.092 27.329 833 49.4204 833H340.58C362.671 833 380.58 815.092 380.58 793V49.4203C380.58 27.3289 362.671 9.42027 340.58 9.42027H293.651C284.895 9.42027 277.797 16.5182 277.797 25.274C277.797 34.0298 270.699 41.1278 261.943 41.1278H195H128.057C119.301 41.1278 112.203 34.0298 112.203 25.274C112.203 16.5182 105.105 9.42027 96.3493 9.42027H49.4204Z" fill="#2C2C2C"/>
</g>
<defs>
<clipPath id="clip0_1354_1089">
<rect width="390" height="844" rx="42" fill="white"/>
</clipPath>
</defs>
</svg>
