<svg width="28" height="31" viewBox="0 0 28 31" fill="none" xmlns="http://www.w3.org/2000/svg">
<path d="M18.4357 4.5C18.4357 6.98528 16.4494 9 13.9991 9C11.5488 9 9.5625 6.98528 9.5625 4.5C9.5625 2.01472 11.5488 0 13.9991 0C16.4494 0 18.4357 2.01472 18.4357 4.5Z" fill="#020202"/>
<path d="M14 31.0002C21.732 31.0002 28 24.6426 28 16.8002C28 14.3823 27.4042 12.1056 26.3535 10.1129C25.4589 8.41632 23.2624 8.16461 21.6775 9.2446C20.0214 10.373 19.2871 12.7195 19.489 14.7133C19.7386 17.1772 19.7676 20.1446 19.7676 21.4002C19.7676 23.7002 19.8807 23.7002 14 23.7002C9.95775 23.7002 7.88732 21.5502 7.88732 18.8002C7.88732 17.684 7.91028 16.0021 8.09066 14.4447C8.3072 12.5752 7.75773 10.4067 6.23413 9.30189C4.71115 8.19752 2.54703 8.4164 1.66497 10.078C0.602742 12.0791 0 14.3682 0 16.8002C0 24.6426 6.26801 31.0002 14 31.0002Z" fill="#020202"/>
</svg>
