<svg width="358" height="281" viewBox="0 0 358 281" fill="none" xmlns="http://www.w3.org/2000/svg">
<rect x="75.5" y="110.5" width="130" height="68" rx="2.5" fill="#1C2E19" fill-opacity="0.28" stroke="#363636"/>
<rect x="58.0244" y="246.023" width="5" height="5" transform="rotate(90.279 58.0244 246.023)" fill="#A2D5EB"/>
<rect x="6.5" y="0.5" width="100" height="81" rx="2.5" fill="#1C2E19" fill-opacity="0.28" stroke="#363636"/>
<rect x="134.5" y="0.5" width="188" height="59" rx="2.5" fill="#1C2E19" fill-opacity="0.28" stroke="#363636"/>
<rect x="8.5" y="201.5" width="104" height="68" rx="2.5" fill="#1C2E19" fill-opacity="0.28" stroke="#363636"/>
<rect x="161.5" y="224.5" width="196" height="56" rx="2.5" fill="#1C2E19" fill-opacity="0.28" stroke="#363636"/>
<rect x="233.5" y="82.5" width="124" height="130" rx="2.5" fill="#1C2E19" fill-opacity="0.28" stroke="#363636"/>
<rect x="10.5" y="3.5" width="39" height="8" rx="4" fill="white" stroke="white"/>
<rect x="140.5" y="3.5" width="37" height="10" rx="5" fill="white" stroke="black"/>
<rect x="140.5" y="3.5" width="37" height="10" rx="5" fill="white" stroke="white"/>
<rect x="238.5" y="86.5" width="37" height="10" rx="5" fill="white" stroke="white"/>
<rect x="79.5" y="114.5" width="37" height="10" rx="5" fill="white" stroke="white"/>
<rect x="12.5" y="205.5" width="37" height="10" rx="5" fill="white" stroke="white"/>
<rect x="166.5" y="229.5" width="61" height="10" rx="5" fill="white" stroke="white"/>
<path d="M24.2878 5.72727C24.2623 5.51136 24.1586 5.34375 23.9767 5.22443C23.7949 5.10511 23.5719 5.04545 23.3077 5.04545C23.1145 5.04545 22.9455 5.0767 22.8006 5.1392C22.6571 5.2017 22.5449 5.28764 22.464 5.39702C22.3844 5.50639 22.3446 5.63068 22.3446 5.76989C22.3446 5.88636 22.3723 5.98651 22.4277 6.07031C22.4846 6.1527 22.557 6.22159 22.6451 6.27699C22.7331 6.33097 22.8255 6.37571 22.9221 6.41122C23.0186 6.44531 23.1074 6.47301 23.1884 6.49432L23.6316 6.61364C23.7452 6.64347 23.8716 6.68466 24.0108 6.73722C24.1515 6.78977 24.2857 6.86151 24.4135 6.95241C24.5428 7.0419 24.6493 7.15696 24.7331 7.29759C24.8169 7.43821 24.8588 7.6108 24.8588 7.81534C24.8588 8.05114 24.7971 8.2642 24.6735 8.45455C24.5513 8.64489 24.3723 8.79616 24.1365 8.90838C23.9022 9.0206 23.6174 9.0767 23.2821 9.0767C22.9696 9.0767 22.699 9.02628 22.4703 8.92543C22.2431 8.82457 22.0641 8.68395 21.9334 8.50355C21.8042 8.32315 21.731 8.11364 21.714 7.875H22.2594C22.2736 8.03977 22.329 8.17614 22.4256 8.28409C22.5236 8.39062 22.6472 8.47017 22.7963 8.52273C22.9469 8.57386 23.1088 8.59943 23.2821 8.59943C23.4838 8.59943 23.665 8.56676 23.8255 8.50142C23.986 8.43466 24.1131 8.34233 24.2069 8.22443C24.3006 8.10511 24.3475 7.96591 24.3475 7.80682C24.3475 7.66193 24.307 7.54403 24.226 7.45312C24.1451 7.36222 24.0385 7.28835 23.9064 7.23153C23.7743 7.17472 23.6316 7.125 23.4782 7.08239L22.9412 6.92898C22.6003 6.83097 22.3304 6.69105 22.1316 6.50923C21.9327 6.32741 21.8333 6.08949 21.8333 5.79545C21.8333 5.55114 21.8993 5.33807 22.0314 5.15625C22.165 4.97301 22.3439 4.83097 22.5684 4.73011C22.7942 4.62784 23.0463 4.5767 23.3248 4.5767C23.606 4.5767 23.856 4.62713 24.0748 4.72798C24.2935 4.82741 24.4668 4.96378 24.5946 5.13707C24.7239 5.31037 24.7921 5.5071 24.7992 5.72727H24.2878ZM27.0827 5.72727V6.15341H25.3867V5.72727H27.0827ZM25.881 4.94318H26.3839V8.0625C26.3839 8.20455 26.4045 8.31108 26.4457 8.3821C26.4883 8.4517 26.5423 8.49858 26.6076 8.52273C26.6744 8.54545 26.7447 8.55682 26.8185 8.55682C26.8739 8.55682 26.9194 8.55398 26.9549 8.5483C26.9904 8.54119 27.0188 8.53551 27.0401 8.53125L27.1424 8.98295C27.1083 8.99574 27.0607 9.00852 26.9996 9.02131C26.9386 9.03551 26.8612 9.04261 26.7674 9.04261C26.6254 9.04261 26.4862 9.01207 26.3498 8.95099C26.2148 8.88991 26.1026 8.79688 26.0131 8.67188C25.9251 8.54688 25.881 8.3892 25.881 8.19886V4.94318ZM29.1761 9.06818C28.8608 9.06818 28.5888 8.99858 28.3601 8.85938C28.1328 8.71875 27.9574 8.52273 27.8338 8.27131C27.7116 8.01847 27.6506 7.72443 27.6506 7.3892C27.6506 7.05398 27.7116 6.75852 27.8338 6.50284C27.9574 6.24574 28.1293 6.04545 28.3494 5.90199C28.571 5.7571 28.8295 5.68466 29.125 5.68466C29.2955 5.68466 29.4638 5.71307 29.63 5.76989C29.7962 5.8267 29.9474 5.91903 30.0838 6.04688C30.2202 6.1733 30.3288 6.34091 30.4098 6.54972C30.4908 6.75852 30.5312 7.01562 30.5312 7.32102V7.53409H28.0085V7.09943H30.0199C30.0199 6.91477 29.983 6.75 29.9091 6.60511C29.8366 6.46023 29.733 6.34588 29.598 6.26207C29.4645 6.17827 29.3068 6.13636 29.125 6.13636C28.9247 6.13636 28.7514 6.18608 28.6051 6.28551C28.4602 6.38352 28.3487 6.51136 28.2706 6.66903C28.1925 6.8267 28.1534 6.99574 28.1534 7.17614V7.46591C28.1534 7.71307 28.196 7.92259 28.2812 8.09446C28.3679 8.26491 28.4879 8.39489 28.6413 8.48438C28.7947 8.57244 28.973 8.61648 29.1761 8.61648C29.3082 8.61648 29.4276 8.59801 29.5341 8.56108C29.642 8.52273 29.7351 8.46591 29.8132 8.39062C29.8913 8.31392 29.9517 8.21875 29.9943 8.10511L30.4801 8.24148C30.429 8.40625 30.343 8.55114 30.2223 8.67614C30.1016 8.79972 29.9524 8.89631 29.7749 8.96591C29.5973 9.03409 29.3977 9.06818 29.1761 9.06818ZM31.2962 10.2273V5.72727H31.782V6.24716H31.8416C31.8786 6.19034 31.9297 6.1179 31.995 6.02983C32.0618 5.94034 32.157 5.8608 32.2805 5.79119C32.4055 5.72017 32.5746 5.68466 32.7876 5.68466C33.0632 5.68466 33.3061 5.75355 33.5163 5.89134C33.7266 6.02912 33.8906 6.22443 34.0085 6.47727C34.1264 6.73011 34.1854 7.02841 34.1854 7.37216C34.1854 7.71875 34.1264 8.01918 34.0085 8.27344C33.8906 8.52628 33.7273 8.7223 33.5185 8.86151C33.3097 8.99929 33.0689 9.06818 32.7962 9.06818C32.5859 9.06818 32.4176 9.03338 32.2912 8.96378C32.1648 8.89276 32.0675 8.8125 31.9993 8.72301C31.9311 8.6321 31.8786 8.55682 31.8416 8.49716H31.799V10.2273H31.2962ZM31.7905 7.36364C31.7905 7.6108 31.8267 7.82884 31.8991 8.01776C31.9716 8.20526 32.0774 8.35227 32.2166 8.45881C32.3558 8.56392 32.5263 8.61648 32.728 8.61648C32.9382 8.61648 33.1136 8.56108 33.2543 8.45028C33.3963 8.33807 33.5028 8.1875 33.5739 7.99858C33.6463 7.80824 33.6825 7.59659 33.6825 7.36364C33.6825 7.13352 33.647 6.92614 33.576 6.74148C33.5064 6.5554 33.4006 6.40838 33.2585 6.30043C33.1179 6.19105 32.9411 6.13636 32.728 6.13636C32.5234 6.13636 32.3516 6.18821 32.2124 6.2919C32.0732 6.39418 31.968 6.53764 31.897 6.7223C31.826 6.90554 31.7905 7.11932 31.7905 7.36364ZM37.2706 6.46023L36.8189 6.58807C36.7905 6.51278 36.7486 6.43963 36.6932 6.36861C36.6392 6.29616 36.5653 6.23651 36.4716 6.18963C36.3778 6.14276 36.2578 6.11932 36.1115 6.11932C35.9112 6.11932 35.7443 6.16548 35.6108 6.25781C35.4787 6.34872 35.4126 6.46449 35.4126 6.60511C35.4126 6.73011 35.4581 6.82884 35.549 6.90128C35.6399 6.97372 35.782 7.03409 35.9751 7.08239L36.4609 7.2017C36.7536 7.27273 36.9716 7.38139 37.1151 7.5277C37.2585 7.67259 37.3303 7.85937 37.3303 8.08807C37.3303 8.27557 37.2763 8.44318 37.1683 8.59091C37.0618 8.73864 36.9126 8.85511 36.7209 8.94034C36.5291 9.02557 36.3061 9.06818 36.0518 9.06818C35.718 9.06818 35.4418 8.99574 35.223 8.85085C35.0043 8.70597 34.8658 8.49432 34.8075 8.21591L35.2848 8.09659C35.3303 8.27273 35.4162 8.40483 35.5426 8.4929C35.6705 8.58097 35.8374 8.625 36.0433 8.625C36.2777 8.625 36.4638 8.57528 36.6016 8.47585C36.7408 8.375 36.8104 8.25426 36.8104 8.11364C36.8104 8 36.7706 7.90483 36.6911 7.82812C36.6115 7.75 36.4893 7.69176 36.3246 7.65341L35.7791 7.52557C35.4794 7.45455 35.2592 7.34446 35.1186 7.19531C34.9794 7.04474 34.9098 6.85653 34.9098 6.63068C34.9098 6.44602 34.9616 6.28267 35.0653 6.14062C35.1705 5.99858 35.3132 5.88707 35.4936 5.80611C35.6754 5.72514 35.8814 5.68466 36.1115 5.68466C36.4354 5.68466 36.6896 5.75568 36.8743 5.89773C37.0604 6.03977 37.1925 6.22727 37.2706 6.46023Z" fill="black"/>
<path d="M144.594 11V6.63636H145.122V8.57955H147.449V6.63636H147.977V11H147.449V9.0483H145.122V11H144.594ZM150.339 11.0682C150.024 11.0682 149.752 10.9986 149.523 10.8594C149.296 10.7188 149.12 10.5227 148.997 10.2713C148.875 10.0185 148.814 9.72443 148.814 9.3892C148.814 9.05398 148.875 8.75852 148.997 8.50284C149.12 8.24574 149.292 8.04545 149.513 7.90199C149.734 7.7571 149.993 7.68466 150.288 7.68466C150.459 7.68466 150.627 7.71307 150.793 7.76989C150.959 7.8267 151.111 7.91903 151.247 8.04688C151.383 8.1733 151.492 8.34091 151.573 8.54972C151.654 8.75852 151.694 9.01562 151.694 9.32102V9.53409H149.172V9.09943H151.183C151.183 8.91477 151.146 8.75 151.072 8.60511C151 8.46023 150.896 8.34588 150.761 8.26207C150.628 8.17827 150.47 8.13636 150.288 8.13636C150.088 8.13636 149.915 8.18608 149.768 8.28551C149.623 8.38352 149.512 8.51136 149.434 8.66903C149.356 8.8267 149.316 8.99574 149.316 9.17614V9.46591C149.316 9.71307 149.359 9.92259 149.444 10.0945C149.531 10.2649 149.651 10.3949 149.804 10.4844C149.958 10.5724 150.136 10.6165 150.339 10.6165C150.471 10.6165 150.591 10.598 150.697 10.5611C150.805 10.5227 150.898 10.4659 150.976 10.3906C151.054 10.3139 151.115 10.2187 151.157 10.1051L151.643 10.2415C151.592 10.4062 151.506 10.5511 151.385 10.6761C151.265 10.7997 151.116 10.8963 150.938 10.9659C150.76 11.0341 150.561 11.0682 150.339 11.0682ZM153.422 11.0767C153.215 11.0767 153.027 11.0376 152.858 10.9595C152.689 10.88 152.554 10.7656 152.455 10.6165C152.356 10.4659 152.306 10.2841 152.306 10.071C152.306 9.88352 152.343 9.73153 152.417 9.61506C152.491 9.49716 152.589 9.40483 152.713 9.33807C152.836 9.27131 152.973 9.22159 153.122 9.18892C153.272 9.15483 153.424 9.12784 153.576 9.10795C153.775 9.08239 153.936 9.06321 154.059 9.05043C154.184 9.03622 154.275 9.01278 154.332 8.98011C154.39 8.94744 154.419 8.89062 154.419 8.80966V8.79261C154.419 8.58239 154.362 8.41903 154.247 8.30256C154.133 8.18608 153.961 8.12784 153.729 8.12784C153.489 8.12784 153.301 8.1804 153.165 8.28551C153.028 8.39062 152.932 8.50284 152.877 8.62216L152.4 8.4517C152.485 8.25284 152.598 8.09801 152.741 7.98722C152.884 7.875 153.04 7.79687 153.209 7.75284C153.38 7.70739 153.547 7.68466 153.712 7.68466C153.817 7.68466 153.938 7.69744 154.074 7.72301C154.212 7.74716 154.345 7.79759 154.473 7.87429C154.602 7.95099 154.709 8.06676 154.794 8.22159C154.88 8.37642 154.922 8.58381 154.922 8.84375V11H154.419V10.5568H154.394C154.36 10.6278 154.303 10.7038 154.223 10.7848C154.144 10.8658 154.038 10.9347 153.906 10.9915C153.774 11.0483 153.613 11.0767 153.422 11.0767ZM153.499 10.625C153.698 10.625 153.866 10.5859 154.002 10.5078C154.14 10.4297 154.243 10.3288 154.313 10.2053C154.384 10.0817 154.419 9.9517 154.419 9.81534V9.35511C154.398 9.38068 154.351 9.40412 154.279 9.42543C154.208 9.44531 154.125 9.46307 154.032 9.47869C153.939 9.4929 153.849 9.50568 153.761 9.51705C153.674 9.52699 153.604 9.53551 153.55 9.54261C153.419 9.55966 153.297 9.58736 153.184 9.62571C153.071 9.66264 152.981 9.71875 152.911 9.79403C152.843 9.8679 152.809 9.96875 152.809 10.0966C152.809 10.2713 152.873 10.4034 153.003 10.4929C153.133 10.581 153.299 10.625 153.499 10.625ZM155.84 11V7.72727H156.326V8.22159H156.36C156.42 8.05966 156.528 7.92827 156.684 7.82741C156.84 7.72656 157.016 7.67614 157.212 7.67614C157.249 7.67614 157.295 7.67685 157.351 7.67827C157.406 7.67969 157.448 7.68182 157.476 7.68466V8.19602C157.459 8.19176 157.42 8.18537 157.359 8.17685C157.3 8.1669 157.236 8.16193 157.17 8.16193C157.011 8.16193 156.869 8.19531 156.744 8.26207C156.62 8.32741 156.522 8.41832 156.449 8.5348C156.378 8.64986 156.343 8.78125 156.343 8.92898V11H155.84ZM159.701 7.72727V8.15341H158.005V7.72727H159.701ZM158.499 6.94318H159.002V10.0625C159.002 10.2045 159.023 10.3111 159.064 10.3821C159.106 10.4517 159.16 10.4986 159.226 10.5227C159.293 10.5455 159.363 10.5568 159.437 10.5568C159.492 10.5568 159.538 10.554 159.573 10.5483C159.609 10.5412 159.637 10.5355 159.658 10.5312L159.761 10.983C159.726 10.9957 159.679 11.0085 159.618 11.0213C159.557 11.0355 159.479 11.0426 159.386 11.0426C159.244 11.0426 159.104 11.0121 158.968 10.951C158.833 10.8899 158.721 10.7969 158.631 10.6719C158.543 10.5469 158.499 10.3892 158.499 10.1989V6.94318ZM162.145 11V7.72727H162.631V8.22159H162.665C162.724 8.05966 162.832 7.92827 162.989 7.82741C163.145 7.72656 163.321 7.67614 163.517 7.67614C163.554 7.67614 163.6 7.67685 163.655 7.67827C163.711 7.67969 163.753 7.68182 163.781 7.68466V8.19602C163.764 8.19176 163.725 8.18537 163.664 8.17685C163.604 8.1669 163.541 8.16193 163.474 8.16193C163.315 8.16193 163.173 8.19531 163.048 8.26207C162.925 8.32741 162.827 8.41832 162.754 8.5348C162.683 8.64986 162.648 8.78125 162.648 8.92898V11H162.145ZM165.34 11.0767C165.133 11.0767 164.945 11.0376 164.776 10.9595C164.607 10.88 164.472 10.7656 164.373 10.6165C164.274 10.4659 164.224 10.2841 164.224 10.071C164.224 9.88352 164.261 9.73153 164.335 9.61506C164.408 9.49716 164.507 9.40483 164.631 9.33807C164.754 9.27131 164.891 9.22159 165.04 9.18892C165.19 9.15483 165.342 9.12784 165.494 9.10795C165.693 9.08239 165.854 9.06321 165.977 9.05043C166.102 9.03622 166.193 9.01278 166.25 8.98011C166.308 8.94744 166.337 8.89062 166.337 8.80966V8.79261C166.337 8.58239 166.28 8.41903 166.165 8.30256C166.051 8.18608 165.879 8.12784 165.647 8.12784C165.407 8.12784 165.219 8.1804 165.082 8.28551C164.946 8.39062 164.85 8.50284 164.795 8.62216L164.318 8.4517C164.403 8.25284 164.516 8.09801 164.658 7.98722C164.802 7.875 164.958 7.79687 165.127 7.75284C165.298 7.70739 165.465 7.68466 165.63 7.68466C165.735 7.68466 165.856 7.69744 165.992 7.72301C166.13 7.74716 166.263 7.79759 166.391 7.87429C166.52 7.95099 166.627 8.06676 166.712 8.22159C166.798 8.37642 166.84 8.58381 166.84 8.84375V11H166.337V10.5568H166.312C166.278 10.6278 166.221 10.7038 166.141 10.7848C166.062 10.8658 165.956 10.9347 165.824 10.9915C165.692 11.0483 165.531 11.0767 165.34 11.0767ZM165.417 10.625C165.616 10.625 165.783 10.5859 165.92 10.5078C166.058 10.4297 166.161 10.3288 166.231 10.2053C166.302 10.0817 166.337 9.9517 166.337 9.81534V9.35511C166.316 9.38068 166.269 9.40412 166.197 9.42543C166.126 9.44531 166.043 9.46307 165.95 9.47869C165.857 9.4929 165.767 9.50568 165.679 9.51705C165.592 9.52699 165.522 9.53551 165.468 9.54261C165.337 9.55966 165.215 9.58736 165.102 9.62571C164.989 9.66264 164.899 9.71875 164.829 9.79403C164.761 9.8679 164.727 9.96875 164.727 10.0966C164.727 10.2713 164.791 10.4034 164.921 10.4929C165.051 10.581 165.217 10.625 165.417 10.625ZM169.181 7.72727V8.15341H167.485V7.72727H169.181ZM167.98 6.94318H168.483V10.0625C168.483 10.2045 168.503 10.3111 168.544 10.3821C168.587 10.4517 168.641 10.4986 168.706 10.5227C168.773 10.5455 168.843 10.5568 168.917 10.5568C168.973 10.5568 169.018 10.554 169.054 10.5483C169.089 10.5412 169.117 10.5355 169.139 10.5312L169.241 10.983C169.207 10.9957 169.159 11.0085 169.098 11.0213C169.037 11.0355 168.96 11.0426 168.866 11.0426C168.724 11.0426 168.585 11.0121 168.448 10.951C168.313 10.8899 168.201 10.7969 168.112 10.6719C168.024 10.5469 167.98 10.3892 167.98 10.1989V6.94318ZM171.275 11.0682C170.959 11.0682 170.687 10.9986 170.459 10.8594C170.231 10.7188 170.056 10.5227 169.932 10.2713C169.81 10.0185 169.749 9.72443 169.749 9.3892C169.749 9.05398 169.81 8.75852 169.932 8.50284C170.056 8.24574 170.228 8.04545 170.448 7.90199C170.67 7.7571 170.928 7.68466 171.224 7.68466C171.394 7.68466 171.562 7.71307 171.729 7.76989C171.895 7.8267 172.046 7.91903 172.182 8.04688C172.319 8.1733 172.427 8.34091 172.508 8.54972C172.589 8.75852 172.63 9.01562 172.63 9.32102V9.53409H170.107V9.09943H172.119C172.119 8.91477 172.082 8.75 172.008 8.60511C171.935 8.46023 171.832 8.34588 171.697 8.26207C171.563 8.17827 171.405 8.13636 171.224 8.13636C171.023 8.13636 170.85 8.18608 170.704 8.28551C170.559 8.38352 170.447 8.51136 170.369 8.66903C170.291 8.8267 170.252 8.99574 170.252 9.17614V9.46591C170.252 9.71307 170.295 9.92259 170.38 10.0945C170.467 10.2649 170.587 10.3949 170.74 10.4844C170.893 10.5724 171.072 10.6165 171.275 10.6165C171.407 10.6165 171.526 10.598 171.633 10.5611C171.741 10.5227 171.834 10.4659 171.912 10.3906C171.99 10.3139 172.05 10.2187 172.093 10.1051L172.579 10.2415C172.528 10.4062 172.442 10.5511 172.321 10.6761C172.2 10.7997 172.051 10.8963 171.873 10.9659C171.696 11.0341 171.496 11.0682 171.275 11.0682Z" fill="black"/>
<path d="M246.561 94H246.007L247.609 89.6364H248.155L249.757 94H249.203L247.899 90.3267H247.865L246.561 94ZM246.765 92.2955H248.998V92.7642H246.765V92.2955ZM251.698 94.0682C251.391 94.0682 251.127 93.9957 250.905 93.8509C250.684 93.706 250.513 93.5064 250.394 93.2521C250.275 92.9979 250.215 92.7074 250.215 92.3807C250.215 92.0483 250.276 91.755 250.398 91.5007C250.522 91.245 250.694 91.0455 250.914 90.902C251.135 90.7571 251.394 90.6847 251.689 90.6847C251.92 90.6847 252.127 90.7273 252.312 90.8125C252.496 90.8977 252.648 91.017 252.765 91.1705C252.883 91.3239 252.956 91.5028 252.985 91.7074H252.482C252.444 91.5582 252.358 91.4261 252.226 91.3111C252.096 91.1946 251.92 91.1364 251.698 91.1364C251.502 91.1364 251.33 91.1875 251.182 91.2898C251.036 91.3906 250.922 91.5334 250.839 91.718C250.758 91.9013 250.718 92.1165 250.718 92.3636C250.718 92.6165 250.758 92.8366 250.837 93.0241C250.918 93.2116 251.032 93.3572 251.178 93.4609C251.326 93.5646 251.499 93.6165 251.698 93.6165C251.829 93.6165 251.947 93.5938 252.054 93.5483C252.16 93.5028 252.251 93.4375 252.324 93.3523C252.398 93.267 252.451 93.1648 252.482 93.0455H252.985C252.956 93.2386 252.886 93.4126 252.774 93.5675C252.663 93.7209 252.516 93.843 252.333 93.9339C252.151 94.0234 251.939 94.0682 251.698 94.0682ZM255.143 90.7273V91.1534H253.447V90.7273H255.143ZM253.942 89.9432H254.444V93.0625C254.444 93.2045 254.465 93.3111 254.506 93.3821C254.549 93.4517 254.603 93.4986 254.668 93.5227C254.735 93.5455 254.805 93.5568 254.879 93.5568C254.934 93.5568 254.98 93.554 255.015 93.5483C255.051 93.5412 255.079 93.5355 255.101 93.5312L255.203 93.983C255.169 93.9957 255.121 94.0085 255.06 94.0213C254.999 94.0355 254.922 94.0426 254.828 94.0426C254.686 94.0426 254.547 94.0121 254.41 93.951C254.275 93.8899 254.163 93.7969 254.074 93.6719C253.986 93.5469 253.942 93.3892 253.942 93.1989V89.9432ZM255.9 94V90.7273H256.403V94H255.9ZM256.155 90.1818C256.057 90.1818 255.973 90.1484 255.902 90.0817C255.832 90.0149 255.797 89.9347 255.797 89.8409C255.797 89.7472 255.832 89.6669 255.902 89.6001C255.973 89.5334 256.057 89.5 256.155 89.5C256.253 89.5 256.337 89.5334 256.407 89.6001C256.478 89.6669 256.513 89.7472 256.513 89.8409C256.513 89.9347 256.478 90.0149 256.407 90.0817C256.337 90.1484 256.253 90.1818 256.155 90.1818ZM260 90.7273L258.789 94H258.278L257.068 90.7273H257.613L258.517 93.3352H258.551L259.454 90.7273H260ZM260.663 94V90.7273H261.166V94H260.663ZM260.919 90.1818C260.821 90.1818 260.737 90.1484 260.665 90.0817C260.596 90.0149 260.561 89.9347 260.561 89.8409C260.561 89.7472 260.596 89.6669 260.665 89.6001C260.737 89.5334 260.821 89.5 260.919 89.5C261.017 89.5 261.101 89.5334 261.17 89.6001C261.241 89.6669 261.277 89.7472 261.277 89.8409C261.277 89.9347 261.241 90.0149 261.17 90.0817C261.101 90.1484 261.017 90.1818 260.919 90.1818ZM263.51 90.7273V91.1534H261.814V90.7273H263.51ZM262.309 89.9432H262.812V93.0625C262.812 93.2045 262.832 93.3111 262.873 93.3821C262.916 93.4517 262.97 93.4986 263.035 93.5227C263.102 93.5455 263.172 93.5568 263.246 93.5568C263.302 93.5568 263.347 93.554 263.383 93.5483C263.418 93.5412 263.447 93.5355 263.468 93.5312L263.57 93.983C263.536 93.9957 263.488 94.0085 263.427 94.0213C263.366 94.0355 263.289 94.0426 263.195 94.0426C263.053 94.0426 262.914 94.0121 262.778 93.951C262.643 93.8899 262.53 93.7969 262.441 93.6719C262.353 93.5469 262.309 93.3892 262.309 93.1989V89.9432ZM264.591 95.2273C264.506 95.2273 264.43 95.2202 264.363 95.206C264.296 95.1932 264.25 95.1804 264.224 95.1676L264.352 94.7244C264.474 94.7557 264.582 94.767 264.676 94.7585C264.77 94.75 264.853 94.7081 264.925 94.6328C264.999 94.5589 265.067 94.4389 265.128 94.2727L265.221 94.017L264.011 90.7273H264.557L265.46 93.3352H265.494L266.398 90.7273H266.943L265.554 94.4773C265.491 94.6463 265.414 94.7862 265.322 94.897C265.229 95.0092 265.122 95.0923 265 95.1463C264.879 95.2003 264.743 95.2273 264.591 95.2273Z" fill="black"/>
<path d="M90.3556 122V117.636H91.83C92.1723 117.636 92.4521 117.698 92.6695 117.822C92.8882 117.944 93.0502 118.109 93.1553 118.318C93.2604 118.527 93.3129 118.76 93.3129 119.017C93.3129 119.274 93.2604 119.508 93.1553 119.718C93.0516 119.928 92.8911 120.096 92.6737 120.221C92.4564 120.344 92.178 120.406 91.8385 120.406H90.7817V119.938H91.8215C92.0558 119.938 92.2441 119.897 92.3861 119.816C92.5281 119.735 92.6311 119.626 92.695 119.488C92.7604 119.349 92.7931 119.192 92.7931 119.017C92.7931 118.842 92.7604 118.686 92.695 118.548C92.6311 118.411 92.5274 118.303 92.384 118.224C92.2405 118.145 92.0502 118.105 91.8129 118.105H90.884V122H90.3556ZM96.1585 120.662V118.727H96.6613V122H96.1585V121.446H96.1244C96.0477 121.612 95.9284 121.754 95.7664 121.87C95.6045 121.985 95.3999 122.043 95.1528 122.043C94.9482 122.043 94.7664 121.998 94.6073 121.908C94.4482 121.817 94.3232 121.681 94.2323 121.499C94.1414 121.316 94.096 121.085 94.096 120.807V118.727H94.5988V120.773C94.5988 121.011 94.6656 121.202 94.7991 121.344C94.934 121.486 95.1059 121.557 95.3147 121.557C95.4397 121.557 95.5669 121.525 95.6961 121.461C95.8268 121.397 95.9362 121.299 96.0242 121.167C96.1137 121.035 96.1585 120.866 96.1585 120.662ZM98.0851 117.636V122H97.5823V117.636H98.0851ZM101.324 119.46L100.873 119.588C100.844 119.513 100.802 119.44 100.747 119.369C100.693 119.296 100.619 119.237 100.525 119.19C100.432 119.143 100.312 119.119 100.165 119.119C99.9649 119.119 99.798 119.165 99.6645 119.258C99.5324 119.349 99.4664 119.464 99.4664 119.605C99.4664 119.73 99.5118 119.829 99.6027 119.901C99.6936 119.974 99.8357 120.034 100.029 120.082L100.515 120.202C100.807 120.273 101.025 120.381 101.169 120.528C101.312 120.673 101.384 120.859 101.384 121.088C101.384 121.276 101.33 121.443 101.222 121.591C101.116 121.739 100.966 121.855 100.775 121.94C100.583 122.026 100.36 122.068 100.106 122.068C99.7718 122.068 99.4955 121.996 99.2767 121.851C99.058 121.706 98.9195 121.494 98.8612 121.216L99.3385 121.097C99.384 121.273 99.4699 121.405 99.5963 121.493C99.7242 121.581 99.8911 121.625 100.097 121.625C100.331 121.625 100.517 121.575 100.655 121.476C100.794 121.375 100.864 121.254 100.864 121.114C100.864 121 100.824 120.905 100.745 120.828C100.665 120.75 100.543 120.692 100.378 120.653L99.8328 120.526C99.5331 120.455 99.3129 120.344 99.1723 120.195C99.0331 120.045 98.9635 119.857 98.9635 119.631C98.9635 119.446 99.0154 119.283 99.1191 119.141C99.2242 118.999 99.3669 118.887 99.5473 118.806C99.7291 118.725 99.9351 118.685 100.165 118.685C100.489 118.685 100.743 118.756 100.928 118.898C101.114 119.04 101.246 119.227 101.324 119.46ZM103.513 122.068C103.198 122.068 102.926 121.999 102.697 121.859C102.47 121.719 102.294 121.523 102.171 121.271C102.049 121.018 101.987 120.724 101.987 120.389C101.987 120.054 102.049 119.759 102.171 119.503C102.294 119.246 102.466 119.045 102.686 118.902C102.908 118.757 103.166 118.685 103.462 118.685C103.632 118.685 103.801 118.713 103.967 118.77C104.133 118.827 104.284 118.919 104.421 119.047C104.557 119.173 104.666 119.341 104.747 119.55C104.828 119.759 104.868 120.016 104.868 120.321V120.534H102.345V120.099H104.357C104.357 119.915 104.32 119.75 104.246 119.605C104.174 119.46 104.07 119.346 103.935 119.262C103.801 119.178 103.644 119.136 103.462 119.136C103.262 119.136 103.088 119.186 102.942 119.286C102.797 119.384 102.686 119.511 102.608 119.669C102.529 119.827 102.49 119.996 102.49 120.176V120.466C102.49 120.713 102.533 120.923 102.618 121.094C102.705 121.265 102.825 121.395 102.978 121.484C103.132 121.572 103.31 121.616 103.513 121.616C103.645 121.616 103.764 121.598 103.871 121.561C103.979 121.523 104.072 121.466 104.15 121.391C104.228 121.314 104.289 121.219 104.331 121.105L104.817 121.241C104.766 121.406 104.68 121.551 104.559 121.676C104.438 121.8 104.289 121.896 104.112 121.966C103.934 122.034 103.735 122.068 103.513 122.068Z" fill="black"/>
<path d="M19.9824 213H18.6358V208.636H20.0421C20.4654 208.636 20.8276 208.724 21.1287 208.898C21.4299 209.072 21.6607 209.321 21.8212 209.646C21.9817 209.97 22.062 210.358 22.062 210.81C22.062 211.264 21.981 211.656 21.8191 211.984C21.6571 212.31 21.4213 212.562 21.1117 212.738C20.802 212.913 20.4256 213 19.9824 213ZM19.1642 212.531H19.9483C20.3091 212.531 20.6081 212.462 20.8453 212.322C21.0826 212.183 21.2594 211.985 21.3759 211.728C21.4924 211.471 21.5506 211.165 21.5506 210.81C21.5506 210.457 21.4931 210.154 21.378 209.9C21.263 209.644 21.0911 209.448 20.8624 209.312C20.6337 209.174 20.3489 209.105 20.008 209.105H19.1642V212.531ZM22.8801 213V209.727H23.383V213H22.8801ZM23.1358 209.182C23.0378 209.182 22.9533 209.148 22.8823 209.082C22.8127 209.015 22.7779 208.935 22.7779 208.841C22.7779 208.747 22.8127 208.667 22.8823 208.6C22.9533 208.533 23.0378 208.5 23.1358 208.5C23.2338 208.5 23.3176 208.533 23.3873 208.6C23.4583 208.667 23.4938 208.747 23.4938 208.841C23.4938 208.935 23.4583 209.015 23.3873 209.082C23.3176 209.148 23.2338 209.182 23.1358 209.182ZM26.6222 210.46L26.1705 210.588C26.142 210.513 26.1001 210.44 26.0447 210.369C25.9908 210.296 25.9169 210.237 25.8232 210.19C25.7294 210.143 25.6094 210.119 25.4631 210.119C25.2628 210.119 25.0959 210.165 24.9624 210.258C24.8303 210.349 24.7642 210.464 24.7642 210.605C24.7642 210.73 24.8097 210.829 24.9006 210.901C24.9915 210.974 25.1335 211.034 25.3267 211.082L25.8125 211.202C26.1051 211.273 26.3232 211.381 26.4666 211.528C26.6101 211.673 26.6818 211.859 26.6818 212.088C26.6818 212.276 26.6278 212.443 26.5199 212.591C26.4134 212.739 26.2642 212.855 26.0724 212.94C25.8807 213.026 25.6577 213.068 25.4034 213.068C25.0696 213.068 24.7933 212.996 24.5746 212.851C24.3558 212.706 24.2173 212.494 24.1591 212.216L24.6364 212.097C24.6818 212.273 24.7678 212.405 24.8942 212.493C25.022 212.581 25.1889 212.625 25.3949 212.625C25.6293 212.625 25.8153 212.575 25.9531 212.476C26.0923 212.375 26.1619 212.254 26.1619 212.114C26.1619 212 26.1222 211.905 26.0426 211.828C25.9631 211.75 25.8409 211.692 25.6761 211.653L25.1307 211.526C24.831 211.455 24.6108 211.344 24.4702 211.195C24.331 211.045 24.2614 210.857 24.2614 210.631C24.2614 210.446 24.3132 210.283 24.4169 210.141C24.522 209.999 24.6648 209.887 24.8452 209.806C25.027 209.725 25.233 209.685 25.4631 209.685C25.7869 209.685 26.0412 209.756 26.2259 209.898C26.4119 210.04 26.544 210.227 26.6222 210.46ZM28.862 209.727V210.153H27.166V209.727H28.862ZM27.6603 208.943H28.1632V212.062C28.1632 212.205 28.1838 212.311 28.225 212.382C28.2676 212.452 28.3216 212.499 28.3869 212.523C28.4537 212.545 28.524 212.557 28.5978 212.557C28.6532 212.557 28.6987 212.554 28.7342 212.548C28.7697 212.541 28.7981 212.536 28.8194 212.531L28.9217 212.983C28.8876 212.996 28.84 213.009 28.7789 213.021C28.7179 213.036 28.6404 213.043 28.5467 213.043C28.4047 213.043 28.2654 213.012 28.1291 212.951C27.9941 212.89 27.8819 212.797 27.7924 212.672C27.7044 212.547 27.6603 212.389 27.6603 212.199V208.943ZM30.5815 213.077C30.3741 213.077 30.1859 213.038 30.0169 212.96C29.8478 212.88 29.7136 212.766 29.6142 212.616C29.5147 212.466 29.465 212.284 29.465 212.071C29.465 211.884 29.502 211.732 29.5758 211.615C29.6497 211.497 29.7484 211.405 29.872 211.338C29.9956 211.271 30.1319 211.222 30.2811 211.189C30.4316 211.155 30.5829 211.128 30.7349 211.108C30.9338 211.082 31.095 211.063 31.2186 211.05C31.3436 211.036 31.4345 211.013 31.4913 210.98C31.5495 210.947 31.5787 210.891 31.5787 210.81V210.793C31.5787 210.582 31.5211 210.419 31.4061 210.303C31.2924 210.186 31.1199 210.128 30.8883 210.128C30.6483 210.128 30.46 210.18 30.3237 210.286C30.1873 210.391 30.0914 210.503 30.036 210.622L29.5588 210.452C29.644 210.253 29.7576 210.098 29.8997 209.987C30.0431 209.875 30.1994 209.797 30.3684 209.753C30.5389 209.707 30.7065 209.685 30.8713 209.685C30.9764 209.685 31.0971 209.697 31.2335 209.723C31.3713 209.747 31.5041 209.798 31.6319 209.874C31.7612 209.951 31.8684 210.067 31.9537 210.222C32.0389 210.376 32.0815 210.584 32.0815 210.844V213H31.5787V212.557H31.5531C31.519 212.628 31.4622 212.704 31.3826 212.785C31.3031 212.866 31.1973 212.935 31.0652 212.991C30.9331 213.048 30.7718 213.077 30.5815 213.077ZM30.6582 212.625C30.8571 212.625 31.0247 212.586 31.161 212.508C31.2988 212.43 31.4025 212.329 31.4721 212.205C31.5431 212.082 31.5787 211.952 31.5787 211.815V211.355C31.5574 211.381 31.5105 211.404 31.438 211.425C31.367 211.445 31.2846 211.463 31.1909 211.479C31.0985 211.493 31.0083 211.506 30.9203 211.517C30.8336 211.527 30.7633 211.536 30.7093 211.543C30.5787 211.56 30.4565 211.587 30.3429 211.626C30.2306 211.663 30.1397 211.719 30.0701 211.794C30.002 211.868 29.9679 211.969 29.9679 212.097C29.9679 212.271 30.0325 212.403 30.1618 212.493C30.2924 212.581 30.4579 212.625 30.6582 212.625ZM33.5021 211.031V213H32.9993V209.727H33.4851V210.239H33.5277C33.6044 210.072 33.7209 209.939 33.8771 209.838C34.0334 209.736 34.2351 209.685 34.4822 209.685C34.7038 209.685 34.8977 209.73 35.0639 209.821C35.2301 209.911 35.3594 210.047 35.4517 210.23C35.544 210.412 35.5902 210.642 35.5902 210.92V213H35.0874V210.955C35.0874 210.697 35.0206 210.497 34.8871 210.354C34.7536 210.209 34.5703 210.136 34.3374 210.136C34.1768 210.136 34.0334 210.171 33.907 210.241C33.782 210.31 33.6832 210.412 33.6108 210.545C33.5384 210.679 33.5021 210.841 33.5021 211.031ZM37.8386 213.068C37.5318 213.068 37.2676 212.996 37.046 212.851C36.8244 212.706 36.6539 212.506 36.5346 212.252C36.4153 211.998 36.3556 211.707 36.3556 211.381C36.3556 211.048 36.4167 210.755 36.5389 210.501C36.6625 210.245 36.8343 210.045 37.0545 209.902C37.2761 209.757 37.5346 209.685 37.8301 209.685C38.0602 209.685 38.2676 209.727 38.4522 209.812C38.6369 209.898 38.7882 210.017 38.9061 210.17C39.024 210.324 39.0971 210.503 39.1255 210.707H38.6227C38.5843 210.558 38.4991 210.426 38.367 210.311C38.2363 210.195 38.0602 210.136 37.8386 210.136C37.6426 210.136 37.4707 210.187 37.323 210.29C37.1767 210.391 37.0623 210.533 36.9799 210.718C36.899 210.901 36.8585 211.116 36.8585 211.364C36.8585 211.616 36.8983 211.837 36.9778 212.024C37.0588 212.212 37.1724 212.357 37.3187 212.461C37.4664 212.565 37.6397 212.616 37.8386 212.616C37.9693 212.616 38.0879 212.594 38.1944 212.548C38.301 212.503 38.3912 212.438 38.465 212.352C38.5389 212.267 38.5914 212.165 38.6227 212.045H39.1255C39.0971 212.239 39.0268 212.413 38.9146 212.567C38.8038 212.721 38.6568 212.843 38.4735 212.934C38.2917 213.023 38.0801 213.068 37.8386 213.068ZM41.2328 213.068C40.9174 213.068 40.6454 212.999 40.4167 212.859C40.1895 212.719 40.014 212.523 39.8904 212.271C39.7683 212.018 39.7072 211.724 39.7072 211.389C39.7072 211.054 39.7683 210.759 39.8904 210.503C40.014 210.246 40.1859 210.045 40.4061 209.902C40.6277 209.757 40.8862 209.685 41.1816 209.685C41.3521 209.685 41.5204 209.713 41.6866 209.77C41.8528 209.827 42.0041 209.919 42.1404 210.047C42.2768 210.173 42.3855 210.341 42.4664 210.55C42.5474 210.759 42.5879 211.016 42.5879 211.321V211.534H40.0652V211.099H42.0765C42.0765 210.915 42.0396 210.75 41.9657 210.605C41.8933 210.46 41.7896 210.346 41.6547 210.262C41.5211 210.178 41.3635 210.136 41.1816 210.136C40.9814 210.136 40.8081 210.186 40.6618 210.286C40.5169 210.384 40.4054 210.511 40.3272 210.669C40.2491 210.827 40.21 210.996 40.21 211.176V211.466C40.21 211.713 40.2527 211.923 40.3379 212.094C40.4245 212.265 40.5446 212.395 40.698 212.484C40.8514 212.572 41.0297 212.616 41.2328 212.616C41.3649 212.616 41.4842 212.598 41.5907 212.561C41.6987 212.523 41.7917 212.466 41.8699 212.391C41.948 212.314 42.0083 212.219 42.051 212.105L42.5368 212.241C42.4856 212.406 42.3997 212.551 42.2789 212.676C42.1582 212.8 42.0091 212.896 41.8315 212.966C41.6539 213.034 41.4544 213.068 41.2328 213.068Z" fill="black"/>
<path d="M170.546 236V231.636H171.049V233.247H171.091C171.128 233.19 171.18 233.118 171.245 233.03C171.312 232.94 171.407 232.861 171.53 232.791C171.655 232.72 171.824 232.685 172.037 232.685C172.313 232.685 172.556 232.754 172.766 232.891C172.976 233.029 173.14 233.224 173.258 233.477C173.376 233.73 173.435 234.028 173.435 234.372C173.435 234.719 173.376 235.019 173.258 235.273C173.14 235.526 172.977 235.722 172.768 235.862C172.559 235.999 172.319 236.068 172.046 236.068C171.836 236.068 171.667 236.033 171.541 235.964C171.415 235.893 171.317 235.812 171.249 235.723C171.181 235.632 171.128 235.557 171.091 235.497H171.032V236H170.546ZM171.04 234.364C171.04 234.611 171.077 234.829 171.149 235.018C171.221 235.205 171.327 235.352 171.466 235.459C171.606 235.564 171.776 235.616 171.978 235.616C172.188 235.616 172.363 235.561 172.504 235.45C172.646 235.338 172.753 235.187 172.824 234.999C172.896 234.808 172.932 234.597 172.932 234.364C172.932 234.134 172.897 233.926 172.826 233.741C172.756 233.555 172.65 233.408 172.508 233.3C172.368 233.191 172.191 233.136 171.978 233.136C171.773 233.136 171.601 233.188 171.462 233.292C171.323 233.394 171.218 233.538 171.147 233.722C171.076 233.906 171.04 234.119 171.04 234.364ZM175.534 236.068C175.238 236.068 174.979 235.998 174.756 235.857C174.535 235.717 174.361 235.52 174.236 235.267C174.113 235.014 174.051 234.719 174.051 234.381C174.051 234.04 174.113 233.742 174.236 233.488C174.361 233.234 174.535 233.036 174.756 232.896C174.979 232.755 175.238 232.685 175.534 232.685C175.829 232.685 176.088 232.755 176.309 232.896C176.532 233.036 176.706 233.234 176.829 233.488C176.954 233.742 177.017 234.04 177.017 234.381C177.017 234.719 176.954 235.014 176.829 235.267C176.706 235.52 176.532 235.717 176.309 235.857C176.088 235.998 175.829 236.068 175.534 236.068ZM175.534 235.616C175.758 235.616 175.943 235.559 176.088 235.444C176.233 235.329 176.34 235.178 176.41 234.99C176.479 234.803 176.514 234.599 176.514 234.381C176.514 234.162 176.479 233.958 176.41 233.769C176.34 233.58 176.233 233.428 176.088 233.311C175.943 233.195 175.758 233.136 175.534 233.136C175.309 233.136 175.125 233.195 174.98 233.311C174.835 233.428 174.728 233.58 174.658 233.769C174.589 233.958 174.554 234.162 174.554 234.381C174.554 234.599 174.589 234.803 174.658 234.99C174.728 235.178 174.835 235.329 174.98 235.444C175.125 235.559 175.309 235.616 175.534 235.616ZM179.02 236.068C178.748 236.068 178.507 235.999 178.298 235.862C178.089 235.722 177.926 235.526 177.808 235.273C177.69 235.019 177.631 234.719 177.631 234.372C177.631 234.028 177.69 233.73 177.808 233.477C177.926 233.224 178.09 233.029 178.3 232.891C178.51 232.754 178.753 232.685 179.029 232.685C179.242 232.685 179.41 232.72 179.534 232.791C179.659 232.861 179.754 232.94 179.819 233.03C179.886 233.118 179.938 233.19 179.975 233.247H180.017V231.636H180.52V236H180.034V235.497H179.975C179.938 235.557 179.885 235.632 179.817 235.723C179.749 235.812 179.652 235.893 179.525 235.964C179.399 236.033 179.23 236.068 179.02 236.068ZM179.088 235.616C179.29 235.616 179.461 235.564 179.6 235.459C179.739 235.352 179.845 235.205 179.917 235.018C179.99 234.829 180.026 234.611 180.026 234.364C180.026 234.119 179.99 233.906 179.919 233.722C179.848 233.538 179.743 233.394 179.604 233.292C179.465 233.188 179.293 233.136 179.088 233.136C178.875 233.136 178.698 233.191 178.556 233.3C178.415 233.408 178.309 233.555 178.238 233.741C178.169 233.926 178.134 234.134 178.134 234.364C178.134 234.597 178.169 234.808 178.24 234.999C178.313 235.187 178.419 235.338 178.56 235.45C178.702 235.561 178.878 235.616 179.088 235.616ZM181.835 237.227C181.75 237.227 181.674 237.22 181.607 237.206C181.54 237.193 181.494 237.18 181.468 237.168L181.596 236.724C181.718 236.756 181.826 236.767 181.92 236.759C182.014 236.75 182.097 236.708 182.169 236.633C182.243 236.559 182.311 236.439 182.372 236.273L182.466 236.017L181.255 232.727H181.801L182.704 235.335H182.738L183.642 232.727H184.187L182.798 236.477C182.735 236.646 182.658 236.786 182.566 236.897C182.473 237.009 182.366 237.092 182.244 237.146C182.123 237.2 181.987 237.227 181.835 237.227ZM187.962 232.727V233.153H186.266V232.727H187.962ZM186.76 231.943H187.263V235.062C187.263 235.205 187.283 235.311 187.325 235.382C187.367 235.452 187.421 235.499 187.487 235.523C187.553 235.545 187.624 235.557 187.697 235.557C187.753 235.557 187.798 235.554 187.834 235.548C187.869 235.541 187.898 235.536 187.919 235.531L188.021 235.983C187.987 235.996 187.94 236.009 187.879 236.021C187.817 236.036 187.74 236.043 187.646 236.043C187.504 236.043 187.365 236.012 187.229 235.951C187.094 235.89 186.982 235.797 186.892 235.672C186.804 235.547 186.76 235.389 186.76 235.199V231.943ZM190.055 236.068C189.74 236.068 189.468 235.999 189.239 235.859C189.012 235.719 188.836 235.523 188.713 235.271C188.591 235.018 188.529 234.724 188.529 234.389C188.529 234.054 188.591 233.759 188.713 233.503C188.836 233.246 189.008 233.045 189.228 232.902C189.45 232.757 189.708 232.685 190.004 232.685C190.174 232.685 190.343 232.713 190.509 232.77C190.675 232.827 190.826 232.919 190.963 233.047C191.099 233.173 191.208 233.341 191.289 233.55C191.37 233.759 191.41 234.016 191.41 234.321V234.534H188.887V234.099H190.899C190.899 233.915 190.862 233.75 190.788 233.605C190.716 233.46 190.612 233.346 190.477 233.262C190.343 233.178 190.186 233.136 190.004 233.136C189.804 233.136 189.63 233.186 189.484 233.286C189.339 233.384 189.228 233.511 189.15 233.669C189.071 233.827 189.032 233.996 189.032 234.176V234.466C189.032 234.713 189.075 234.923 189.16 235.094C189.247 235.265 189.367 235.395 189.52 235.484C189.674 235.572 189.852 235.616 190.055 235.616C190.187 235.616 190.306 235.598 190.413 235.561C190.521 235.523 190.614 235.466 190.692 235.391C190.77 235.314 190.831 235.219 190.873 235.105L191.359 235.241C191.308 235.406 191.222 235.551 191.101 235.676C190.98 235.8 190.831 235.896 190.654 235.966C190.476 236.034 190.277 236.068 190.055 236.068ZM192.175 236V232.727H192.661V233.239H192.703C192.772 233.064 192.882 232.928 193.034 232.832C193.186 232.734 193.368 232.685 193.581 232.685C193.797 232.685 193.977 232.734 194.12 232.832C194.265 232.928 194.378 233.064 194.459 233.239H194.493C194.577 233.07 194.703 232.935 194.87 232.836C195.038 232.735 195.239 232.685 195.473 232.685C195.766 232.685 196.005 232.776 196.191 232.96C196.377 233.141 196.471 233.425 196.471 233.81V236H195.968V233.81C195.968 233.568 195.902 233.396 195.77 233.292C195.637 233.188 195.482 233.136 195.303 233.136C195.073 233.136 194.895 233.206 194.768 233.345C194.642 233.483 194.578 233.658 194.578 233.869V236H194.067V233.759C194.067 233.572 194.007 233.423 193.886 233.309C193.765 233.194 193.61 233.136 193.419 233.136C193.289 233.136 193.167 233.171 193.053 233.241C192.941 233.31 192.85 233.407 192.78 233.531C192.712 233.653 192.678 233.794 192.678 233.955V236H192.175ZM197.39 237.227V232.727H197.876V233.247H197.935C197.972 233.19 198.023 233.118 198.089 233.03C198.156 232.94 198.251 232.861 198.374 232.791C198.499 232.72 198.668 232.685 198.881 232.685C199.157 232.685 199.4 232.754 199.61 232.891C199.82 233.029 199.984 233.224 200.102 233.477C200.22 233.73 200.279 234.028 200.279 234.372C200.279 234.719 200.22 235.019 200.102 235.273C199.984 235.526 199.821 235.722 199.612 235.862C199.403 235.999 199.163 236.068 198.89 236.068C198.68 236.068 198.511 236.033 198.385 235.964C198.259 235.893 198.161 235.812 198.093 235.723C198.025 235.632 197.972 235.557 197.935 235.497H197.893V237.227H197.39ZM197.884 234.364C197.884 234.611 197.92 234.829 197.993 235.018C198.065 235.205 198.171 235.352 198.31 235.459C198.45 235.564 198.62 235.616 198.822 235.616C199.032 235.616 199.207 235.561 199.348 235.45C199.49 235.338 199.597 235.187 199.668 234.999C199.74 234.808 199.776 234.597 199.776 234.364C199.776 234.134 199.741 233.926 199.67 233.741C199.6 233.555 199.494 233.408 199.352 233.3C199.212 233.191 199.035 233.136 198.822 233.136C198.617 233.136 198.445 233.188 198.306 233.292C198.167 233.394 198.062 233.538 197.991 233.722C197.92 233.906 197.884 234.119 197.884 234.364ZM202.418 236.068C202.103 236.068 201.831 235.999 201.602 235.859C201.375 235.719 201.2 235.523 201.076 235.271C200.954 235.018 200.893 234.724 200.893 234.389C200.893 234.054 200.954 233.759 201.076 233.503C201.2 233.246 201.371 233.045 201.592 232.902C201.813 232.757 202.072 232.685 202.367 232.685C202.538 232.685 202.706 232.713 202.872 232.77C203.038 232.827 203.19 232.919 203.326 233.047C203.462 233.173 203.571 233.341 203.652 233.55C203.733 233.759 203.773 234.016 203.773 234.321V234.534H201.251V234.099H203.262C203.262 233.915 203.225 233.75 203.151 233.605C203.079 233.46 202.975 233.346 202.84 233.262C202.707 233.178 202.549 233.136 202.367 233.136C202.167 233.136 201.994 233.186 201.847 233.286C201.702 233.384 201.591 233.511 201.513 233.669C201.435 233.827 201.396 233.996 201.396 234.176V234.466C201.396 234.713 201.438 234.923 201.523 235.094C201.61 235.265 201.73 235.395 201.884 235.484C202.037 235.572 202.215 235.616 202.418 235.616C202.55 235.616 202.67 235.598 202.776 235.561C202.884 235.523 202.977 235.466 203.055 235.391C203.134 235.314 203.194 235.219 203.237 235.105L203.722 235.241C203.671 235.406 203.585 235.551 203.464 235.676C203.344 235.8 203.195 235.896 203.017 235.966C202.839 236.034 202.64 236.068 202.418 236.068ZM204.538 236V232.727H205.024V233.222H205.058C205.118 233.06 205.226 232.928 205.382 232.827C205.538 232.727 205.714 232.676 205.911 232.676C205.947 232.676 205.994 232.677 206.049 232.678C206.104 232.68 206.146 232.682 206.175 232.685V233.196C206.158 233.192 206.119 233.185 206.058 233.177C205.998 233.167 205.935 233.162 205.868 233.162C205.709 233.162 205.567 233.195 205.442 233.262C205.318 233.327 205.22 233.418 205.148 233.535C205.077 233.65 205.041 233.781 205.041 233.929V236H204.538ZM207.734 236.077C207.526 236.077 207.338 236.038 207.169 235.96C207 235.88 206.866 235.766 206.767 235.616C206.667 235.466 206.617 235.284 206.617 235.071C206.617 234.884 206.654 234.732 206.728 234.615C206.802 234.497 206.901 234.405 207.024 234.338C207.148 234.271 207.284 234.222 207.433 234.189C207.584 234.155 207.735 234.128 207.887 234.108C208.086 234.082 208.247 234.063 208.371 234.05C208.496 234.036 208.587 234.013 208.644 233.98C208.702 233.947 208.731 233.891 208.731 233.81V233.793C208.731 233.582 208.673 233.419 208.558 233.303C208.445 233.186 208.272 233.128 208.041 233.128C207.801 233.128 207.612 233.18 207.476 233.286C207.34 233.391 207.244 233.503 207.188 233.622L206.711 233.452C206.796 233.253 206.91 233.098 207.052 232.987C207.195 232.875 207.352 232.797 207.521 232.753C207.691 232.707 207.859 232.685 208.024 232.685C208.129 232.685 208.249 232.697 208.386 232.723C208.524 232.747 208.656 232.798 208.784 232.874C208.914 232.951 209.021 233.067 209.106 233.222C209.191 233.376 209.234 233.584 209.234 233.844V236H208.731V235.557H208.705C208.671 235.628 208.615 235.704 208.535 235.785C208.455 235.866 208.35 235.935 208.218 235.991C208.085 236.048 207.924 236.077 207.734 236.077ZM207.811 235.625C208.009 235.625 208.177 235.586 208.313 235.508C208.451 235.43 208.555 235.329 208.624 235.205C208.695 235.082 208.731 234.952 208.731 234.815V234.355C208.71 234.381 208.663 234.404 208.59 234.425C208.519 234.445 208.437 234.463 208.343 234.479C208.251 234.493 208.161 234.506 208.073 234.517C207.986 234.527 207.916 234.536 207.862 234.543C207.731 234.56 207.609 234.587 207.495 234.626C207.383 234.663 207.292 234.719 207.222 234.794C207.154 234.868 207.12 234.969 207.12 235.097C207.12 235.271 207.185 235.403 207.314 235.493C207.445 235.581 207.61 235.625 207.811 235.625ZM211.575 232.727V233.153H209.879V232.727H211.575ZM210.373 231.943H210.876V235.062C210.876 235.205 210.897 235.311 210.938 235.382C210.98 235.452 211.034 235.499 211.1 235.523C211.167 235.545 211.237 235.557 211.311 235.557C211.366 235.557 211.412 235.554 211.447 235.548C211.483 235.541 211.511 235.536 211.532 235.531L211.635 235.983C211.6 235.996 211.553 236.009 211.492 236.021C211.431 236.036 211.353 236.043 211.26 236.043C211.118 236.043 210.978 236.012 210.842 235.951C210.707 235.89 210.595 235.797 210.505 235.672C210.417 235.547 210.373 235.389 210.373 235.199V231.943ZM214.394 234.662V232.727H214.897V236H214.394V235.446H214.36C214.283 235.612 214.164 235.754 214.002 235.87C213.84 235.985 213.635 236.043 213.388 236.043C213.184 236.043 213.002 235.998 212.843 235.908C212.684 235.817 212.559 235.681 212.468 235.499C212.377 235.316 212.331 235.085 212.331 234.807V232.727H212.834V234.773C212.834 235.011 212.901 235.202 213.034 235.344C213.169 235.486 213.341 235.557 213.55 235.557C213.675 235.557 213.802 235.525 213.931 235.461C214.062 235.397 214.172 235.299 214.26 235.167C214.349 235.035 214.394 234.866 214.394 234.662ZM215.818 236V232.727H216.303V233.222H216.338C216.397 233.06 216.505 232.928 216.661 232.827C216.818 232.727 216.994 232.676 217.19 232.676C217.227 232.676 217.273 232.677 217.328 232.678C217.384 232.68 217.426 232.682 217.454 232.685V233.196C217.437 233.192 217.398 233.185 217.337 233.177C217.277 233.167 217.214 233.162 217.147 233.162C216.988 233.162 216.846 233.195 216.721 233.262C216.597 233.327 216.499 233.418 216.427 233.535C216.356 233.65 216.32 233.781 216.32 233.929V236H215.818ZM219.323 236.068C219.007 236.068 218.735 235.999 218.507 235.859C218.279 235.719 218.104 235.523 217.98 235.271C217.858 235.018 217.797 234.724 217.797 234.389C217.797 234.054 217.858 233.759 217.98 233.503C218.104 233.246 218.276 233.045 218.496 232.902C218.718 232.757 218.976 232.685 219.271 232.685C219.442 232.685 219.61 232.713 219.776 232.77C219.943 232.827 220.094 232.919 220.23 233.047C220.367 233.173 220.475 233.341 220.556 233.55C220.637 233.759 220.678 234.016 220.678 234.321V234.534H218.155V234.099H220.166C220.166 233.915 220.129 233.75 220.056 233.605C219.983 233.46 219.879 233.346 219.744 233.262C219.611 233.178 219.453 233.136 219.271 233.136C219.071 233.136 218.898 233.186 218.752 233.286C218.607 233.384 218.495 233.511 218.417 233.669C218.339 233.827 218.3 233.996 218.3 234.176V234.466C218.3 234.713 218.343 234.923 218.428 235.094C218.514 235.265 218.634 235.395 218.788 235.484C218.941 235.572 219.119 235.616 219.323 235.616C219.455 235.616 219.574 235.598 219.681 235.561C219.789 235.523 219.882 235.466 219.96 235.391C220.038 235.314 220.098 235.219 220.141 235.105L220.627 235.241C220.575 235.406 220.49 235.551 220.369 235.676C220.248 235.8 220.099 235.896 219.921 235.966C219.744 236.034 219.544 236.068 219.323 236.068Z" fill="black"/>
<rect x="20" y="23" width="5" height="5" fill="#B5EBA2"/>
<rect x="25" y="29" width="5" height="5" fill="#B5EBA2"/>
<rect x="30" y="23" width="5" height="5" fill="#B5EBA2"/>
<rect x="52" y="23" width="5" height="5" fill="#B5EBA2"/>
<rect x="52" y="31" width="5" height="5" fill="#B5EBA2"/>
<rect x="52" y="39" width="5" height="5" fill="#B5EBA2"/>
<rect x="60" y="39" width="5" height="5" fill="#B5EBA2"/>
<rect x="68" y="39" width="5" height="5" fill="#B5EBA2"/>
<rect x="60" y="47" width="5" height="5" fill="#B5EBA2"/>
<rect x="25" y="62" width="5" height="5" fill="#B5EBA2"/>
<rect x="38" y="62" width="5" height="5" fill="#B5EBA2"/>
<rect x="93" y="71" width="5" height="5" fill="#B5EBA2"/>
<rect x="142" y="40" width="5" height="5" fill="#EBDBA2"/>
<rect x="160" y="49" width="5" height="5" fill="#EBDBA2"/>
<rect x="175" y="42" width="5" height="5" fill="#EBDBA2"/>
<rect x="191" y="32" width="5" height="5" fill="#EBDBA2"/>
<rect x="207" y="46" width="5" height="5" fill="#EBDBA2"/>
<rect x="301" y="38" width="5" height="5" fill="#EBDBA2"/>
<rect x="341" y="188" width="5" height="5" fill="#80238F"/>
<rect x="334" y="181" width="5" height="5" fill="#80238F"/>
<rect x="327" y="173" width="5" height="5" fill="#80238F"/>
<rect x="86.0244" y="138.023" width="5" height="5" transform="rotate(90.279 86.0244 138.023)" fill="#EBA2A2"/>
<rect x="174.024" y="249.023" width="5" height="5" transform="rotate(90.279 174.024 249.023)" fill="#8B8B8B"/>
<rect x="86.0244" y="138.023" width="5" height="5" transform="rotate(90.279 86.0244 138.023)" fill="#EBA2A2"/>
<rect x="174.024" y="249.023" width="5" height="5" transform="rotate(90.279 174.024 249.023)" fill="#8B8B8B"/>
<rect x="95.0244" y="152.023" width="5" height="5" transform="rotate(90.279 95.0244 152.023)" fill="#EBA2A2"/>
<rect x="128.024" y="165.023" width="5" height="5" transform="rotate(90.279 128.024 165.023)" fill="#EBA2A2"/>
<rect x="158.024" y="152.023" width="5" height="5" transform="rotate(90.279 158.024 152.023)" fill="#EBA2A2"/>
<rect x="30.0244" y="240.023" width="5" height="5" transform="rotate(90.279 30.0244 240.023)" fill="#A2D5EB"/>
<rect x="58.0244" y="255.023" width="5" height="5" transform="rotate(90.279 58.0244 255.023)" fill="#A2D5EB"/>
<rect x="101.024" y="261.023" width="5" height="5" transform="rotate(90.279 101.024 261.023)" fill="#A2D5EB"/>
<rect x="95.0244" y="210.023" width="5" height="5" transform="rotate(90.279 95.0244 210.023)" fill="#A2D5EB"/>
<rect x="111.024" y="159.023" width="5" height="5" transform="rotate(90.279 111.024 159.023)" fill="#EBA2A2"/>
<rect x="183.024" y="263.023" width="5" height="5" transform="rotate(90.279 183.024 263.023)" fill="#8B8B8B"/>
<rect x="124.024" y="138.023" width="5" height="5" transform="rotate(90.279 124.024 138.023)" fill="#EBA2A2"/>
<rect x="59.0244" y="226.023" width="5" height="5" transform="rotate(90.279 59.0244 226.023)" fill="#A2D5EB"/>
<rect x="248.018" y="121" width="5" height="5" transform="rotate(179.8 248.018 121)" fill="#80238F"/>
<rect x="248.018" y="160" width="5" height="5" transform="rotate(179.8 248.018 160)" fill="#80238F"/>
<rect x="267.018" y="187" width="5" height="5" transform="rotate(179.8 267.018 187)" fill="#80238F"/>
<rect x="306.018" y="123" width="5" height="5" transform="rotate(179.8 306.018 123)" fill="#80238F"/>
<rect x="306.018" y="144" width="5" height="5" transform="rotate(179.8 306.018 144)" fill="#80238F"/>
<rect x="267.018" y="187" width="5" height="5" transform="rotate(179.8 267.018 187)" fill="#80238F"/>
<rect x="306.018" y="123" width="5" height="5" transform="rotate(179.8 306.018 123)" fill="#80238F"/>
<rect x="306.018" y="144" width="5" height="5" transform="rotate(179.8 306.018 144)" fill="#80238F"/>
<rect x="265.024" y="258.023" width="5" height="5" transform="rotate(90.279 265.024 258.023)" fill="#8B8B8B"/>
<rect x="93" y="64" width="5" height="5" fill="#B5EBA2"/>
<rect x="142" y="33" width="5" height="5" fill="#EBDBA2"/>
<rect x="160" y="42" width="5" height="5" fill="#EBDBA2"/>
<rect x="175" y="35" width="5" height="5" fill="#EBDBA2"/>
<rect x="191" y="25" width="5" height="5" fill="#EBDBA2"/>
<rect x="207" y="39" width="5" height="5" fill="#EBDBA2"/>
<rect x="301" y="31" width="5" height="5" fill="#EBDBA2"/>
<rect x="341" y="181" width="5" height="5" fill="#80238F"/>
<rect x="334" y="174" width="5" height="5" fill="#80238F"/>
<rect x="327" y="166" width="5" height="5" fill="#80238F"/>
<rect x="93.0234" y="138.059" width="5" height="5" transform="rotate(90.279 93.0234 138.059)" fill="#EBA2A2"/>
<rect x="28.0234" y="226.059" width="5" height="5" transform="rotate(90.279 28.0234 226.059)" fill="#EBA2A2"/>
<rect x="181.023" y="249.059" width="5" height="5" transform="rotate(90.279 181.023 249.059)" fill="#8B8B8B"/>
<rect x="93.0234" y="138.059" width="5" height="5" transform="rotate(90.279 93.0234 138.059)" fill="#EBA2A2"/>
<rect x="28.0234" y="226.059" width="5" height="5" transform="rotate(90.279 28.0234 226.059)" fill="#A2D5EB"/>
<rect x="181.023" y="249.059" width="5" height="5" transform="rotate(90.279 181.023 249.059)" fill="#8B8B8B"/>
<rect x="135.023" y="165.059" width="5" height="5" transform="rotate(90.279 135.023 165.059)" fill="#EBA2A2"/>
<rect x="165.023" y="152.059" width="5" height="5" transform="rotate(90.279 165.023 152.059)" fill="#EBA2A2"/>
<rect x="37.0234" y="240.059" width="5" height="5" transform="rotate(90.279 37.0234 240.059)" fill="#A2D5EB"/>
<rect x="91.0244" y="246.023" width="5" height="5" transform="rotate(90.279 91.0244 246.023)" fill="#A2D5EB"/>
<rect x="108.023" y="261.059" width="5" height="5" transform="rotate(90.279 108.023 261.059)" fill="#A2D5EB"/>
<rect x="190.023" y="263.059" width="5" height="5" transform="rotate(90.279 190.023 263.059)" fill="#8B8B8B"/>
<rect x="131.023" y="138.059" width="5" height="5" transform="rotate(90.279 131.023 138.059)" fill="#EBA2A2"/>
<rect x="66.0234" y="226.059" width="5" height="5" transform="rotate(90.279 66.0234 226.059)" fill="#A2D5EB"/>
<rect x="248.04" y="128" width="5" height="5" transform="rotate(179.8 248.04 128)" fill="#80238F"/>
<rect x="248.04" y="167" width="5" height="5" transform="rotate(179.8 248.04 167)" fill="#80238F"/>
<rect x="267.04" y="194" width="5" height="5" transform="rotate(179.8 267.04 194)" fill="#80238F"/>
<rect x="306.04" y="130" width="5" height="5" transform="rotate(179.8 306.04 130)" fill="#80238F"/>
<rect x="306.04" y="151" width="5" height="5" transform="rotate(179.8 306.04 151)" fill="#80238F"/>
<rect x="267.04" y="194" width="5" height="5" transform="rotate(179.8 267.04 194)" fill="#80238F"/>
<rect x="306.04" y="130" width="5" height="5" transform="rotate(179.8 306.04 130)" fill="#80238F"/>
<rect x="306.04" y="151" width="5" height="5" transform="rotate(179.8 306.04 151)" fill="#80238F"/>
<rect x="272.023" y="258.059" width="5" height="5" transform="rotate(90.279 272.023 258.059)" fill="#8B8B8B"/>
<rect x="257.024" y="251.023" width="5" height="5" transform="rotate(90.279 257.024 251.023)" fill="#8B8B8B"/>
<rect x="257.024" y="251.023" width="5" height="5" transform="rotate(90.279 257.024 251.023)" fill="#8B8B8B"/>
<rect x="93" y="57" width="5" height="5" fill="#B5EBA2"/>
<rect x="160" y="35" width="5" height="5" fill="#EBDBA2"/>
<rect x="246.016" y="46.0156" width="5" height="5" transform="rotate(90.1773 246.016 46.0156)" fill="#EBDBA2"/>
<rect x="261.016" y="26.0156" width="5" height="5" transform="rotate(90.1773 261.016 26.0156)" fill="#EBDBA2"/>
<rect x="246.016" y="8.01562" width="5" height="5" transform="rotate(90.1773 246.016 8.01562)" fill="#EBDBA2"/>
<rect x="191" y="18" width="5" height="5" fill="#EBDBA2"/>
<rect x="207" y="32" width="5" height="5" fill="#EBDBA2"/>
<rect x="301" y="24" width="5" height="5" fill="#EBDBA2"/>
<rect x="341" y="174" width="5" height="5" fill="#80238F"/>
<rect x="334" y="167" width="5" height="5" fill="#80238F"/>
<rect x="327" y="159" width="5" height="5" fill="#80238F"/>
<rect x="100.023" y="138.092" width="5" height="5" transform="rotate(90.279 100.023 138.092)" fill="#EBA2A2"/>
<rect x="35.0234" y="226.092" width="5" height="5" transform="rotate(90.279 35.0234 226.092)" fill="#EBA2A2"/>
<rect x="188.023" y="249.092" width="5" height="5" transform="rotate(90.279 188.023 249.092)" fill="#8B8B8B"/>
<rect x="100.023" y="138.092" width="5" height="5" transform="rotate(90.279 100.023 138.092)" fill="#EBA2A2"/>
<rect x="35.0234" y="226.092" width="5" height="5" transform="rotate(90.279 35.0234 226.092)" fill="#A2D5EB"/>
<rect x="188.023" y="249.092" width="5" height="5" transform="rotate(90.279 188.023 249.092)" fill="#8B8B8B"/>
<rect x="142.023" y="165.092" width="5" height="5" transform="rotate(90.279 142.023 165.092)" fill="#EBA2A2"/>
<rect x="172.023" y="152.092" width="5" height="5" transform="rotate(90.279 172.023 152.092)" fill="#EBA2A2"/>
<rect x="186.024" y="124.023" width="5" height="5" transform="rotate(90.279 186.024 124.023)" fill="#EBA2A2"/>
<rect x="197.023" y="263.092" width="5" height="5" transform="rotate(90.279 197.023 263.092)" fill="#8B8B8B"/>
<rect x="95.0244" y="217.023" width="5" height="5" transform="rotate(90.279 95.0244 217.023)" fill="#A2D5EB"/>
<rect x="103.024" y="210.023" width="5" height="5" transform="rotate(90.279 103.024 210.023)" fill="#A2D5EB"/>
<rect x="103.024" y="217.023" width="5" height="5" transform="rotate(90.279 103.024 217.023)" fill="#A2D5EB"/>
<rect x="248.065" y="135" width="5" height="5" transform="rotate(179.8 248.065 135)" fill="#80238F"/>
<rect x="267.018" y="161" width="5" height="5" transform="rotate(179.8 267.018 161)" fill="#80238F"/>
<rect x="266.018" y="128" width="5" height="5" transform="rotate(179.8 266.018 128)" fill="#80238F"/>
<rect x="267.065" y="201" width="5" height="5" transform="rotate(179.8 267.065 201)" fill="#80238F"/>
<rect x="279.023" y="258.092" width="5" height="5" transform="rotate(90.279 279.023 258.092)" fill="#8B8B8B"/>
<rect x="236.024" y="263.023" width="5" height="5" transform="rotate(90.279 236.024 263.023)" fill="#8B8B8B"/>
<rect x="335.024" y="268.023" width="5" height="5" transform="rotate(90.279 335.024 268.023)" fill="#8B8B8B"/>
<rect x="335.024" y="268.023" width="5" height="5" transform="rotate(90.279 335.024 268.023)" fill="#8B8B8B"/>
<rect x="335.024" y="258.023" width="5" height="5" transform="rotate(90.279 335.024 258.023)" fill="#8B8B8B"/>
<rect x="264.024" y="251.057" width="5" height="5" transform="rotate(90.279 264.024 251.057)" fill="#8B8B8B"/>
<rect x="264.024" y="251.057" width="5" height="5" transform="rotate(90.279 264.024 251.057)" fill="#8B8B8B"/>
<rect x="93" y="50" width="5" height="5" fill="#B5EBA2"/>
<rect x="142" y="19" width="5" height="5" fill="#EBDBA2"/>
<rect x="160" y="28" width="5" height="5" fill="#EBDBA2"/>
<rect x="253.016" y="46.0371" width="5" height="5" transform="rotate(90.1773 253.016 46.0371)" fill="#EBDBA2"/>
<rect x="268.016" y="26.0371" width="5" height="5" transform="rotate(90.1773 268.016 26.0371)" fill="#EBDBA2"/>
<rect x="306.016" y="45.0156" width="5" height="5" transform="rotate(90.1773 306.016 45.0156)" fill="#EBDBA2"/>
<rect x="346.016" y="195.016" width="5" height="5" transform="rotate(90.1773 346.016 195.016)" fill="#80238F"/>
<rect x="339.016" y="188.016" width="5" height="5" transform="rotate(90.1773 339.016 188.016)" fill="#80238F"/>
<rect x="332.016" y="180.016" width="5" height="5" transform="rotate(90.1773 332.016 180.016)" fill="#80238F"/>
<rect x="253.016" y="8.03711" width="5" height="5" transform="rotate(90.1773 253.016 8.03711)" fill="#EBDBA2"/>
<rect x="196.016" y="50.0156" width="5" height="5" transform="rotate(90.1773 196.016 50.0156)" fill="#EBDBA2"/>
<rect x="207" y="25" width="5" height="5" fill="#EBDBA2"/>
<rect x="301" y="17" width="5" height="5" fill="#EBDBA2"/>
<rect x="341" y="167" width="5" height="5" fill="#80238F"/>
<rect x="334" y="160" width="5" height="5" fill="#80238F"/>
<rect x="327" y="152" width="5" height="5" fill="#80238F"/>
<rect x="107.023" y="138.125" width="5" height="5" transform="rotate(90.279 107.023 138.125)" fill="#EBA2A2"/>
<rect x="42.0234" y="226.125" width="5" height="5" transform="rotate(90.279 42.0234 226.125)" fill="#EBA2A2"/>
<rect x="195.023" y="249.125" width="5" height="5" transform="rotate(90.279 195.023 249.125)" fill="#8B8B8B"/>
<rect x="107.023" y="138.125" width="5" height="5" transform="rotate(90.279 107.023 138.125)" fill="#EBA2A2"/>
<rect x="42.0234" y="226.125" width="5" height="5" transform="rotate(90.279 42.0234 226.125)" fill="#A2D5EB"/>
<rect x="195.023" y="249.125" width="5" height="5" transform="rotate(90.279 195.023 249.125)" fill="#8B8B8B"/>
<rect x="111.024" y="151.023" width="5" height="5" transform="rotate(90.279 111.024 151.023)" fill="#EBA2A2"/>
<rect x="149.023" y="165.125" width="5" height="5" transform="rotate(90.279 149.023 165.125)" fill="#EBA2A2"/>
<rect x="179.023" y="152.125" width="5" height="5" transform="rotate(90.279 179.023 152.125)" fill="#EBA2A2"/>
<rect x="193.024" y="124.057" width="5" height="5" transform="rotate(90.279 193.024 124.057)" fill="#EBA2A2"/>
<rect x="204.023" y="263.125" width="5" height="5" transform="rotate(90.279 204.023 263.125)" fill="#8B8B8B"/>
<rect x="145.023" y="138.125" width="5" height="5" transform="rotate(90.279 145.023 138.125)" fill="#EBA2A2"/>
<rect x="80.0234" y="226.125" width="5" height="5" transform="rotate(90.279 80.0234 226.125)" fill="#A2D5EB"/>
<rect x="248.091" y="142" width="5" height="5" transform="rotate(179.8 248.091 142)" fill="#80238F"/>
<rect x="248.091" y="181" width="5" height="5" transform="rotate(179.8 248.091 181)" fill="#80238F"/>
<rect x="306.018" y="194" width="5" height="5" transform="rotate(179.8 306.018 194)" fill="#80238F"/>
<rect x="345.018" y="130" width="5" height="5" transform="rotate(179.8 345.018 130)" fill="#80238F"/>
<rect x="346.018" y="150" width="5" height="5" transform="rotate(179.8 346.018 150)" fill="#80238F"/>
<rect x="306.018" y="194" width="5" height="5" transform="rotate(179.8 306.018 194)" fill="#80238F"/>
<rect x="345.018" y="130" width="5" height="5" transform="rotate(179.8 345.018 130)" fill="#80238F"/>
<rect x="346.018" y="150" width="5" height="5" transform="rotate(179.8 346.018 150)" fill="#80238F"/>
<rect x="286.023" y="258.125" width="5" height="5" transform="rotate(90.279 286.023 258.125)" fill="#8B8B8B"/>
<rect x="298.024" y="240.023" width="5" height="5" transform="rotate(90.279 298.024 240.023)" fill="#8B8B8B"/>
<rect x="342.024" y="268.057" width="5" height="5" transform="rotate(90.279 342.024 268.057)" fill="#8B8B8B"/>
<rect x="342.024" y="268.057" width="5" height="5" transform="rotate(90.279 342.024 268.057)" fill="#8B8B8B"/>
<rect x="271.024" y="251.09" width="5" height="5" transform="rotate(90.279 271.024 251.09)" fill="#8B8B8B"/>
<rect x="271.024" y="251.09" width="5" height="5" transform="rotate(90.279 271.024 251.09)" fill="#8B8B8B"/>
</svg>
